<svg width="480" height="72" viewBox="0 0 480 72" fill="none" xmlns="http://www.w3.org/2000/svg">
<path d="M8 4.25C12.2812 4.25 15.75 7.71875 15.75 12C15.75 16.2812 12.2812 19.75 8 19.75C3.71875 19.75 0.25 16.2812 0.25 12C0.25 7.71875 3.71875 4.25 8 4.25ZM10.875 14.0312C10.9375 13.9688 11 13.8438 11 13.7188C11 13.5625 10.9062 13.4375 10.8125 13.3438L9 12V7.5C9 7.25 8.75 7 8.5 7H7.5C7.21875 7 7 7.25 7 7.5V12.375C7 12.7812 7.15625 13.125 7.46875 13.3438L9.5625 14.9062C9.625 14.9688 9.75 15.0312 9.84375 15.0312C10.0312 15.0312 10.1562 14.9375 10.25 14.8125L10.875 14.0312Z" fill="white"/>
<path d="M37.1655 6.45455V17H35.8885V7.58736H30.5746V17H29.2976V6.45455H37.1655ZM44.8699 12.4893V13.6222H40.5034V12.4893H44.8699ZM40.7918 9.09091V17H39.5766V9.09091H40.7918ZM45.7967 9.09091V17H44.5815V9.09091H45.7967ZM52.5473 11.9126V13.0455H47.9336V11.9126H52.5473ZM62.7387 6.45455V17H61.4617V7.58736H56.1478V17H54.8708V6.45455H62.7387ZM64.6967 10.2237V9.09091H71.1228V10.2237H68.5277V17H67.3125V10.2237H64.6967ZM73.7811 17.0824C73.527 17.0824 73.3091 16.9914 73.1271 16.8095C72.9452 16.6275 72.8542 16.4096 72.8542 16.1555C72.8542 15.9015 72.9452 15.6835 73.1271 15.5016C73.3091 15.3197 73.527 15.2287 73.7811 15.2287C74.0351 15.2287 74.2531 15.3197 74.435 15.5016C74.617 15.6835 74.7079 15.9015 74.7079 16.1555C74.7079 16.3237 74.665 16.4782 74.5792 16.619C74.4968 16.7597 74.3852 16.873 74.2445 16.9588C74.1072 17.0412 73.9527 17.0824 73.7811 17.0824ZM73.7811 11.2124C73.527 11.2124 73.3091 11.1214 73.1271 10.9395C72.9452 10.7575 72.8542 10.5395 72.8542 10.2855C72.8542 10.0315 72.9452 9.81351 73.1271 9.63157C73.3091 9.44963 73.527 9.35866 73.7811 9.35866C74.0351 9.35866 74.2531 9.44963 74.435 9.63157C74.617 9.81351 74.7079 10.0315 74.7079 10.2855C74.7079 10.4537 74.665 10.6082 74.5792 10.7489C74.4968 10.8897 74.3852 11.003 74.2445 11.0888C74.1072 11.1712 73.9527 11.2124 73.7811 11.2124ZM84.3034 6.31037C84.7359 6.3138 85.1684 6.39619 85.6009 6.55753C86.0335 6.71887 86.4282 6.98662 86.7852 7.3608C87.1423 7.73153 87.4289 8.23787 87.6452 8.87979C87.8614 9.52172 87.9695 10.3267 87.9695 11.2947C87.9695 12.2319 87.8803 13.0643 87.7018 13.7921C87.5267 14.5164 87.2727 15.1274 86.9397 15.6252C86.6102 16.1229 86.2085 16.5005 85.7348 16.758C85.2645 17.0154 84.7325 17.1442 84.1386 17.1442C83.5481 17.1442 83.0212 17.0275 82.5578 16.794C82.0978 16.5572 81.7202 16.2293 81.425 15.8105C81.1332 15.3883 80.9461 14.8991 80.8637 14.343H82.1201C82.2334 14.8271 82.4582 15.227 82.7947 15.5428C83.1345 15.8552 83.5825 16.0114 84.1386 16.0114C84.9521 16.0114 85.5941 15.6561 86.0644 14.9455C86.5381 14.2349 86.7749 13.2308 86.7749 11.9332H86.6926C86.5003 12.2216 86.272 12.4705 86.0077 12.6799C85.7434 12.8893 85.4499 13.0506 85.1272 13.1639C84.8045 13.2772 84.4613 13.3338 84.0974 13.3338C83.4932 13.3338 82.9388 13.1845 82.4342 12.8858C81.933 12.5837 81.5314 12.1701 81.2293 11.6449C80.9307 11.1162 80.7813 10.5121 80.7813 9.83239C80.7813 9.18703 80.9255 8.59659 81.2139 8.06108C81.5057 7.52214 81.9142 7.09304 82.4394 6.77379C82.968 6.45455 83.5893 6.30007 84.3034 6.31037ZM84.3034 7.44318C83.8708 7.44318 83.4812 7.55131 83.1345 7.76758C82.7912 7.98041 82.5183 8.26876 82.3158 8.63263C82.1167 8.99307 82.0171 9.39299 82.0171 9.83239C82.0171 10.2718 82.1133 10.6717 82.3055 11.0321C82.5012 11.3891 82.7672 11.6741 83.1036 11.8869C83.4434 12.0963 83.8296 12.201 84.2622 12.201C84.5883 12.201 84.8921 12.1375 85.1736 12.0105C85.455 11.88 85.7005 11.7032 85.9099 11.4801C86.1227 11.2536 86.2892 10.9978 86.4094 10.7129C86.5295 10.4245 86.5896 10.1242 86.5896 9.81179C86.5896 9.39986 86.49 9.01367 86.2909 8.65323C86.0953 8.29279 85.8241 8.00101 85.4774 7.77788C85.1341 7.55475 84.7427 7.44318 84.3034 7.44318ZM90.9007 15.6509C90.6467 15.6509 90.4287 15.56 90.2468 15.378C90.0648 15.1961 89.9739 14.9781 89.9739 14.7241C89.9739 14.4701 90.0648 14.2521 90.2468 14.0701C90.4287 13.8882 90.6467 13.7972 90.9007 13.7972C91.1547 13.7972 91.3727 13.8882 91.5546 14.0701C91.7366 14.2521 91.8275 14.4701 91.8275 14.7241C91.8275 14.8923 91.7846 15.0468 91.6988 15.1875C91.6164 15.3282 91.5049 15.4415 91.3641 15.5273C91.2268 15.6097 91.0723 15.6509 90.9007 15.6509ZM90.9007 10.3164C90.6467 10.3164 90.4287 10.2254 90.2468 10.0435C90.0648 9.86156 89.9739 9.64358 89.9739 9.38956C89.9739 9.13553 90.0648 8.91755 90.2468 8.73562C90.4287 8.55368 90.6467 8.46271 90.9007 8.46271C91.1547 8.46271 91.3727 8.55368 91.5546 8.73562C91.7366 8.91755 91.8275 9.13553 91.8275 9.38956C91.8275 9.55777 91.7846 9.71224 91.6988 9.85298C91.6164 9.99373 91.5049 10.107 91.3641 10.1928C91.2268 10.2752 91.0723 10.3164 90.9007 10.3164ZM97.4272 17.1442C96.6514 17.1442 95.9906 16.9331 95.4448 16.5108C94.899 16.0852 94.4819 15.469 94.1936 14.6623C93.9052 13.8522 93.7611 12.8738 93.7611 11.7273C93.7611 10.5876 93.9052 9.61441 94.1936 8.80771C94.4854 7.99757 94.9042 7.37968 95.45 6.95401C95.9992 6.52492 96.6583 6.31037 97.4272 6.31037C98.1962 6.31037 98.8536 6.52492 99.3994 6.95401C99.9486 7.37968 100.367 7.99757 100.656 8.80771C100.948 9.61441 101.093 10.5876 101.093 11.7273C101.093 12.8738 100.949 13.8522 100.661 14.6623C100.373 15.469 99.9555 16.0852 99.4097 16.5108C98.8639 16.9331 98.2031 17.1442 97.4272 17.1442ZM97.4272 16.0114C98.1962 16.0114 98.7935 15.6406 99.2191 14.8991C99.6448 14.1577 99.8576 13.1004 99.8576 11.7273C99.8576 10.8142 99.7598 10.0366 99.5641 9.39471C99.3719 8.75278 99.0939 8.26361 98.73 7.9272C98.3695 7.59079 97.9353 7.42259 97.4272 7.42259C96.6652 7.42259 96.0696 7.79847 95.6405 8.55025C95.2114 9.29859 94.9968 10.3576 94.9968 11.7273C94.9968 12.6404 95.093 13.4162 95.2852 14.0547C95.4774 14.6932 95.7538 15.1789 96.1142 15.5119C96.4781 15.8449 96.9158 16.0114 97.4272 16.0114ZM106.49 17.1442C105.714 17.1442 105.053 16.9331 104.507 16.5108C103.962 16.0852 103.544 15.469 103.256 14.6623C102.968 13.8522 102.824 12.8738 102.824 11.7273C102.824 10.5876 102.968 9.61441 103.256 8.80771C103.548 7.99757 103.967 7.37968 104.512 6.95401C105.062 6.52492 105.721 6.31037 106.49 6.31037C107.259 6.31037 107.916 6.52492 108.462 6.95401C109.011 7.37968 109.43 7.99757 109.718 8.80771C110.01 9.61441 110.156 10.5876 110.156 11.7273C110.156 12.8738 110.012 13.8522 109.723 14.6623C109.435 15.469 109.018 16.0852 108.472 16.5108C107.926 16.9331 107.266 17.1442 106.49 17.1442ZM106.49 16.0114C107.259 16.0114 107.856 15.6406 108.282 14.8991C108.707 14.1577 108.92 13.1004 108.92 11.7273C108.92 10.8142 108.822 10.0366 108.627 9.39471C108.434 8.75278 108.156 8.26361 107.792 7.9272C107.432 7.59079 106.998 7.42259 106.49 7.42259C105.728 7.42259 105.132 7.79847 104.703 8.55025C104.274 9.29859 104.059 10.3576 104.059 11.7273C104.059 12.6404 104.155 13.4162 104.348 14.0547C104.54 14.6932 104.816 15.1789 105.177 15.5119C105.541 15.8449 105.978 16.0114 106.49 16.0114ZM120.743 11.1609V12.2937H116.129V11.1609H120.743ZM126.938 17V16.0732L130.419 12.2628C130.828 11.8165 131.164 11.4286 131.428 11.0991C131.693 10.7661 131.888 10.4537 132.015 10.1619C132.146 9.86671 132.211 9.55777 132.211 9.23509C132.211 8.86435 132.122 8.54338 131.943 8.27219C131.768 8.00101 131.528 7.79161 131.222 7.644C130.917 7.49639 130.574 7.42259 130.193 7.42259C129.787 7.42259 129.434 7.50669 129.132 7.67489C128.833 7.83967 128.601 8.07138 128.437 8.37003C128.275 8.66868 128.195 9.01882 128.195 9.42045H126.979C126.979 8.80256 127.122 8.26018 127.407 7.79332C127.692 7.32647 128.08 6.96259 128.571 6.7017C129.065 6.44081 129.619 6.31037 130.234 6.31037C130.852 6.31037 131.399 6.44081 131.876 6.7017C132.353 6.96259 132.728 7.31445 132.999 7.75728C133.27 8.20011 133.406 8.69271 133.406 9.23509C133.406 9.62299 133.335 10.0023 133.195 10.373C133.057 10.7404 132.817 11.1506 132.474 11.6037C132.134 12.0534 131.662 12.6026 131.058 13.2514L128.689 15.7848V15.8672H133.591V17H126.938ZM139.157 17.1442C138.381 17.1442 137.721 16.9331 137.175 16.5108C136.629 16.0852 136.212 15.469 135.924 14.6623C135.635 13.8522 135.491 12.8738 135.491 11.7273C135.491 10.5876 135.635 9.61441 135.924 8.80771C136.215 7.99757 136.634 7.37968 137.18 6.95401C137.729 6.52492 138.388 6.31037 139.157 6.31037C139.926 6.31037 140.584 6.52492 141.129 6.95401C141.679 7.37968 142.097 7.99757 142.386 8.80771C142.678 9.61441 142.823 10.5876 142.823 11.7273C142.823 12.8738 142.679 13.8522 142.391 14.6623C142.103 15.469 141.685 16.0852 141.14 16.5108C140.594 16.9331 139.933 17.1442 139.157 17.1442ZM139.157 16.0114C139.926 16.0114 140.523 15.6406 140.949 14.8991C141.375 14.1577 141.588 13.1004 141.588 11.7273C141.588 10.8142 141.49 10.0366 141.294 9.39471C141.102 8.75278 140.824 8.26361 140.46 7.9272C140.1 7.59079 139.665 7.42259 139.157 7.42259C138.395 7.42259 137.8 7.79847 137.37 8.55025C136.941 9.29859 136.727 10.3576 136.727 11.7273C136.727 12.6404 136.823 13.4162 137.015 14.0547C137.207 14.6932 137.484 15.1789 137.844 15.5119C138.208 15.8449 138.646 16.0114 139.157 16.0114ZM145.686 15.6509C145.432 15.6509 145.214 15.56 145.032 15.378C144.85 15.1961 144.759 14.9781 144.759 14.7241C144.759 14.4701 144.85 14.2521 145.032 14.0701C145.214 13.8882 145.432 13.7972 145.686 13.7972C145.94 13.7972 146.158 13.8882 146.34 14.0701C146.522 14.2521 146.613 14.4701 146.613 14.7241C146.613 14.8923 146.57 15.0468 146.484 15.1875C146.402 15.3282 146.291 15.4415 146.15 15.5273C146.012 15.6097 145.858 15.6509 145.686 15.6509ZM145.686 10.3164C145.432 10.3164 145.214 10.2254 145.032 10.0435C144.85 9.86156 144.759 9.64358 144.759 9.38956C144.759 9.13553 144.85 8.91755 145.032 8.73562C145.214 8.55368 145.432 8.46271 145.686 8.46271C145.94 8.46271 146.158 8.55368 146.34 8.73562C146.522 8.91755 146.613 9.13553 146.613 9.38956C146.613 9.55777 146.57 9.71224 146.484 9.85298C146.402 9.99373 146.291 10.107 146.15 10.1928C146.012 10.2752 145.858 10.3164 145.686 10.3164ZM152.213 17.1442C151.437 17.1442 150.776 16.9331 150.23 16.5108C149.685 16.0852 149.268 15.469 148.979 14.6623C148.691 13.8522 148.547 12.8738 148.547 11.7273C148.547 10.5876 148.691 9.61441 148.979 8.80771C149.271 7.99757 149.69 7.37968 150.236 6.95401C150.785 6.52492 151.444 6.31037 152.213 6.31037C152.982 6.31037 153.639 6.52492 154.185 6.95401C154.734 7.37968 155.153 7.99757 155.441 8.80771C155.733 9.61441 155.879 10.5876 155.879 11.7273C155.879 12.8738 155.735 13.8522 155.447 14.6623C155.158 15.469 154.741 16.0852 154.195 16.5108C153.65 16.9331 152.989 17.1442 152.213 17.1442ZM152.213 16.0114C152.982 16.0114 153.579 15.6406 154.005 14.8991C154.43 14.1577 154.643 13.1004 154.643 11.7273C154.643 10.8142 154.545 10.0366 154.35 9.39471C154.158 8.75278 153.879 8.26361 153.516 7.9272C153.155 7.59079 152.721 7.42259 152.213 7.42259C151.451 7.42259 150.855 7.79847 150.426 8.55025C149.997 9.29859 149.782 10.3576 149.782 11.7273C149.782 12.6404 149.879 13.4162 150.071 14.0547C150.263 14.6932 150.539 15.1789 150.9 15.5119C151.264 15.8449 151.701 16.0114 152.213 16.0114ZM161.275 17.1442C160.5 17.1442 159.839 16.9331 159.293 16.5108C158.747 16.0852 158.33 15.469 158.042 14.6623C157.753 13.8522 157.609 12.8738 157.609 11.7273C157.609 10.5876 157.753 9.61441 158.042 8.80771C158.334 7.99757 158.752 7.37968 159.298 6.95401C159.847 6.52492 160.506 6.31037 161.275 6.31037C162.044 6.31037 162.702 6.52492 163.248 6.95401C163.797 7.37968 164.216 7.99757 164.504 8.80771C164.796 9.61441 164.942 10.5876 164.942 11.7273C164.942 12.8738 164.797 13.8522 164.509 14.6623C164.221 15.469 163.804 16.0852 163.258 16.5108C162.712 16.9331 162.051 17.1442 161.275 17.1442ZM161.275 16.0114C162.044 16.0114 162.642 15.6406 163.067 14.8991C163.493 14.1577 163.706 13.1004 163.706 11.7273C163.706 10.8142 163.608 10.0366 163.412 9.39471C163.22 8.75278 162.942 8.26361 162.578 7.9272C162.218 7.59079 161.783 7.42259 161.275 7.42259C160.513 7.42259 159.918 7.79847 159.489 8.55025C159.06 9.29859 158.845 10.3576 158.845 11.7273C158.845 12.6404 158.941 13.4162 159.133 14.0547C159.326 14.6932 159.602 15.1789 159.962 15.5119C160.326 15.8449 160.764 16.0114 161.275 16.0114ZM37.7628 33.75H36.4858C36.4103 33.3827 36.2781 33.06 36.0893 32.782C35.9039 32.5039 35.6774 32.2705 35.4096 32.0817C35.1453 31.8894 34.8518 31.7453 34.5291 31.6491C34.2064 31.553 33.87 31.505 33.5199 31.505C32.8814 31.505 32.303 31.6663 31.7846 31.989C31.2697 32.3117 30.8595 32.7871 30.554 33.4153C30.2519 34.0435 30.1009 34.8142 30.1009 35.7273C30.1009 36.6404 30.2519 37.411 30.554 38.0392C30.8595 38.6674 31.2697 39.1429 31.7846 39.4656C32.303 39.7882 32.8814 39.9496 33.5199 39.9496C33.87 39.9496 34.2064 39.9015 34.5291 39.8054C34.8518 39.7093 35.1453 39.5668 35.4096 39.378C35.6774 39.1858 35.9039 38.9506 36.0893 38.6726C36.2781 38.3911 36.4103 38.0684 36.4858 37.7045H37.7628C37.6667 38.2435 37.4916 38.7258 37.2376 39.1515C36.9835 39.5771 36.6677 39.9393 36.2901 40.2379C35.9125 40.5331 35.4886 40.758 35.0183 40.9125C34.5514 41.0669 34.052 41.1442 33.5199 41.1442C32.6205 41.1442 31.8207 40.9245 31.1204 40.4851C30.4201 40.0457 29.8691 39.4209 29.4675 38.6108C29.0659 37.8007 28.8651 36.8395 28.8651 35.7273C28.8651 34.6151 29.0659 33.6539 29.4675 32.8438C29.8691 32.0336 30.4201 31.4089 31.1204 30.9695C31.8207 30.5301 32.6205 30.3104 33.5199 30.3104C34.052 30.3104 34.5514 30.3876 35.0183 30.5421C35.4886 30.6966 35.9125 30.9231 36.2901 31.2218C36.6677 31.517 36.9835 31.8774 37.2376 32.3031C37.4916 32.7253 37.6667 33.2076 37.7628 33.75ZM45.5316 30.125L46.1495 30.8665C45.9092 31.0999 45.6311 31.263 45.3153 31.3556C44.9995 31.4483 44.6425 31.505 44.2443 31.5256C43.8461 31.5462 43.4032 31.5668 42.9158 31.5874C42.3666 31.608 41.9117 31.7418 41.5513 31.989C41.1908 32.2362 40.9128 32.5932 40.7171 33.06C40.5214 33.5269 40.3961 34.1001 40.3412 34.7798H40.4442C40.712 34.2855 41.0827 33.9216 41.5564 33.6882C42.0301 33.4548 42.5382 33.3381 43.0806 33.3381C43.6985 33.3381 44.2546 33.4822 44.7489 33.7706C45.2432 34.0589 45.6345 34.4863 45.9229 35.0527C46.2112 35.6191 46.3554 36.3177 46.3554 37.1484C46.3554 37.9757 46.2078 38.6897 45.9126 39.2905C45.6208 39.8912 45.2106 40.3546 44.682 40.6808C44.1567 41.0034 43.5406 41.1648 42.8334 41.1648C42.1263 41.1648 41.5066 40.9983 40.9746 40.6653C40.4425 40.3289 40.0288 39.8311 39.7336 39.1721C39.4384 38.5095 39.2908 37.6908 39.2908 36.7159V35.8714C39.2908 34.1104 39.5894 32.7751 40.1867 31.8654C40.7875 30.9557 41.6903 30.4854 42.8952 30.4545C43.3209 30.4408 43.7002 30.4374 44.0332 30.4442C44.3661 30.4511 44.6562 30.4357 44.9034 30.3979C45.1505 30.3601 45.3599 30.2692 45.5316 30.125ZM42.8334 40.0732C43.3106 40.0732 43.7208 39.953 44.0641 39.7127C44.4108 39.4724 44.6768 39.1343 44.8622 38.6983C45.0475 38.2589 45.1402 37.7423 45.1402 37.1484C45.1402 36.5717 45.0458 36.0808 44.857 35.6758C44.6717 35.2707 44.4056 34.9618 44.0589 34.7489C43.7122 34.5361 43.2968 34.4297 42.8128 34.4297C42.4592 34.4297 42.1417 34.4898 41.8602 34.6099C41.5787 34.7301 41.3384 34.9068 41.1393 35.1403C40.9402 35.3737 40.7858 35.6586 40.6759 35.995C40.5695 36.3314 40.5129 36.7159 40.506 37.1484C40.506 38.0341 40.7137 38.743 41.129 39.275C41.5444 39.8071 42.1125 40.0732 42.8334 40.0732ZM49.0999 41.0824C48.8459 41.0824 48.6279 40.9914 48.446 40.8095C48.264 40.6275 48.1731 40.4096 48.1731 40.1555C48.1731 39.9015 48.264 39.6835 48.446 39.5016C48.6279 39.3197 48.8459 39.2287 49.0999 39.2287C49.3539 39.2287 49.5719 39.3197 49.7539 39.5016C49.9358 39.6835 50.0268 39.9015 50.0268 40.1555C50.0268 40.3237 49.9839 40.4782 49.898 40.619C49.8157 40.7597 49.7041 40.873 49.5633 40.9588C49.426 41.0412 49.2716 41.0824 49.0999 41.0824ZM49.0999 35.2124C48.8459 35.2124 48.6279 35.1214 48.446 34.9395C48.264 34.7575 48.1731 34.5395 48.1731 34.2855C48.1731 34.0315 48.264 33.8135 48.446 33.6316C48.6279 33.4496 48.8459 33.3587 49.0999 33.3587C49.3539 33.3587 49.5719 33.4496 49.7539 33.6316C49.9358 33.8135 50.0268 34.0315 50.0268 34.2855C50.0268 34.4537 49.9839 34.6082 49.898 34.7489C49.8157 34.8897 49.7041 35.003 49.5633 35.0888C49.426 35.1712 49.2716 35.2124 49.0999 35.2124ZM59.9723 30.4545V41H58.6954V31.7933H58.6336L56.059 33.5028V32.2053L58.6954 30.4545H59.9723ZM66.4448 41.1442C65.669 41.1442 65.0082 40.9331 64.4624 40.5108C63.9166 40.0852 63.4995 39.469 63.2112 38.6623C62.9228 37.8522 62.7786 36.8738 62.7786 35.7273C62.7786 34.5876 62.9228 33.6144 63.2112 32.8077C63.5029 31.9976 63.9217 31.3797 64.4676 30.954C65.0168 30.5249 65.6759 30.3104 66.4448 30.3104C67.2138 30.3104 67.8711 30.5249 68.4169 30.954C68.9662 31.3797 69.385 31.9976 69.6733 32.8077C69.9651 33.6144 70.111 34.5876 70.111 35.7273C70.111 36.8738 69.9668 37.8522 69.6785 38.6623C69.3901 39.469 68.9731 40.0852 68.4272 40.5108C67.8814 40.9331 67.2206 41.1442 66.4448 41.1442ZM66.4448 40.0114C67.2138 40.0114 67.8111 39.6406 68.2367 38.8991C68.6624 38.1577 68.8752 37.1004 68.8752 35.7273C68.8752 34.8142 68.7774 34.0366 68.5817 33.3947C68.3895 32.7528 68.1114 32.2636 67.7476 31.9272C67.3871 31.5908 66.9529 31.4226 66.4448 31.4226C65.6828 31.4226 65.0872 31.7985 64.6581 32.5502C64.229 33.2986 64.0144 34.3576 64.0144 35.7273C64.0144 36.6404 64.1105 37.4162 64.3028 38.0547C64.495 38.6932 64.7714 39.1789 65.1318 39.5119C65.4957 39.8449 65.9333 40.0114 66.4448 40.0114ZM72.9739 39.6509C72.7199 39.6509 72.5019 39.56 72.32 39.378C72.1381 39.1961 72.0471 38.9781 72.0471 38.7241C72.0471 38.4701 72.1381 38.2521 72.32 38.0701C72.5019 37.8882 72.7199 37.7972 72.9739 37.7972C73.228 37.7972 73.4459 37.8882 73.6279 38.0701C73.8098 38.2521 73.9008 38.4701 73.9008 38.7241C73.9008 38.8923 73.8579 39.0468 73.7721 39.1875C73.6897 39.3282 73.5781 39.4415 73.4374 39.5273C73.3001 39.6097 73.1456 39.6509 72.9739 39.6509ZM72.9739 34.3164C72.7199 34.3164 72.5019 34.2254 72.32 34.0435C72.1381 33.8616 72.0471 33.6436 72.0471 33.3896C72.0471 33.1355 72.1381 32.9176 72.32 32.7356C72.5019 32.5537 72.7199 32.4627 72.9739 32.4627C73.228 32.4627 73.4459 32.5537 73.6279 32.7356C73.8098 32.9176 73.9008 33.1355 73.9008 33.3896C73.9008 33.5578 73.8579 33.7122 73.7721 33.853C73.6897 33.9937 73.5781 34.107 73.4374 34.1928C73.3001 34.2752 73.1456 34.3164 72.9739 34.3164ZM79.5005 41.1442C78.7247 41.1442 78.0639 40.9331 77.5181 40.5108C76.9723 40.0852 76.5552 39.469 76.2668 38.6623C75.9785 37.8522 75.8343 36.8738 75.8343 35.7273C75.8343 34.5876 75.9785 33.6144 76.2668 32.8077C76.5586 31.9976 76.9774 31.3797 77.5232 30.954C78.0725 30.5249 78.7315 30.3104 79.5005 30.3104C80.2694 30.3104 80.9268 30.5249 81.4726 30.954C82.0219 31.3797 82.4407 31.9976 82.729 32.8077C83.0208 33.6144 83.1667 34.5876 83.1667 35.7273C83.1667 36.8738 83.0225 37.8522 82.7342 38.6623C82.4458 39.469 82.0287 40.0852 81.4829 40.5108C80.9371 40.9331 80.2763 41.1442 79.5005 41.1442ZM79.5005 40.0114C80.2694 40.0114 80.8667 39.6406 81.2924 38.8991C81.7181 38.1577 81.9309 37.1004 81.9309 35.7273C81.9309 34.8142 81.8331 34.0366 81.6374 33.3947C81.4452 32.7528 81.1671 32.2636 80.8032 31.9272C80.4428 31.5908 80.0085 31.4226 79.5005 31.4226C78.7384 31.4226 78.1428 31.7985 77.7137 32.5502C77.2846 33.2986 77.0701 34.3576 77.0701 35.7273C77.0701 36.6404 77.1662 37.4162 77.3584 38.0547C77.5507 38.6932 77.827 39.1789 78.1875 39.5119C78.5513 39.8449 78.989 40.0114 79.5005 40.0114ZM88.563 41.1442C87.7872 41.1442 87.1264 40.9331 86.5806 40.5108C86.0348 40.0852 85.6177 39.469 85.3293 38.6623C85.041 37.8522 84.8968 36.8738 84.8968 35.7273C84.8968 34.5876 85.041 33.6144 85.3293 32.8077C85.6211 31.9976 86.0399 31.3797 86.5857 30.954C87.135 30.5249 87.794 30.3104 88.563 30.3104C89.3319 30.3104 89.9893 30.5249 90.5351 30.954C91.0844 31.3797 91.5032 31.9976 91.7915 32.8077C92.0833 33.6144 92.2292 34.5876 92.2292 35.7273C92.2292 36.8738 92.085 37.8522 91.7967 38.6623C91.5083 39.469 91.0912 40.0852 90.5454 40.5108C89.9996 40.9331 89.3388 41.1442 88.563 41.1442ZM88.563 40.0114C89.3319 40.0114 89.9292 39.6406 90.3549 38.8991C90.7806 38.1577 90.9934 37.1004 90.9934 35.7273C90.9934 34.8142 90.8956 34.0366 90.6999 33.3947C90.5077 32.7528 90.2296 32.2636 89.8657 31.9272C89.5053 31.5908 89.071 31.4226 88.563 31.4226C87.8009 31.4226 87.2053 31.7985 86.7762 32.5502C86.3471 33.2986 86.1326 34.3576 86.1326 35.7273C86.1326 36.6404 86.2287 37.4162 86.4209 38.0547C86.6132 38.6932 86.8895 39.1789 87.25 39.5119C87.6138 39.8449 88.0515 40.0114 88.563 40.0114ZM102.816 35.1609V36.2937H98.2022V35.1609H102.816ZM112.719 30.4545V41H111.442V31.7933H111.38L108.806 33.5028V32.2053L111.442 30.4545H112.719ZM119.13 41.1442C118.422 41.1442 117.798 41.0189 117.255 40.7683C116.716 40.5143 116.296 40.1658 115.994 39.723C115.692 39.2768 115.542 38.7687 115.546 38.1989C115.542 37.7526 115.63 37.3407 115.808 36.9631C115.987 36.582 116.231 36.2645 116.54 36.0105C116.852 35.753 117.2 35.59 117.585 35.5213V35.4595C117.08 35.3291 116.679 35.0459 116.38 34.6099C116.081 34.1705 115.934 33.671 115.937 33.1115C115.934 32.576 116.069 32.0971 116.344 31.6749C116.619 31.2527 116.996 30.9197 117.477 30.676C117.961 30.4322 118.512 30.3104 119.13 30.3104C119.741 30.3104 120.286 30.4322 120.767 30.676C121.248 30.9197 121.625 31.2527 121.9 31.6749C122.178 32.0971 122.319 32.576 122.322 33.1115C122.319 33.671 122.166 34.1705 121.864 34.6099C121.565 35.0459 121.169 35.3291 120.674 35.4595V35.5213C121.055 35.59 121.399 35.753 121.704 36.0105C122.01 36.2645 122.253 36.582 122.435 36.9631C122.617 37.3407 122.71 37.7526 122.713 38.1989C122.71 38.7687 122.556 39.2768 122.25 39.723C121.948 40.1658 121.527 40.5143 120.988 40.7683C120.453 41.0189 119.833 41.1442 119.13 41.1442ZM119.13 40.0114C119.607 40.0114 120.019 39.9341 120.365 39.7797C120.712 39.6252 120.98 39.4072 121.169 39.1257C121.357 38.8442 121.454 38.5147 121.457 38.1371C121.454 37.7389 121.351 37.387 121.148 37.0815C120.946 36.776 120.669 36.5357 120.319 36.3606C119.972 36.1855 119.576 36.098 119.13 36.098C118.68 36.098 118.278 36.1855 117.925 36.3606C117.575 36.5357 117.298 36.776 117.096 37.0815C116.897 37.387 116.799 37.7389 116.802 38.1371C116.799 38.5147 116.89 38.8442 117.075 39.1257C117.264 39.4072 117.533 39.6252 117.884 39.7797C118.234 39.9341 118.649 40.0114 119.13 40.0114ZM119.13 35.0064C119.507 35.0064 119.842 34.9309 120.134 34.7798C120.429 34.6288 120.661 34.4177 120.829 34.1465C120.997 33.8753 121.083 33.5578 121.086 33.1939C121.083 32.8369 120.999 32.5262 120.834 32.2619C120.669 31.9941 120.441 31.7882 120.149 31.644C119.857 31.4964 119.518 31.4226 119.13 31.4226C118.735 31.4226 118.39 31.4964 118.095 31.644C117.799 31.7882 117.571 31.9941 117.41 32.2619C117.248 32.5262 117.17 32.8369 117.173 33.1939C117.17 33.5578 117.25 33.8753 117.415 34.1465C117.583 34.4177 117.815 34.6288 118.11 34.7798C118.405 34.9309 118.745 35.0064 119.13 35.0064ZM125.593 39.6509C125.339 39.6509 125.121 39.56 124.939 39.378C124.757 39.1961 124.666 38.9781 124.666 38.7241C124.666 38.4701 124.757 38.2521 124.939 38.0701C125.121 37.8882 125.339 37.7972 125.593 37.7972C125.847 37.7972 126.065 37.8882 126.247 38.0701C126.429 38.2521 126.52 38.4701 126.52 38.7241C126.52 38.8923 126.477 39.0468 126.391 39.1875C126.309 39.3282 126.197 39.4415 126.057 39.5273C125.919 39.6097 125.765 39.6509 125.593 39.6509ZM125.593 34.3164C125.339 34.3164 125.121 34.2254 124.939 34.0435C124.757 33.8616 124.666 33.6436 124.666 33.3896C124.666 33.1355 124.757 32.9176 124.939 32.7356C125.121 32.5537 125.339 32.4627 125.593 32.4627C125.847 32.4627 126.065 32.5537 126.247 32.7356C126.429 32.9176 126.52 33.1355 126.52 33.3896C126.52 33.5578 126.477 33.7122 126.391 33.853C126.309 33.9937 126.197 34.107 126.057 34.1928C125.919 34.2752 125.765 34.3164 125.593 34.3164ZM132.12 41.1442C131.344 41.1442 130.683 40.9331 130.137 40.5108C129.591 40.0852 129.174 39.469 128.886 38.6623C128.598 37.8522 128.453 36.8738 128.453 35.7273C128.453 34.5876 128.598 33.6144 128.886 32.8077C129.178 31.9976 129.597 31.3797 130.142 30.954C130.692 30.5249 131.351 30.3104 132.12 30.3104C132.889 30.3104 133.546 30.5249 134.092 30.954C134.641 31.3797 135.06 31.9976 135.348 32.8077C135.64 33.6144 135.786 34.5876 135.786 35.7273C135.786 36.8738 135.642 37.8522 135.353 38.6623C135.065 39.469 134.648 40.0852 134.102 40.5108C133.556 40.9331 132.895 41.1442 132.12 41.1442ZM132.12 40.0114C132.889 40.0114 133.486 39.6406 133.912 38.8991C134.337 38.1577 134.55 37.1004 134.55 35.7273C134.55 34.8142 134.452 34.0366 134.257 33.3947C134.064 32.7528 133.786 32.2636 133.422 31.9272C133.062 31.5908 132.628 31.4226 132.12 31.4226C131.358 31.4226 130.762 31.7985 130.333 32.5502C129.904 33.2986 129.689 34.3576 129.689 35.7273C129.689 36.6404 129.785 37.4162 129.978 38.0547C130.17 38.6932 130.446 39.1789 130.807 39.5119C131.17 39.8449 131.608 40.0114 132.12 40.0114ZM141.182 41.1442C140.406 41.1442 139.746 40.9331 139.2 40.5108C138.654 40.0852 138.237 39.469 137.948 38.6623C137.66 37.8522 137.516 36.8738 137.516 35.7273C137.516 34.5876 137.66 33.6144 137.948 32.8077C138.24 31.9976 138.659 31.3797 139.205 30.954C139.754 30.5249 140.413 30.3104 141.182 30.3104C141.951 30.3104 142.608 30.5249 143.154 30.954C143.703 31.3797 144.122 31.9976 144.411 32.8077C144.702 33.6144 144.848 34.5876 144.848 35.7273C144.848 36.8738 144.704 37.8522 144.416 38.6623C144.127 39.469 143.71 40.0852 143.165 40.5108C142.619 40.9331 141.958 41.1442 141.182 41.1442ZM141.182 40.0114C141.951 40.0114 142.548 39.6406 142.974 38.8991C143.4 38.1577 143.613 37.1004 143.613 35.7273C143.613 34.8142 143.515 34.0366 143.319 33.3947C143.127 32.7528 142.849 32.2636 142.485 31.9272C142.124 31.5908 141.69 31.4226 141.182 31.4226C140.42 31.4226 139.824 31.7985 139.395 32.5502C138.966 33.2986 138.752 34.3576 138.752 35.7273C138.752 36.6404 138.848 37.4162 139.04 38.0547C139.232 38.6932 139.509 39.1789 139.869 39.5119C140.233 39.8449 140.671 40.0114 141.182 40.0114ZM29.277 65V54.4545H32.9638C33.6984 54.4545 34.3043 54.5816 34.7814 54.8356C35.2586 55.0862 35.6139 55.4243 35.8473 55.85C36.0807 56.2722 36.1974 56.7408 36.1974 57.2557C36.1974 57.7088 36.1168 58.083 35.9554 58.3782C35.7975 58.6734 35.5881 58.9068 35.3272 59.0785C35.0698 59.2501 34.79 59.3771 34.4879 59.4595V59.5625C34.8106 59.5831 35.135 59.6964 35.4611 59.9023C35.7872 60.1083 36.0601 60.4035 36.2798 60.788C36.4995 61.1725 36.6094 61.6428 36.6094 62.1989C36.6094 62.7275 36.4892 63.2029 36.2489 63.6252C36.0086 64.0474 35.6293 64.3821 35.111 64.6293C34.5926 64.8764 33.9181 65 33.0874 65H29.277ZM30.554 63.8672H33.0874C33.9215 63.8672 34.5137 63.7058 34.8638 63.3832C35.2174 63.0571 35.3942 62.6623 35.3942 62.1989C35.3942 61.8419 35.3032 61.5123 35.1213 61.2102C34.9393 60.9047 34.6802 60.661 34.3438 60.479C34.0073 60.2937 33.6091 60.201 33.1491 60.201H30.554V63.8672ZM30.554 59.0888H32.9226C33.3071 59.0888 33.6538 59.0133 33.9627 58.8622C34.2751 58.7112 34.5223 58.4983 34.7042 58.2237C34.8896 57.9491 34.9822 57.6264 34.9822 57.2557C34.9822 56.7923 34.8209 56.3992 34.4982 56.0765C34.1755 55.7504 33.6641 55.5874 32.9638 55.5874H30.554V59.0888ZM41.7559 65.1648C41.0145 65.1648 40.376 64.9897 39.8405 64.6396C39.305 64.2894 38.893 63.8071 38.6047 63.1926C38.3163 62.5782 38.1721 61.8762 38.1721 61.0866C38.1721 60.2834 38.3198 59.5745 38.615 58.96C38.9136 58.3422 39.329 57.8598 39.8611 57.5131C40.3966 57.163 41.0213 56.9879 41.7354 56.9879C42.2915 56.9879 42.7926 57.0909 43.2389 57.2969C43.6852 57.5028 44.0508 57.7912 44.3357 58.1619C44.6206 58.5327 44.7974 58.9652 44.866 59.4595H43.6508C43.5582 59.0991 43.3522 58.7798 43.0329 58.5018C42.7171 58.2203 42.2915 58.0795 41.7559 58.0795C41.2822 58.0795 40.8669 58.2031 40.5099 58.4503C40.1563 58.694 39.8799 59.039 39.6808 59.4853C39.4852 59.9281 39.3873 60.4482 39.3873 61.0455C39.3873 61.6565 39.4835 62.1886 39.6757 62.6417C39.8714 63.0948 40.146 63.4467 40.4996 63.6973C40.8566 63.9479 41.2754 64.0732 41.7559 64.0732C42.0718 64.0732 42.3584 64.0182 42.6159 63.9084C42.8733 63.7985 43.0913 63.6406 43.2698 63.4347C43.4483 63.2287 43.5753 62.9815 43.6508 62.6932H44.866C44.7974 63.16 44.6275 63.5806 44.3563 63.9547C44.0885 64.3255 43.7332 64.6207 43.2904 64.8404C42.851 65.0566 42.3395 65.1648 41.7559 65.1648ZM47.5281 65.0824C47.2741 65.0824 47.0561 64.9914 46.8742 64.8095C46.6923 64.6275 46.6013 64.4096 46.6013 64.1555C46.6013 63.9015 46.6923 63.6835 46.8742 63.5016C47.0561 63.3197 47.2741 63.2287 47.5281 63.2287C47.7822 63.2287 48.0001 63.3197 48.1821 63.5016C48.364 63.6835 48.455 63.9015 48.455 64.1555C48.455 64.3237 48.4121 64.4782 48.3263 64.619C48.2439 64.7597 48.1323 64.873 47.9916 64.9588C47.8543 65.0412 47.6998 65.0824 47.5281 65.0824ZM47.5281 59.2124C47.2741 59.2124 47.0561 59.1214 46.8742 58.9395C46.6923 58.7575 46.6013 58.5395 46.6013 58.2855C46.6013 58.0315 46.6923 57.8135 46.8742 57.6316C47.0561 57.4496 47.2741 57.3587 47.5281 57.3587C47.7822 57.3587 48.0001 57.4496 48.1821 57.6316C48.364 57.8135 48.455 58.0315 48.455 58.2855C48.455 58.4537 48.4121 58.6082 48.3263 58.7489C48.2439 58.8897 48.1323 59.003 47.9916 59.0888C47.8543 59.1712 47.6998 59.2124 47.5281 59.2124ZM58.4006 54.4545V65H57.1236V55.7933H57.0618L54.4872 57.5028V56.2053L57.1236 54.4545H58.4006ZM64.873 65.1442C64.0972 65.1442 63.4364 64.9331 62.8906 64.5108C62.3448 64.0852 61.9277 63.469 61.6394 62.6623C61.351 61.8522 61.2069 60.8738 61.2069 59.7273C61.2069 58.5876 61.351 57.6144 61.6394 56.8077C61.9312 55.9976 62.35 55.3797 62.8958 54.954C63.445 54.5249 64.1041 54.3104 64.873 54.3104C65.642 54.3104 66.2994 54.5249 66.8452 54.954C67.3944 55.3797 67.8132 55.9976 68.1016 56.8077C68.3933 57.6144 68.5392 58.5876 68.5392 59.7273C68.5392 60.8738 68.3951 61.8522 68.1067 62.6623C67.8184 63.469 67.4013 64.0852 66.8555 64.5108C66.3097 64.9331 65.6489 65.1442 64.873 65.1442ZM64.873 64.0114C65.642 64.0114 66.2393 63.6406 66.665 62.8991C67.0906 62.1577 67.3034 61.1004 67.3034 59.7273C67.3034 58.8142 67.2056 58.0366 67.0099 57.3947C66.8177 56.7528 66.5397 56.2636 66.1758 55.9272C65.8153 55.5908 65.3811 55.4226 64.873 55.4226C64.111 55.4226 63.5154 55.7985 63.0863 56.5502C62.6572 57.2986 62.4426 58.3576 62.4426 59.7273C62.4426 60.6404 62.5388 61.4162 62.731 62.0547C62.9232 62.6932 63.1996 63.1789 63.56 63.5119C63.9239 63.8449 64.3616 64.0114 64.873 64.0114ZM71.4022 63.6509C71.1481 63.6509 70.9302 63.56 70.7482 63.378C70.5663 63.1961 70.4753 62.9781 70.4753 62.7241C70.4753 62.4701 70.5663 62.2521 70.7482 62.0701C70.9302 61.8882 71.1481 61.7972 71.4022 61.7972C71.6562 61.7972 71.8742 61.8882 72.0561 62.0701C72.238 62.2521 72.329 62.4701 72.329 62.7241C72.329 62.8923 72.2861 63.0468 72.2003 63.1875C72.1179 63.3282 72.0063 63.4415 71.8656 63.5273C71.7283 63.6097 71.5738 63.6509 71.4022 63.6509ZM71.4022 58.3164C71.1481 58.3164 70.9302 58.2254 70.7482 58.0435C70.5663 57.8616 70.4753 57.6436 70.4753 57.3896C70.4753 57.1355 70.5663 56.9176 70.7482 56.7356C70.9302 56.5537 71.1481 56.4627 71.4022 56.4627C71.6562 56.4627 71.8742 56.5537 72.0561 56.7356C72.238 56.9176 72.329 57.1355 72.329 57.3896C72.329 57.5578 72.2861 57.7122 72.2003 57.853C72.1179 57.9937 72.0063 58.107 71.8656 58.1928C71.7283 58.2752 71.5738 58.3164 71.4022 58.3164ZM77.9287 65.1442C77.1529 65.1442 76.4921 64.9331 75.9463 64.5108C75.4005 64.0852 74.9834 63.469 74.695 62.6623C74.4067 61.8522 74.2625 60.8738 74.2625 59.7273C74.2625 58.5876 74.4067 57.6144 74.695 56.8077C74.9868 55.9976 75.4056 55.3797 75.9514 54.954C76.5007 54.5249 77.1598 54.3104 77.9287 54.3104C78.6977 54.3104 79.355 54.5249 79.9008 54.954C80.4501 55.3797 80.8689 55.9976 81.1572 56.8077C81.449 57.6144 81.5949 58.5876 81.5949 59.7273C81.5949 60.8738 81.4507 61.8522 81.1624 62.6623C80.874 63.469 80.4569 64.0852 79.9111 64.5108C79.3653 64.9331 78.7045 65.1442 77.9287 65.1442ZM77.9287 64.0114C78.6977 64.0114 79.295 63.6406 79.7206 62.8991C80.1463 62.1577 80.3591 61.1004 80.3591 59.7273C80.3591 58.8142 80.2613 58.0366 80.0656 57.3947C79.8734 56.7528 79.5953 56.2636 79.2314 55.9272C78.871 55.5908 78.4368 55.4226 77.9287 55.4226C77.1666 55.4226 76.5711 55.7985 76.142 56.5502C75.7129 57.2986 75.4983 58.3576 75.4983 59.7273C75.4983 60.6404 75.5944 61.4162 75.7867 62.0547C75.9789 62.6932 76.2552 63.1789 76.6157 63.5119C76.9796 63.8449 77.4172 64.0114 77.9287 64.0114ZM86.9912 65.1442C86.2154 65.1442 85.5546 64.9331 85.0088 64.5108C84.463 64.0852 84.0459 63.469 83.7575 62.6623C83.4692 61.8522 83.325 60.8738 83.325 59.7273C83.325 58.5876 83.4692 57.6144 83.7575 56.8077C84.0493 55.9976 84.4681 55.3797 85.0139 54.954C85.5632 54.5249 86.2223 54.3104 86.9912 54.3104C87.7602 54.3104 88.4175 54.5249 88.9633 54.954C89.5126 55.3797 89.9314 55.9976 90.2197 56.8077C90.5115 57.6144 90.6574 58.5876 90.6574 59.7273C90.6574 60.8738 90.5132 61.8522 90.2249 62.6623C89.9365 63.469 89.5194 64.0852 88.9736 64.5108C88.4278 64.9331 87.767 65.1442 86.9912 65.1442ZM86.9912 64.0114C87.7602 64.0114 88.3575 63.6406 88.7831 62.8991C89.2088 62.1577 89.4216 61.1004 89.4216 59.7273C89.4216 58.8142 89.3238 58.0366 89.1281 57.3947C88.9359 56.7528 88.6578 56.2636 88.2939 55.9272C87.9335 55.5908 87.4993 55.4226 86.9912 55.4226C86.2291 55.4226 85.6336 55.7985 85.2045 56.5502C84.7754 57.2986 84.5608 58.3576 84.5608 59.7273C84.5608 60.6404 84.6569 61.4162 84.8492 62.0547C85.0414 62.6932 85.3177 63.1789 85.6782 63.5119C86.0421 63.8449 86.4797 64.0114 86.9912 64.0114ZM101.244 59.1609V60.2937H96.6304V59.1609H101.244ZM111.147 54.4545V65H109.87V55.7933H109.808L107.234 57.5028V56.2053L109.87 54.4545H111.147ZM117.681 65.1442C117.249 65.1373 116.816 65.0549 116.384 64.897C115.951 64.7391 115.557 64.4731 115.2 64.0989C114.843 63.7213 114.556 63.2115 114.34 62.5696C114.123 61.9242 114.015 61.1141 114.015 60.1392C114.015 59.2055 114.103 58.3782 114.278 57.6573C114.453 56.933 114.707 56.3237 115.04 55.8294C115.373 55.3316 115.775 54.954 116.245 54.6966C116.719 54.4391 117.252 54.3104 117.846 54.3104C118.437 54.3104 118.962 54.4288 119.422 54.6657C119.885 54.8991 120.263 55.2252 120.555 55.644C120.846 56.0628 121.035 56.5451 121.121 57.0909H119.865C119.748 56.6172 119.521 56.2241 119.185 55.9118C118.849 55.5994 118.402 55.4432 117.846 55.4432C117.029 55.4432 116.386 55.7985 115.915 56.5091C115.448 57.2196 115.213 58.2169 115.21 59.5007H115.292C115.484 59.2089 115.713 58.96 115.977 58.7541C116.245 58.5447 116.54 58.3833 116.863 58.2701C117.185 58.1568 117.527 58.1001 117.887 58.1001C118.492 58.1001 119.044 58.2512 119.545 58.5533C120.047 58.8519 120.448 59.2656 120.75 59.7942C121.052 60.3194 121.203 60.9219 121.203 61.6016C121.203 62.2538 121.058 62.8511 120.766 63.3935C120.474 63.9324 120.064 64.3615 119.535 64.6808C119.01 64.9966 118.392 65.151 117.681 65.1442ZM117.681 64.0114C118.114 64.0114 118.502 63.9032 118.845 63.687C119.192 63.4707 119.465 63.1806 119.664 62.8168C119.866 62.4529 119.968 62.0478 119.968 61.6016C119.968 61.1656 119.87 60.7691 119.674 60.4121C119.482 60.0517 119.216 59.765 118.876 59.5522C118.54 59.3394 118.155 59.233 117.723 59.233C117.396 59.233 117.093 59.2982 116.811 59.4286C116.53 59.5556 116.283 59.7307 116.07 59.9538C115.86 60.177 115.696 60.4327 115.575 60.7211C115.455 61.006 115.395 61.3063 115.395 61.6222C115.395 62.041 115.493 62.4323 115.689 62.7962C115.888 63.16 116.159 63.4535 116.502 63.6767C116.849 63.8998 117.242 64.0114 117.681 64.0114ZM124.135 63.6509C123.881 63.6509 123.663 63.56 123.481 63.378C123.299 63.1961 123.208 62.9781 123.208 62.7241C123.208 62.4701 123.299 62.2521 123.481 62.0701C123.663 61.8882 123.881 61.7972 124.135 61.7972C124.389 61.7972 124.607 61.8882 124.789 62.0701C124.97 62.2521 125.061 62.4701 125.061 62.7241C125.061 62.8923 125.019 63.0468 124.933 63.1875C124.85 63.3282 124.739 63.4415 124.598 63.5273C124.461 63.6097 124.306 63.6509 124.135 63.6509ZM124.135 58.3164C123.881 58.3164 123.663 58.2254 123.481 58.0435C123.299 57.8616 123.208 57.6436 123.208 57.3896C123.208 57.1355 123.299 56.9176 123.481 56.7356C123.663 56.5537 123.881 56.4627 124.135 56.4627C124.389 56.4627 124.607 56.5537 124.789 56.7356C124.97 56.9176 125.061 57.1355 125.061 57.3896C125.061 57.5578 125.019 57.7122 124.933 57.853C124.85 57.9937 124.739 58.107 124.598 58.1928C124.461 58.2752 124.306 58.3164 124.135 58.3164ZM130.661 65.1442C129.885 65.1442 129.225 64.9331 128.679 64.5108C128.133 64.0852 127.716 63.469 127.427 62.6623C127.139 61.8522 126.995 60.8738 126.995 59.7273C126.995 58.5876 127.139 57.6144 127.427 56.8077C127.719 55.9976 128.138 55.3797 128.684 54.954C129.233 54.5249 129.892 54.3104 130.661 54.3104C131.43 54.3104 132.087 54.5249 132.633 54.954C133.182 55.3797 133.601 55.9976 133.89 56.8077C134.181 57.6144 134.327 58.5876 134.327 59.7273C134.327 60.8738 134.183 61.8522 133.895 62.6623C133.606 63.469 133.189 64.0852 132.644 64.5108C132.098 64.9331 131.437 65.1442 130.661 65.1442ZM130.661 64.0114C131.43 64.0114 132.027 63.6406 132.453 62.8991C132.879 62.1577 133.092 61.1004 133.092 59.7273C133.092 58.8142 132.994 58.0366 132.798 57.3947C132.606 56.7528 132.328 56.2636 131.964 55.9272C131.603 55.5908 131.169 55.4226 130.661 55.4226C129.899 55.4226 129.303 55.7985 128.874 56.5502C128.445 57.2986 128.231 58.3576 128.231 59.7273C128.231 60.6404 128.327 61.4162 128.519 62.0547C128.711 62.6932 128.988 63.1789 129.348 63.5119C129.712 63.8449 130.15 64.0114 130.661 64.0114ZM139.724 65.1442C138.948 65.1442 138.287 64.9331 137.741 64.5108C137.195 64.0852 136.778 63.469 136.49 62.6623C136.202 61.8522 136.057 60.8738 136.057 59.7273C136.057 58.5876 136.202 57.6144 136.49 56.8077C136.782 55.9976 137.201 55.3797 137.746 54.954C138.296 54.5249 138.955 54.3104 139.724 54.3104C140.493 54.3104 141.15 54.5249 141.696 54.954C142.245 55.3797 142.664 55.9976 142.952 56.8077C143.244 57.6144 143.39 58.5876 143.39 59.7273C143.39 60.8738 143.246 61.8522 142.957 62.6623C142.669 63.469 142.252 64.0852 141.706 64.5108C141.16 64.9331 140.499 65.1442 139.724 65.1442ZM139.724 64.0114C140.493 64.0114 141.09 63.6406 141.516 62.8991C141.941 62.1577 142.154 61.1004 142.154 59.7273C142.154 58.8142 142.056 58.0366 141.861 57.3947C141.668 56.7528 141.39 56.2636 141.026 55.9272C140.666 55.5908 140.232 55.4226 139.724 55.4226C138.962 55.4226 138.366 55.7985 137.937 56.5502C137.508 57.2986 137.293 58.3576 137.293 59.7273C137.293 60.6404 137.389 61.4162 137.582 62.0547C137.774 62.6932 138.05 63.1789 138.411 63.5119C138.774 63.8449 139.212 64.0114 139.724 64.0114Z" fill="white"/>
</svg>
