<svg width="480" height="24" viewBox="0 0 480 24" fill="none" xmlns="http://www.w3.org/2000/svg">
<path d="M15.6875 9.96875C15.8125 9.875 16 9.96875 16 10.125V16.5C16 17.3438 15.3125 18 14.5 18H1.5C0.65625 18 0 17.3438 0 16.5V10.125C0 9.96875 0.15625 9.875 0.28125 9.96875C1 10.5312 1.90625 11.2188 5.09375 13.5312C5.75 14 6.875 15.0312 8 15.0312C9.09375 15.0312 10.25 14 10.875 13.5312C14.0625 11.2188 14.9688 10.5312 15.6875 9.96875ZM8 14C7.25 14.0312 6.21875 13.0938 5.6875 12.7188C1.53125 9.71875 1.21875 9.4375 0.28125 8.6875C0.09375 8.5625 0 8.34375 0 8.09375V7.5C0 6.6875 0.65625 6 1.5 6H14.5C15.3125 6 16 6.6875 16 7.5V8.09375C16 8.34375 15.875 8.5625 15.6875 8.6875C14.75 9.4375 14.4375 9.71875 10.2812 12.7188C9.75 13.0938 8.71875 14.0312 8 14Z" fill="white"/>
<path d="M29.1602 18V9.75H30.4277V18H29.1602ZM29.8047 8.375C29.5576 8.375 29.3446 8.29085 29.1655 8.12256C28.9901 7.95426 28.9023 7.75195 28.9023 7.51563C28.9023 7.2793 28.9901 7.07699 29.1655 6.90869C29.3446 6.7404 29.5576 6.65625 29.8047 6.65625C30.0518 6.65625 30.263 6.7404 30.4385 6.90869C30.6175 7.07699 30.707 7.2793 30.707 7.51563C30.707 7.75195 30.6175 7.95426 30.4385 8.12256C30.263 8.29085 30.0518 8.375 29.8047 8.375ZM34.017 13.0371V18H32.7494V9.75H33.974V11.0391H34.0814C34.2748 10.6201 34.5684 10.2835 34.9623 10.0293C35.3562 9.77148 35.8646 9.64258 36.4877 9.64258C37.0463 9.64258 37.535 9.75716 37.954 9.98633C38.3729 10.2119 38.6988 10.5557 38.9315 11.0176C39.1643 11.4759 39.2806 12.056 39.2806 12.7578V18H38.0131V12.8437C38.0131 12.1956 37.8448 11.6908 37.5082 11.3291C37.1716 10.9639 36.7097 10.7812 36.1224 10.7812C35.7178 10.7812 35.3562 10.869 35.0375 11.0444C34.7224 11.2199 34.4735 11.4759 34.2909 11.8125C34.1083 12.1491 34.017 12.5573 34.017 13.0371ZM45.2708 9.75V10.8242H40.8235V9.75H45.2708ZM42.1555 18V8.61133C42.1555 8.13867 42.2665 7.74479 42.4885 7.42969C42.7105 7.11458 42.9988 6.87825 43.3533 6.7207C43.7078 6.56315 44.082 6.48437 44.4758 6.48437C44.7874 6.48437 45.0416 6.50944 45.2385 6.55957C45.4355 6.6097 45.5823 6.65625 45.679 6.69922L45.3137 7.79492C45.2493 7.77344 45.1597 7.74658 45.0452 7.71436C44.9342 7.68213 44.7874 7.66601 44.6047 7.66601C44.1858 7.66601 43.8832 7.77165 43.697 7.98291C43.5144 8.19417 43.4231 8.50391 43.4231 8.91211V18H42.1555ZM50.0591 18.1719C49.3143 18.1719 48.6608 17.9946 48.0986 17.6401C47.54 17.2856 47.1032 16.7897 46.7881 16.1523C46.4766 15.515 46.3208 14.7702 46.3208 13.918C46.3208 13.0586 46.4766 12.3084 46.7881 11.6675C47.1032 11.0265 47.54 10.5288 48.0986 10.1743C48.6608 9.81982 49.3143 9.64258 50.0591 9.64258C50.8039 9.64258 51.4556 9.81982 52.0142 10.1743C52.5763 10.5288 53.0132 11.0265 53.3247 11.6675C53.6398 12.3084 53.7974 13.0586 53.7974 13.918C53.7974 14.7702 53.6398 15.515 53.3247 16.1523C53.0132 16.7897 52.5763 17.2856 52.0142 17.6401C51.4556 17.9946 50.8039 18.1719 50.0591 18.1719ZM50.0591 17.0332C50.6248 17.0332 51.0903 16.8882 51.4556 16.5981C51.8208 16.3081 52.0911 15.9268 52.2666 15.4541C52.4421 14.9814 52.5298 14.4694 52.5298 13.918C52.5298 13.3665 52.4421 12.8527 52.2666 12.3765C52.0911 11.9002 51.8208 11.5153 51.4556 11.2217C51.0903 10.9281 50.6248 10.7812 50.0591 10.7812C49.4933 10.7812 49.0278 10.9281 48.6626 11.2217C48.2974 11.5153 48.027 11.9002 47.8516 12.3765C47.6761 12.8527 47.5884 13.3665 47.5884 13.918C47.5884 14.4694 47.6761 14.9814 47.8516 15.4541C48.027 15.9268 48.2974 16.3081 48.6626 16.5981C49.0278 16.8882 49.4933 17.0332 50.0591 17.0332ZM62.0702 20.9004C60.9745 20.9004 60.0059 20.75 59.1644 20.4492C58.323 20.152 57.6158 19.7134 57.0428 19.1333C56.4699 18.5532 56.0367 17.8424 55.743 17.001C55.4494 16.1595 55.3026 15.1963 55.3026 14.1113C55.3026 13.0622 55.4512 12.124 55.7484 11.2969C56.0492 10.4697 56.4843 9.7679 57.0536 9.19141C57.6265 8.61133 58.3212 8.16911 59.1376 7.86475C59.9576 7.56038 60.885 7.4082 61.9198 7.4082C62.926 7.4082 63.8068 7.57292 64.5624 7.90234C65.3215 8.22819 65.9553 8.67041 66.4637 9.229C66.9758 9.78402 67.3589 10.4089 67.6132 11.1035C67.871 11.7982 67.9999 12.5143 67.9999 13.252C67.9999 13.7712 67.9748 14.2975 67.9247 14.8311C67.8746 15.3646 67.7689 15.8551 67.6078 16.3027C67.4467 16.7467 67.1978 17.1048 66.8612 17.377C66.5282 17.6491 66.077 17.7852 65.5077 17.7852C65.257 17.7852 64.9813 17.7458 64.6805 17.667C64.3798 17.5882 64.113 17.4575 63.8802 17.2749C63.6475 17.0923 63.5096 16.847 63.4667 16.5391H63.4022C63.3163 16.7467 63.1838 16.9437 63.0048 17.1299C62.8293 17.3161 62.5983 17.4647 62.3119 17.5757C62.029 17.6867 61.6835 17.735 61.2753 17.7207C60.8098 17.7028 60.3998 17.599 60.0453 17.4092C59.6908 17.2158 59.3936 16.9544 59.1537 16.625C58.9174 16.292 58.7383 15.9071 58.6166 15.4702C58.4984 15.0298 58.4393 14.5553 58.4393 14.0469C58.4393 13.5635 58.5109 13.1213 58.6542 12.7202C58.7974 12.3192 58.9961 11.9683 59.2504 11.6675C59.5082 11.3667 59.809 11.1268 60.1527 10.9478C60.5 10.7651 60.8742 10.6523 61.2753 10.6094C61.6333 10.5736 61.9592 10.5897 62.2528 10.6577C62.5464 10.7222 62.7881 10.8206 62.9779 10.9531C63.1677 11.082 63.2876 11.2253 63.3378 11.3828H63.4022V10.7812H64.5409V15.6367C64.5409 15.9375 64.625 16.2025 64.7933 16.4316C64.9616 16.6608 65.2069 16.7754 65.5292 16.7754C65.8944 16.7754 66.1737 16.6501 66.3671 16.3994C66.564 16.1488 66.6983 15.762 66.7699 15.2393C66.8451 14.7165 66.8827 14.0469 66.8827 13.2305C66.8827 12.7507 66.8164 12.278 66.684 11.8125C66.5551 11.3434 66.3581 10.9048 66.0931 10.4966C65.8317 10.0884 65.5005 9.72852 65.0995 9.41699C64.6984 9.10547 64.2276 8.86198 63.6869 8.68652C63.1498 8.50749 62.5393 8.41797 61.8553 8.41797C61.0139 8.41797 60.2601 8.54867 59.5941 8.81006C58.9317 9.06787 58.3677 9.44564 57.9022 9.94336C57.4403 10.4375 57.0876 11.0391 56.8441 11.748C56.6042 12.4535 56.4843 13.2555 56.4843 14.1543C56.4843 15.0674 56.6042 15.8784 56.8441 16.5874C57.0876 17.2964 57.4457 17.8944 57.9183 18.3813C58.3946 18.8683 58.9836 19.2371 59.6854 19.4878C60.3872 19.742 61.1965 19.8691 62.1132 19.8691C62.507 19.8691 62.8955 19.8315 63.2787 19.7563C63.6618 19.6812 64.0002 19.5988 64.2938 19.5093C64.5874 19.4198 64.7987 19.3535 64.9276 19.3105L65.2284 20.2988C65.0064 20.3919 64.7163 20.485 64.3583 20.5781C64.0038 20.6712 63.6242 20.7482 63.2196 20.8091C62.8186 20.87 62.4354 20.9004 62.0702 20.9004ZM61.4471 16.625C61.927 16.625 62.3155 16.5283 62.6127 16.335C62.9099 16.1416 63.1265 15.8498 63.2626 15.4595C63.3986 15.0692 63.4667 14.5768 63.4667 13.9824C63.4667 13.3809 63.3915 12.9118 63.2411 12.5752C63.0907 12.2386 62.8687 12.0023 62.5751 11.8662C62.2815 11.7301 61.9198 11.6621 61.4901 11.6621C61.0819 11.6621 60.7328 11.7695 60.4427 11.9844C60.1563 12.1956 59.9361 12.4785 59.7821 12.833C59.6317 13.1839 59.5565 13.5671 59.5565 13.9824C59.5565 14.4408 59.6174 14.8722 59.7391 15.2769C59.8609 15.6779 60.0596 16.0037 60.3353 16.2544C60.611 16.5015 60.9816 16.625 61.4471 16.625ZM73.2488 18.1719C72.4753 18.1719 71.8093 17.9893 71.2507 17.624C70.6921 17.2588 70.2625 16.7557 69.9617 16.1147C69.6609 15.4738 69.5105 14.7415 69.5105 13.918C69.5105 13.0801 69.6645 12.3407 69.9724 11.6997C70.2839 11.0552 70.7172 10.5521 71.2722 10.1904C71.8308 9.8252 72.4825 9.64258 73.2273 9.64258C73.8074 9.64258 74.3302 9.75 74.7957 9.96484C75.2611 10.1797 75.6425 10.4805 75.9397 10.8672C76.2369 11.2539 76.4213 11.7051 76.4929 12.2207H75.2253C75.1287 11.8447 74.9138 11.5117 74.5808 11.2217C74.2514 10.9281 73.8074 10.7812 73.2488 10.7812C72.7546 10.7812 72.3214 10.9102 71.949 11.168C71.5802 11.4222 71.2919 11.7821 71.0842 12.2476C70.8801 12.7095 70.7781 13.252 70.7781 13.875C70.7781 14.5124 70.8783 15.0674 71.0789 15.54C71.283 16.0127 71.5694 16.3797 71.9382 16.6411C72.3106 16.9025 72.7475 17.0332 73.2488 17.0332C73.5782 17.0332 73.8772 16.9759 74.1458 16.8613C74.4143 16.7467 74.6417 16.582 74.8279 16.3672C75.0141 16.1523 75.1466 15.8945 75.2253 15.5938H76.4929C76.4213 16.0807 76.2441 16.5194 75.9612 16.9097C75.6819 17.2964 75.3113 17.6043 74.8494 17.8335C74.391 18.0591 73.8575 18.1719 73.2488 18.1719ZM79.6135 13.0371V18H78.3459V7H79.6135V11.0391H79.7209C79.9143 10.613 80.2043 10.2746 80.5911 10.0239C80.9814 9.76969 81.5006 9.64258 82.1487 9.64258C82.7109 9.64258 83.2032 9.75537 83.6257 9.98096C84.0483 10.203 84.3759 10.5449 84.6086 11.0068C84.845 11.4652 84.9631 12.0488 84.9631 12.7578V18H83.6956V12.8437C83.6956 12.1885 83.5255 11.6818 83.1853 11.3237C82.8487 10.9621 82.3814 10.7812 81.7834 10.7812C81.3681 10.7812 80.9957 10.869 80.6663 11.0444C80.3404 11.2199 80.0826 11.4759 79.8928 11.8125C79.7066 12.1491 79.6135 12.5573 79.6135 13.0371ZM87.2821 18V9.75H88.5497V18H87.2821ZM87.9266 8.375C87.6796 8.375 87.4665 8.29085 87.2875 8.12256C87.112 7.95426 87.0243 7.75195 87.0243 7.51563C87.0243 7.2793 87.112 7.07699 87.2875 6.90869C87.4665 6.7404 87.6796 6.65625 87.9266 6.65625C88.1737 6.65625 88.385 6.7404 88.5604 6.90869C88.7395 7.07699 88.829 7.2793 88.829 7.51563C88.829 7.75195 88.7395 7.95426 88.5604 8.12256C88.385 8.29085 88.1737 8.375 87.9266 8.375ZM96.7151 11.5977L95.5764 11.9199C95.5048 11.7301 95.3992 11.5457 95.2595 11.3667C95.1235 11.1841 94.9373 11.0337 94.7009 10.9155C94.4646 10.7974 94.162 10.7383 93.7932 10.7383C93.2883 10.7383 92.8676 10.8547 92.531 11.0874C92.198 11.3166 92.0315 11.6084 92.0315 11.9629C92.0315 12.278 92.1461 12.5269 92.3752 12.7095C92.6044 12.8921 92.9625 13.0443 93.4495 13.166L94.6741 13.4668C95.4117 13.6458 95.9613 13.9198 96.323 14.2886C96.6847 14.6538 96.8655 15.1247 96.8655 15.7012C96.8655 16.1738 96.7294 16.5964 96.4573 16.9687C96.1887 17.3411 95.8127 17.6348 95.3293 17.8496C94.8459 18.0645 94.2838 18.1719 93.6428 18.1719C92.8014 18.1719 92.1049 17.9893 91.5535 17.624C91.002 17.2588 90.6529 16.7253 90.5061 16.0234L91.7092 15.7227C91.8238 16.1667 92.0404 16.4997 92.3591 16.7217C92.6814 16.9437 93.1021 17.0547 93.6213 17.0547C94.2122 17.0547 94.6812 16.9294 95.0286 16.6787C95.3795 16.4245 95.5549 16.1201 95.5549 15.7656C95.5549 15.4792 95.4547 15.2393 95.2542 15.0459C95.0536 14.849 94.7457 14.7021 94.3303 14.6055L92.9553 14.2832C92.1998 14.1042 91.6448 13.8267 91.2903 13.4507C90.9394 13.0711 90.7639 12.5967 90.7639 12.0273C90.7639 11.5618 90.8946 11.1501 91.156 10.792C91.421 10.4339 91.7808 10.1528 92.2356 9.94873C92.6939 9.74463 93.2131 9.64258 93.7932 9.64258C94.6096 9.64258 95.2506 9.82161 95.7161 10.1797C96.1851 10.5378 96.5181 11.0104 96.7151 11.5977ZM102.361 9.75V10.8242H98.0861V9.75H102.361ZM99.3322 7.77344H100.6V15.6367C100.6 15.9948 100.652 16.2633 100.755 16.4424C100.863 16.6178 100.999 16.736 101.164 16.7969C101.332 16.8542 101.509 16.8828 101.695 16.8828C101.835 16.8828 101.95 16.8757 102.039 16.8613C102.129 16.8434 102.2 16.8291 102.254 16.8184L102.512 17.957C102.426 17.9893 102.306 18.0215 102.152 18.0537C101.998 18.0895 101.803 18.1074 101.567 18.1074C101.208 18.1074 100.858 18.0304 100.514 17.8765C100.174 17.7225 99.8907 17.488 99.6652 17.1729C99.4432 16.8577 99.3322 16.4603 99.3322 15.9805V7.77344ZM104.268 18V9.75H105.536V18H104.268ZM104.913 8.375C104.666 8.375 104.453 8.29085 104.274 8.12256C104.098 7.95426 104.01 7.75195 104.01 7.51563C104.01 7.2793 104.098 7.07699 104.274 6.90869C104.453 6.7404 104.666 6.65625 104.913 6.65625C105.16 6.65625 105.371 6.7404 105.547 6.90869C105.726 7.07699 105.815 7.2793 105.815 7.51563C105.815 7.75195 105.726 7.95426 105.547 8.12256C105.371 8.29085 105.16 8.375 104.913 8.375ZM108.674 21.0938C108.459 21.0938 108.267 21.0758 108.099 21.04C107.931 21.0078 107.814 20.9756 107.75 20.9434L108.072 19.8262C108.38 19.9049 108.652 19.9336 108.889 19.9121C109.125 19.8906 109.334 19.785 109.517 19.5952C109.703 19.409 109.873 19.1064 110.027 18.6875L110.264 18.043L107.213 9.75H108.588L110.865 16.3242H110.951L113.229 9.75H114.604L111.102 19.2031C110.944 19.6292 110.749 19.9819 110.516 20.2612C110.283 20.5441 110.013 20.7536 109.705 20.8896C109.401 21.0257 109.057 21.0938 108.674 21.0938ZM123.023 9.75L119.972 18H118.683L115.632 9.75H117.007L119.284 16.3242H119.37L121.648 9.75H123.023ZM124.696 18V9.75H125.963V18H124.696ZM125.34 8.375C125.093 8.375 124.88 8.29085 124.701 8.12256C124.526 7.95426 124.438 7.75195 124.438 7.51563C124.438 7.2793 124.526 7.07699 124.701 6.90869C124.88 6.7404 125.093 6.65625 125.34 6.65625C125.587 6.65625 125.799 6.7404 125.974 6.90869C126.153 7.07699 126.243 7.2793 126.243 7.51563C126.243 7.75195 126.153 7.95426 125.974 8.12256C125.799 8.29085 125.587 8.375 125.34 8.375ZM129.467 14.9922L129.445 13.4238H129.703L133.312 9.75H134.881L131.035 13.6387H130.928L129.467 14.9922ZM128.285 18V7H129.553V18H128.285ZM133.527 18L130.305 13.918L131.207 13.0371L135.139 18H133.527ZM141.711 14.627V9.75H142.979V18H141.711V16.6035H141.625C141.432 17.0225 141.131 17.3787 140.723 17.6724C140.315 17.9624 139.799 18.1074 139.176 18.1074C138.661 18.1074 138.202 17.9946 137.801 17.769C137.4 17.5399 137.085 17.1961 136.856 16.7378C136.627 16.2759 136.512 15.694 136.512 14.9922V9.75H137.78V14.9062C137.78 15.5078 137.948 15.9876 138.285 16.3457C138.625 16.7038 139.058 16.8828 139.584 16.8828C139.9 16.8828 140.22 16.8022 140.546 16.6411C140.875 16.48 141.151 16.2329 141.373 15.8999C141.599 15.5669 141.711 15.1426 141.711 14.627ZM145.301 21.0938V9.75H146.525V11.0605H146.676C146.769 10.9173 146.898 10.7347 147.062 10.5127C147.231 10.2871 147.471 10.0866 147.782 9.91113C148.097 9.7321 148.523 9.64258 149.06 9.64258C149.755 9.64258 150.367 9.81624 150.897 10.1636C151.427 10.5109 151.841 11.0033 152.138 11.6406C152.435 12.278 152.584 13.0299 152.584 13.8965C152.584 14.7702 152.435 15.5275 152.138 16.1685C151.841 16.8058 151.429 17.3 150.903 17.6509C150.376 17.9982 149.769 18.1719 149.082 18.1719C148.552 18.1719 148.128 18.0841 147.809 17.9087C147.49 17.7297 147.245 17.5273 147.073 17.3018C146.901 17.0726 146.769 16.8828 146.676 16.7324H146.568V21.0938H145.301ZM146.547 13.875C146.547 14.498 146.638 15.0477 146.821 15.5239C147.003 15.9966 147.27 16.3672 147.621 16.6357C147.972 16.9007 148.402 17.0332 148.91 17.0332C149.44 17.0332 149.882 16.8936 150.237 16.6143C150.595 16.3314 150.863 15.9518 151.042 15.4756C151.225 14.9958 151.316 14.4622 151.316 13.875C151.316 13.2949 151.227 12.7721 151.048 12.3066C150.872 11.8376 150.606 11.467 150.247 11.1948C149.893 10.9191 149.447 10.7812 148.91 10.7812C148.394 10.7812 147.961 10.9119 147.61 11.1733C147.259 11.4312 146.994 11.7928 146.815 12.2583C146.636 12.7202 146.547 13.2591 146.547 13.875ZM155.441 18.0859C155.176 18.0859 154.949 17.991 154.759 17.8013C154.569 17.6115 154.474 17.3841 154.474 17.1191C154.474 16.8542 154.569 16.6268 154.759 16.437C154.949 16.2472 155.176 16.1523 155.441 16.1523C155.706 16.1523 155.934 16.2472 156.123 16.437C156.313 16.6268 156.408 16.8542 156.408 17.1191C156.408 17.2946 156.363 17.4557 156.274 17.6025C156.188 17.7493 156.071 17.8675 155.925 17.957C155.781 18.043 155.62 18.0859 155.441 18.0859ZM158.683 18V9.75H159.907V10.9961H159.993C160.144 10.5879 160.416 10.2567 160.81 10.0024C161.204 9.74821 161.648 9.62109 162.142 9.62109C162.235 9.62109 162.351 9.62288 162.491 9.62646C162.63 9.63005 162.736 9.63542 162.808 9.64258V10.9316C162.765 10.9209 162.666 10.9048 162.512 10.8833C162.362 10.8582 162.203 10.8457 162.034 10.8457C161.633 10.8457 161.275 10.9299 160.96 11.0981C160.649 11.2629 160.401 11.492 160.219 11.7856C160.04 12.0757 159.95 12.4069 159.95 12.7793V18H158.683ZM169.51 14.627V9.75H170.777V18H169.51V16.6035H169.424C169.23 17.0225 168.929 17.3787 168.521 17.6724C168.113 17.9624 167.597 18.1074 166.974 18.1074C166.459 18.1074 166 17.9946 165.599 17.769C165.198 17.5399 164.883 17.1961 164.654 16.7378C164.425 16.2759 164.31 15.694 164.31 14.9922V9.75H165.578V14.9062C165.578 15.5078 165.746 15.9876 166.083 16.3457C166.423 16.7038 166.856 16.8828 167.383 16.8828C167.698 16.8828 168.018 16.8022 168.344 16.6411C168.673 16.48 168.949 16.2329 169.171 15.8999C169.397 15.5669 169.51 15.1426 169.51 14.627Z" fill="white"/>
</svg>
