<svg width="19" height="30" viewBox="0 0 19 30" fill="none" xmlns="http://www.w3.org/2000/svg">
<path d="M9.62988 9.49121C12.0908 9.49121 14.1221 11.5225 14.1221 13.9834C14.1221 16.4834 12.0908 18.4756 9.62988 18.4756C7.12988 18.4756 5.1377 16.4834 5.1377 13.9834C5.1377 11.5225 7.12988 9.49121 9.62988 9.49121ZM9.62988 16.9131C11.2314 16.9131 12.5205 15.624 12.5205 13.9834C12.5205 12.3818 11.2314 11.0928 9.62988 11.0928C7.98926 11.0928 6.7002 12.3818 6.7002 13.9834C6.7002 15.624 8.02832 16.9131 9.62988 16.9131ZM15.333 9.33496C15.333 9.9209 14.8643 10.3896 14.2783 10.3896C13.6924 10.3896 13.2236 9.9209 13.2236 9.33496C13.2236 8.74902 13.6924 8.28027 14.2783 8.28027C14.8643 8.28027 15.333 8.74902 15.333 9.33496ZM18.3018 10.3896C18.3799 11.835 18.3799 16.1709 18.3018 17.6162C18.2236 19.0225 17.9111 20.2334 16.8955 21.2881C15.8799 22.3037 14.6299 22.6162 13.2236 22.6943C11.7783 22.7725 7.44238 22.7725 5.99707 22.6943C4.59082 22.6162 3.37988 22.3037 2.3252 21.2881C1.30957 20.2334 0.99707 19.0225 0.918945 17.6162C0.84082 16.1709 0.84082 11.835 0.918945 10.3896C0.99707 8.9834 1.30957 7.7334 2.3252 6.71777C3.37988 5.70215 4.59082 5.38965 5.99707 5.31152C7.44238 5.2334 11.7783 5.2334 13.2236 5.31152C14.6299 5.38965 15.8799 5.70215 16.8955 6.71777C17.9111 7.7334 18.2236 8.9834 18.3018 10.3896ZM16.4268 19.1396C16.8955 18.0068 16.7783 15.2725 16.7783 13.9834C16.7783 12.7334 16.8955 9.99902 16.4268 8.82715C16.1143 8.08496 15.5283 7.45996 14.7861 7.18652C13.6143 6.71777 10.8799 6.83496 9.62988 6.83496C8.34082 6.83496 5.60645 6.71777 4.47363 7.18652C3.69238 7.49902 3.10645 8.08496 2.79395 8.82715C2.3252 9.99902 2.44238 12.7334 2.44238 13.9834C2.44238 15.2725 2.3252 18.0068 2.79395 19.1396C3.10645 19.9209 3.69238 20.5068 4.47363 20.8193C5.60645 21.2881 8.34082 21.1709 9.62988 21.1709C10.8799 21.1709 13.6143 21.2881 14.7861 20.8193C15.5283 20.5068 16.1533 19.9209 16.4268 19.1396Z" fill="white"/>
</svg>
