<svg width="18" height="29" viewBox="0 0 18 29" fill="none" xmlns="http://www.w3.org/2000/svg">
<path d="M8.78906 9.00781C11.25 9.00781 13.2812 11.0391 13.2812 13.5C13.2812 16 11.25 17.9922 8.78906 17.9922C6.28906 17.9922 4.29688 16 4.29688 13.5C4.29688 11.0391 6.28906 9.00781 8.78906 9.00781ZM8.78906 16.4297C10.3906 16.4297 11.6797 15.1406 11.6797 13.5C11.6797 11.8984 10.3906 10.6094 8.78906 10.6094C7.14844 10.6094 5.85938 11.8984 5.85938 13.5C5.85938 15.1406 7.1875 16.4297 8.78906 16.4297ZM14.4922 8.85156C14.4922 9.4375 14.0234 9.90625 13.4375 9.90625C12.8516 9.90625 12.3828 9.4375 12.3828 8.85156C12.3828 8.26562 12.8516 7.79688 13.4375 7.79688C14.0234 7.79688 14.4922 8.26562 14.4922 8.85156ZM17.4609 9.90625C17.5391 11.3516 17.5391 15.6875 17.4609 17.1328C17.3828 18.5391 17.0703 19.75 16.0547 20.8047C15.0391 21.8203 13.7891 22.1328 12.3828 22.2109C10.9375 22.2891 6.60156 22.2891 5.15625 22.2109C3.75 22.1328 2.53906 21.8203 1.48438 20.8047C0.46875 19.75 0.15625 18.5391 0.078125 17.1328C0 15.6875 0 11.3516 0.078125 9.90625C0.15625 8.5 0.46875 7.25 1.48438 6.23438C2.53906 5.21875 3.75 4.90625 5.15625 4.82812C6.60156 4.75 10.9375 4.75 12.3828 4.82812C13.7891 4.90625 15.0391 5.21875 16.0547 6.23438C17.0703 7.25 17.3828 8.5 17.4609 9.90625ZM15.5859 18.6562C16.0547 17.5234 15.9375 14.7891 15.9375 13.5C15.9375 12.25 16.0547 9.51562 15.5859 8.34375C15.2734 7.60156 14.6875 6.97656 13.9453 6.70312C12.7734 6.23438 10.0391 6.35156 8.78906 6.35156C7.5 6.35156 4.76562 6.23438 3.63281 6.70312C2.85156 7.01562 2.26562 7.60156 1.95312 8.34375C1.48438 9.51562 1.60156 12.25 1.60156 13.5C1.60156 14.7891 1.48438 17.5234 1.95312 18.6562C2.26562 19.4375 2.85156 20.0234 3.63281 20.3359C4.76562 20.8047 7.5 20.6875 8.78906 20.6875C10.0391 20.6875 12.7734 20.8047 13.9453 20.3359C14.6875 20.0234 15.3125 19.4375 15.5859 18.6562Z" fill="white"/>
</svg>
