<svg width="480" height="24" viewBox="0 0 480 24" fill="none" xmlns="http://www.w3.org/2000/svg">
<path d="M5.375 19.6875C0.8125 13.125 0 12.4375 0 10C0 6.6875 2.65625 4 6 4C9.3125 4 12 6.6875 12 10C12 12.4375 11.1562 13.125 6.59375 19.6875C6.3125 20.125 5.65625 20.125 5.375 19.6875ZM6 12.5C7.375 12.5 8.5 11.4062 8.5 10C8.5 8.625 7.375 7.5 6 7.5C4.59375 7.5 3.5 8.625 3.5 10C3.5 11.4062 4.59375 12.5 6 12.5Z" fill="white"/>
<path d="M25.332 7H26.9219L30.6602 16.1309H30.7891L34.5273 7H36.1172V18H34.8711V9.64258H34.7637L31.3262 18H30.123L26.6855 9.64258H26.5781V18H25.332V7ZM41.9677 18.1719C41.2229 18.1719 40.5694 17.9946 40.0072 17.6401C39.4486 17.2856 39.0118 16.7897 38.6967 16.1523C38.3851 15.515 38.2294 14.7702 38.2294 13.918C38.2294 13.0586 38.3851 12.3084 38.6967 11.6675C39.0118 11.0265 39.4486 10.5288 40.0072 10.1743C40.5694 9.81982 41.2229 9.64258 41.9677 9.64258C42.7124 9.64258 43.3641 9.81982 43.9227 10.1743C44.4849 10.5288 44.9218 11.0265 45.2333 11.6675C45.5484 12.3084 45.7059 13.0586 45.7059 13.918C45.7059 14.7702 45.5484 15.515 45.2333 16.1523C44.9218 16.7897 44.4849 17.2856 43.9227 17.6401C43.3641 17.9946 42.7124 18.1719 41.9677 18.1719ZM41.9677 17.0332C42.5334 17.0332 42.9989 16.8882 43.3641 16.5981C43.7294 16.3081 43.9997 15.9268 44.1752 15.4541C44.3506 14.9814 44.4384 14.4694 44.4384 13.918C44.4384 13.3665 44.3506 12.8527 44.1752 12.3765C43.9997 11.9002 43.7294 11.5153 43.3641 11.2217C42.9989 10.9281 42.5334 10.7812 41.9677 10.7812C41.4019 10.7812 40.9364 10.9281 40.5712 11.2217C40.2059 11.5153 39.9356 11.9002 39.7601 12.3765C39.5847 12.8527 39.4969 13.3665 39.4969 13.918C39.4969 14.4694 39.5847 14.9814 39.7601 15.4541C39.9356 15.9268 40.2059 16.3081 40.5712 16.5981C40.9364 16.8882 41.4019 17.0332 41.9677 17.0332ZM50.9924 18.1719C50.219 18.1719 49.553 17.9893 48.9944 17.624C48.4358 17.2588 48.0061 16.7557 47.7053 16.1147C47.4045 15.4738 47.2542 14.7415 47.2542 13.918C47.2542 13.0801 47.4081 12.3407 47.7161 11.6997C48.0276 11.0552 48.4609 10.5521 49.0159 10.1904C49.5745 9.8252 50.2262 9.64258 50.9709 9.64258C51.551 9.64258 52.0738 9.75 52.5393 9.96484C53.0048 10.1797 53.3861 10.4805 53.6833 10.8672C53.9806 11.2539 54.165 11.7051 54.2366 12.2207H52.969C52.8723 11.8447 52.6575 11.5117 52.3245 11.2217C51.995 10.9281 51.551 10.7812 50.9924 10.7812C50.4983 10.7812 50.065 10.9102 49.6926 11.168C49.3238 11.4222 49.0356 11.7821 48.8279 12.2476C48.6238 12.7095 48.5217 13.252 48.5217 13.875C48.5217 14.5124 48.622 15.0674 48.8225 15.54C49.0266 16.0127 49.3131 16.3797 49.6819 16.6411C50.0543 16.9025 50.4911 17.0332 50.9924 17.0332C51.3219 17.0332 51.6208 16.9759 51.8894 16.8613C52.158 16.7467 52.3853 16.582 52.5715 16.3672C52.7577 16.1523 52.8902 15.8945 52.969 15.5938H54.2366C54.165 16.0807 53.9877 16.5194 53.7048 16.9097C53.4255 17.2964 53.0549 17.6043 52.593 17.8335C52.1347 18.0591 51.6012 18.1719 50.9924 18.1719ZM56.0896 18V9.75H57.3572V13.3379H58.1951L61.1599 9.75H62.7927L59.4626 13.7246L62.8357 18H61.2029L58.4958 14.5195H57.3572V18H56.0896ZM64.2134 18V9.75H67.5864C68.4744 9.75 69.1799 9.95052 69.7026 10.3516C70.2254 10.7526 70.4868 11.2826 70.4868 11.9414C70.4868 12.4427 70.3382 12.8312 70.041 13.1069C69.7438 13.3791 69.3625 13.5635 68.897 13.6602C69.2013 13.7031 69.4967 13.8105 69.7832 13.9824C70.0732 14.1543 70.3132 14.3906 70.5029 14.6914C70.6927 14.9886 70.7876 15.3538 70.7876 15.7871C70.7876 16.2096 70.6802 16.5874 70.4653 16.9204C70.2505 17.2534 69.9425 17.5166 69.5415 17.71C69.1405 17.9033 68.6606 18 68.1021 18H64.2134ZM65.4165 16.8398H68.1021C68.5389 16.8398 68.8809 16.736 69.1279 16.5283C69.375 16.3206 69.4985 16.0378 69.4985 15.6797C69.4985 15.2536 69.375 14.9188 69.1279 14.6753C68.8809 14.4282 68.5389 14.3047 68.1021 14.3047H65.4165V16.8398ZM65.4165 13.209H67.5864C67.9266 13.209 68.2184 13.1624 68.4619 13.0693C68.7054 12.9727 68.8916 12.8366 69.0205 12.6611C69.153 12.4821 69.2192 12.2708 69.2192 12.0273C69.2192 11.68 69.0742 11.4079 68.7842 11.2109C68.4941 11.0104 68.0949 10.9102 67.5864 10.9102H65.4165V13.209ZM75.1342 18.1934C74.6114 18.1934 74.1369 18.0949 73.7108 17.8979C73.2847 17.6974 72.9463 17.4092 72.6957 17.0332C72.445 16.6536 72.3197 16.1953 72.3197 15.6582C72.3197 15.1855 72.4128 14.8024 72.599 14.5088C72.7852 14.2116 73.0341 13.9788 73.3456 13.8105C73.6571 13.6423 74.0009 13.5169 74.3768 13.4346C74.7564 13.3486 75.1377 13.2806 75.5209 13.2305C76.0222 13.166 76.4286 13.1177 76.7401 13.0854C77.0552 13.0496 77.2844 12.9906 77.4276 12.9082C77.5744 12.8258 77.6478 12.6826 77.6478 12.4785V12.4355C77.6478 11.9056 77.5028 11.4938 77.2128 11.2002C76.9263 10.9066 76.4913 10.7598 75.9076 10.7598C75.3024 10.7598 74.828 10.8923 74.4843 11.1572C74.1405 11.4222 73.8988 11.7051 73.7592 12.0059L72.556 11.5762C72.7709 11.0749 73.0573 10.6846 73.4154 10.4053C73.7771 10.1224 74.1709 9.92546 74.597 9.81445C75.0267 9.69987 75.4493 9.64258 75.8646 9.64258C76.1296 9.64258 76.434 9.6748 76.7777 9.73926C77.125 9.80013 77.4598 9.92725 77.7821 10.1206C78.108 10.314 78.3783 10.6058 78.5931 10.9961C78.808 11.3864 78.9154 11.9092 78.9154 12.5645V18H77.6478V16.8828H77.5834C77.4974 17.0618 77.3542 17.2534 77.1537 17.4575C76.9532 17.6616 76.6864 17.8353 76.3534 17.9785C76.0204 18.1217 75.614 18.1934 75.1342 18.1934ZM75.3275 17.0547C75.8288 17.0547 76.2513 16.9562 76.5951 16.7593C76.9424 16.5623 77.2038 16.3081 77.3793 15.9966C77.5583 15.6851 77.6478 15.3574 77.6478 15.0137V13.8535C77.5941 13.918 77.476 13.9771 77.2933 14.0308C77.1143 14.0809 76.9066 14.1257 76.6703 14.165C76.4375 14.2008 76.2102 14.2331 75.9882 14.2617C75.7697 14.2868 75.5925 14.3083 75.4564 14.3262C75.127 14.3691 74.8191 14.439 74.5326 14.5356C74.2497 14.6287 74.0205 14.7702 73.8451 14.96C73.6732 15.1462 73.5873 15.4004 73.5873 15.7227C73.5873 16.1631 73.7502 16.4961 74.076 16.7217C74.4055 16.9437 74.8226 17.0547 75.3275 17.0547ZM83.1196 16.4961L83.0337 17.0762C82.9728 17.4844 82.8797 17.9212 82.7544 18.3867C82.6326 18.8522 82.5055 19.2909 82.373 19.7026C82.2406 20.1144 82.1313 20.4421 82.0454 20.6855H81.0786C81.1252 20.4564 81.186 20.1538 81.2612 19.7778C81.3364 19.4019 81.4116 18.9811 81.4868 18.5156C81.5656 18.0537 81.63 17.5811 81.6802 17.0977L81.7446 16.4961H83.1196ZM90.5385 21.0938C90.3236 21.0938 90.132 21.0758 89.9637 21.04C89.7955 21.0078 89.6791 20.9756 89.6146 20.9434L89.9369 19.8262C90.2448 19.9049 90.517 19.9336 90.7533 19.9121C90.9896 19.8906 91.1991 19.785 91.3817 19.5952C91.5679 19.409 91.738 19.1064 91.892 18.6875L92.1283 18.043L89.0775 9.75H90.4525L92.7299 16.3242H92.8158L95.0931 9.75H96.4681L92.9662 19.2031C92.8086 19.6292 92.6135 19.9819 92.3807 20.2612C92.148 20.5441 91.8776 20.7536 91.5697 20.8896C91.2653 21.0257 90.9216 21.0938 90.5385 21.0938ZM96.7166 18V16.8184H97.0173C97.2644 16.8184 97.4703 16.77 97.635 16.6733C97.7997 16.5731 97.9322 16.3994 98.0325 16.1523C98.1363 15.9017 98.2151 15.5544 98.2688 15.1104C98.3261 14.6628 98.3673 14.0934 98.3923 13.4023L98.5427 9.75H104.043V18H102.775V10.9316H99.7458L99.6169 13.875C99.5883 14.5518 99.5274 15.1479 99.4343 15.6636C99.3448 16.1756 99.2069 16.6053 99.0208 16.9526C98.8381 17.3 98.5946 17.5614 98.2903 17.7368C97.9859 17.9123 97.6046 18 97.1462 18H96.7166ZM107.292 18.0859C107.027 18.0859 106.8 17.991 106.61 17.8013C106.42 17.6115 106.325 17.3841 106.325 17.1191C106.325 16.8542 106.42 16.6268 106.61 16.437C106.8 16.2472 107.027 16.1523 107.292 16.1523C107.557 16.1523 107.785 16.2472 107.974 16.437C108.164 16.6268 108.259 16.8542 108.259 17.1191C108.259 17.2946 108.214 17.4557 108.125 17.6025C108.039 17.7493 107.922 17.8675 107.776 17.957C107.632 18.043 107.471 18.0859 107.292 18.0859ZM114.959 18V7H118.805C119.571 7 120.203 7.13249 120.701 7.39746C121.199 7.65885 121.569 8.01156 121.813 8.45557C122.056 8.896 122.178 9.38477 122.178 9.92187C122.178 10.3945 122.094 10.7848 121.926 11.0928C121.761 11.4007 121.543 11.6442 121.271 11.8232C121.002 12.0023 120.71 12.1348 120.395 12.2207V12.3281C120.732 12.3496 121.07 12.4678 121.41 12.6826C121.75 12.8975 122.035 13.2054 122.264 13.6064C122.493 14.0075 122.608 14.498 122.608 15.0781C122.608 15.6296 122.483 16.1255 122.232 16.5659C121.981 17.0063 121.586 17.3555 121.045 17.6133C120.504 17.8711 119.801 18 118.934 18H114.959ZM116.292 16.8184H118.934C119.804 16.8184 120.422 16.6501 120.787 16.3135C121.156 15.9733 121.34 15.5615 121.34 15.0781C121.34 14.7057 121.245 14.362 121.056 14.0469C120.866 13.7282 120.596 13.474 120.245 13.2842C119.894 13.0908 119.478 12.9941 118.999 12.9941H116.292V16.8184ZM116.292 11.834H118.762C119.163 11.834 119.525 11.7552 119.847 11.5977C120.173 11.4401 120.431 11.2181 120.621 10.9316C120.814 10.6452 120.911 10.3086 120.911 9.92187C120.911 9.43848 120.742 9.02848 120.406 8.69189C120.069 8.35173 119.536 8.18164 118.805 8.18164H116.292V11.834ZM127.052 18.1934C126.53 18.1934 126.055 18.0949 125.629 17.8979C125.203 17.6974 124.865 17.4092 124.614 17.0332C124.363 16.6536 124.238 16.1953 124.238 15.6582C124.238 15.1855 124.331 14.8024 124.517 14.5088C124.704 14.2116 124.952 13.9788 125.264 13.8105C125.575 13.6423 125.919 13.5169 126.295 13.4346C126.675 13.3486 127.056 13.2806 127.439 13.2305C127.941 13.166 128.347 13.1177 128.658 13.0854C128.974 13.0496 129.203 12.9906 129.346 12.9082C129.493 12.8258 129.566 12.6826 129.566 12.4785V12.4355C129.566 11.9056 129.421 11.4938 129.131 11.2002C128.845 10.9066 128.41 10.7598 127.826 10.7598C127.221 10.7598 126.746 10.8923 126.403 11.1572C126.059 11.4222 125.817 11.7051 125.677 12.0059L124.474 11.5762C124.689 11.0749 124.976 10.6846 125.334 10.4053C125.695 10.1224 126.089 9.92546 126.515 9.81445C126.945 9.69987 127.368 9.64258 127.783 9.64258C128.048 9.64258 128.352 9.6748 128.696 9.73926C129.043 9.80013 129.378 9.92725 129.7 10.1206C130.026 10.314 130.297 10.6058 130.511 10.9961C130.726 11.3864 130.834 11.9092 130.834 12.5645V18H129.566V16.8828H129.502C129.416 17.0618 129.273 17.2534 129.072 17.4575C128.872 17.6616 128.605 17.8353 128.272 17.9785C127.939 18.1217 127.532 18.1934 127.052 18.1934ZM127.246 17.0547C127.747 17.0547 128.17 16.9562 128.513 16.7593C128.861 16.5623 129.122 16.3081 129.298 15.9966C129.477 15.6851 129.566 15.3574 129.566 15.0137V13.8535C129.512 13.918 129.394 13.9771 129.212 14.0308C129.033 14.0809 128.825 14.1257 128.589 14.165C128.356 14.2008 128.128 14.2331 127.906 14.2617C127.688 14.2868 127.511 14.3083 127.375 14.3262C127.045 14.3691 126.737 14.439 126.451 14.5356C126.168 14.6287 125.939 14.7702 125.763 14.96C125.592 15.1462 125.506 15.4004 125.506 15.7227C125.506 16.1631 125.669 16.4961 125.994 16.7217C126.324 16.9437 126.741 17.0547 127.246 17.0547ZM136.499 18.1719C135.725 18.1719 135.059 17.9893 134.501 17.624C133.942 17.2588 133.513 16.7557 133.212 16.1147C132.911 15.4738 132.761 14.7415 132.761 13.918C132.761 13.0801 132.915 12.3407 133.223 11.6997C133.534 11.0552 133.967 10.5521 134.522 10.1904C135.081 9.8252 135.733 9.64258 136.477 9.64258C137.057 9.64258 137.58 9.75 138.046 9.96484C138.511 10.1797 138.893 10.4805 139.19 10.8672C139.487 11.2539 139.671 11.7051 139.743 12.2207H138.475C138.379 11.8447 138.164 11.5117 137.831 11.2217C137.502 10.9281 137.057 10.7812 136.499 10.7812C136.005 10.7812 135.571 10.9102 135.199 11.168C134.83 11.4222 134.542 11.7821 134.334 12.2476C134.13 12.7095 134.028 13.252 134.028 13.875C134.028 14.5124 134.128 15.0674 134.329 15.54C134.533 16.0127 134.82 16.3797 135.188 16.6411C135.561 16.9025 135.998 17.0332 136.499 17.0332C136.828 17.0332 137.127 16.9759 137.396 16.8613C137.664 16.7467 137.892 16.582 138.078 16.3672C138.264 16.1523 138.397 15.8945 138.475 15.5938H139.743C139.671 16.0807 139.494 16.5194 139.211 16.9097C138.932 17.2964 138.561 17.6043 138.099 17.8335C137.641 18.0591 137.108 18.1719 136.499 18.1719ZM142.864 16.1309L146.838 9.75H148.299V18H147.032V11.6191L143.078 18H141.596V9.75H142.864V16.1309ZM149.89 18V16.8184H150.191C150.438 16.8184 150.644 16.77 150.809 16.6733C150.974 16.5731 151.106 16.3994 151.206 16.1523C151.31 15.9017 151.389 15.5544 151.443 15.1104C151.5 14.6628 151.541 14.0934 151.566 13.4023L151.717 9.75H157.217V18H155.949V10.9316H152.92L152.791 13.875C152.762 14.5518 152.701 15.1479 152.608 15.6636C152.519 16.1756 152.381 16.6053 152.195 16.9526C152.012 17.3 151.768 17.5614 151.464 17.7368C151.16 17.9123 150.778 18 150.32 18H149.89ZM160.81 16.1309L164.784 9.75H166.245V18H164.978V11.6191L161.025 18H159.542V9.75H160.81V16.1309ZM171.919 18.1719C171.145 18.1719 170.479 17.9893 169.921 17.624C169.362 17.2588 168.932 16.7557 168.631 16.1147C168.331 15.4738 168.18 14.7415 168.18 13.918C168.18 13.0801 168.334 12.3407 168.642 11.6997C168.954 11.0552 169.387 10.5521 169.942 10.1904C170.501 9.8252 171.152 9.64258 171.897 9.64258C172.477 9.64258 173 9.75 173.465 9.96484C173.931 10.1797 174.312 10.4805 174.609 10.8672C174.907 11.2539 175.091 11.7051 175.163 12.2207H173.895C173.798 11.8447 173.584 11.5117 173.251 11.2217C172.921 10.9281 172.477 10.7812 171.919 10.7812C171.424 10.7812 170.991 10.9102 170.619 11.168C170.25 11.4222 169.962 11.7821 169.754 12.2476C169.55 12.7095 169.448 13.252 169.448 13.875C169.448 14.5124 169.548 15.0674 169.749 15.54C169.953 16.0127 170.239 16.3797 170.608 16.6411C170.98 16.9025 171.417 17.0332 171.919 17.0332C172.248 17.0332 172.547 16.9759 172.816 16.8613C173.084 16.7467 173.311 16.582 173.498 16.3672C173.684 16.1523 173.816 15.8945 173.895 15.5938H175.163C175.091 16.0807 174.914 16.5194 174.631 16.9097C174.352 17.2964 173.981 17.6043 173.519 17.8335C173.061 18.0591 172.527 18.1719 171.919 18.1719ZM178.111 12.7363H180.475C181.442 12.7363 182.181 12.9816 182.693 13.4722C183.205 13.9627 183.461 14.584 183.461 15.3359C183.461 15.8301 183.346 16.2795 183.117 16.6841C182.888 17.0851 182.552 17.4056 182.108 17.6455C181.664 17.8818 181.119 18 180.475 18H177.016V9.75H178.283V16.8184H180.475C180.976 16.8184 181.388 16.6859 181.71 16.4209C182.032 16.1559 182.193 15.8158 182.193 15.4004C182.193 14.9635 182.032 14.6073 181.71 14.3315C181.388 14.0558 180.976 13.918 180.475 13.918H178.111V12.7363ZM184.772 18V9.75H186.039V18H184.772ZM199.252 18L195.471 12.9512H194.117V18H192.785V7H194.117V11.7695H194.697L199.102 7H200.692L196.244 11.834L200.842 18H199.252ZM205.137 18.1719C204.393 18.1719 203.739 17.9946 203.177 17.6401C202.618 17.2856 202.182 16.7897 201.866 16.1523C201.555 15.515 201.399 14.7702 201.399 13.918C201.399 13.0586 201.555 12.3084 201.866 11.6675C202.182 11.0265 202.618 10.5288 203.177 10.1743C203.739 9.81982 204.393 9.64258 205.137 9.64258C205.882 9.64258 206.534 9.81982 207.093 10.1743C207.655 10.5288 208.092 11.0265 208.403 11.6675C208.718 12.3084 208.876 13.0586 208.876 13.918C208.876 14.7702 208.718 15.515 208.403 16.1523C208.092 16.7897 207.655 17.2856 207.093 17.6401C206.534 17.9946 205.882 18.1719 205.137 18.1719ZM205.137 17.0332C205.703 17.0332 206.169 16.8882 206.534 16.5981C206.899 16.3081 207.17 15.9268 207.345 15.4541C207.52 14.9814 207.608 14.4694 207.608 13.918C207.608 13.3665 207.52 12.8527 207.345 12.3765C207.17 11.9002 206.899 11.5153 206.534 11.2217C206.169 10.9281 205.703 10.7812 205.137 10.7812C204.572 10.7812 204.106 10.9281 203.741 11.2217C203.376 11.5153 203.105 11.9002 202.93 12.3765C202.754 12.8527 202.667 13.3665 202.667 13.918C202.667 14.4694 202.754 14.9814 202.93 15.4541C203.105 15.9268 203.376 16.3081 203.741 16.5981C204.106 16.8882 204.572 17.0332 205.137 17.0332ZM209.955 18L213.307 13.8105L209.998 9.75H211.502L214.252 13.2734H214.94V9.75H216.207V13.2734H216.873L219.623 9.75H221.127L217.84 13.8105L221.17 18H219.645L216.852 14.4551H216.207V18H214.94V14.4551H214.295L211.481 18H209.955ZM224.249 16.1309L228.224 9.75H229.685V18H228.417V11.6191L224.464 18H222.982V9.75H224.249V16.1309ZM237.528 13.2949V14.4766H232.973V13.2949H237.528ZM233.274 9.75V18H232.006V9.75H233.274ZM238.495 9.75V18H237.227V9.75H238.495ZM244.161 18.1719C243.416 18.1719 242.763 17.9946 242.201 17.6401C241.642 17.2856 241.205 16.7897 240.89 16.1523C240.579 15.515 240.423 14.7702 240.423 13.918C240.423 13.0586 240.579 12.3084 240.89 11.6675C241.205 11.0265 241.642 10.5288 242.201 10.1743C242.763 9.81982 243.416 9.64258 244.161 9.64258C244.906 9.64258 245.558 9.81982 246.116 10.1743C246.678 10.5288 247.115 11.0265 247.427 11.6675C247.742 12.3084 247.899 13.0586 247.899 13.918C247.899 14.7702 247.742 15.515 247.427 16.1523C247.115 16.7897 246.678 17.2856 246.116 17.6401C245.558 17.9946 244.906 18.1719 244.161 18.1719ZM244.161 17.0332C244.727 17.0332 245.192 16.8882 245.558 16.5981C245.923 16.3081 246.193 15.9268 246.369 15.4541C246.544 14.9814 246.632 14.4694 246.632 13.918C246.632 13.3665 246.544 12.8527 246.369 12.3765C246.193 11.9002 245.923 11.5153 245.558 11.2217C245.192 10.9281 244.727 10.7812 244.161 10.7812C243.595 10.7812 243.13 10.9281 242.765 11.2217C242.399 11.5153 242.129 11.9002 241.954 12.3765C241.778 12.8527 241.69 13.3665 241.69 13.918C241.69 14.4694 241.778 14.9814 241.954 15.4541C242.129 15.9268 242.399 16.3081 242.765 16.5981C243.13 16.8882 243.595 17.0332 244.161 17.0332ZM251.102 16.1309L255.077 9.75H256.537V18H255.27V11.6191L251.317 18H249.834V9.75H251.102V16.1309ZM254.239 7H255.42C255.42 7.58008 255.22 8.05452 254.819 8.42334C254.418 8.79215 253.873 8.97656 253.186 8.97656C252.509 8.97656 251.97 8.79215 251.569 8.42334C251.172 8.05452 250.973 7.58008 250.973 7H252.155C252.155 7.2793 252.232 7.52458 252.386 7.73584C252.543 7.9471 252.81 8.05273 253.186 8.05273C253.562 8.05273 253.83 7.9471 253.992 7.73584C254.156 7.52458 254.239 7.2793 254.239 7ZM260.75 16.4961L260.664 17.0762C260.603 17.4844 260.51 17.9212 260.385 18.3867C260.263 18.8522 260.136 19.2909 260.003 19.7026C259.871 20.1144 259.761 20.4421 259.676 20.6855H258.709C258.755 20.4564 258.816 20.1538 258.891 19.7778C258.967 19.4019 259.042 18.9811 259.117 18.5156C259.196 18.0537 259.26 17.5811 259.31 17.0977L259.375 16.4961H260.75ZM271.198 7V18H269.866V8.39648H269.801L267.116 10.1797V8.82617L269.866 7H271.198ZM278.078 18.1504C277.369 18.1504 276.737 18.0286 276.182 17.7852C275.631 17.5417 275.192 17.2033 274.866 16.77C274.544 16.3332 274.369 15.8265 274.34 15.25H275.693C275.722 15.6045 275.844 15.9106 276.059 16.1685C276.274 16.4227 276.555 16.6196 276.902 16.7593C277.249 16.8989 277.634 16.9687 278.057 16.9687C278.529 16.9687 278.948 16.8864 279.314 16.7217C279.679 16.557 279.965 16.3278 280.173 16.0342C280.381 15.7406 280.484 15.4004 280.484 15.0137C280.484 14.609 280.384 14.2528 280.184 13.9448C279.983 13.6333 279.69 13.3898 279.303 13.2144C278.916 13.0389 278.443 12.9512 277.885 12.9512H277.004V11.7695H277.885C278.322 11.7695 278.705 11.6908 279.034 11.5332C279.367 11.3757 279.627 11.1536 279.813 10.8672C280.003 10.5807 280.098 10.2441 280.098 9.85742C280.098 9.48503 280.015 9.16097 279.851 8.88525C279.686 8.60954 279.453 8.39469 279.152 8.24072C278.855 8.08675 278.504 8.00977 278.1 8.00977C277.72 8.00977 277.362 8.07959 277.026 8.21924C276.693 8.35531 276.42 8.55404 276.209 8.81543C275.998 9.07324 275.883 9.38477 275.865 9.75H274.576C274.598 9.1735 274.771 8.66862 275.097 8.23535C275.423 7.7985 275.849 7.45833 276.376 7.21484C276.906 6.97135 277.487 6.84961 278.121 6.84961C278.802 6.84961 279.385 6.98747 279.872 7.26318C280.359 7.53532 280.733 7.89518 280.995 8.34277C281.256 8.79036 281.387 9.27376 281.387 9.79297C281.387 10.4124 281.224 10.9406 280.898 11.3774C280.576 11.8143 280.137 12.1169 279.582 12.2852V12.3711C280.277 12.4857 280.819 12.7811 281.21 13.2573C281.6 13.73 281.795 14.3154 281.795 15.0137C281.795 15.6117 281.632 16.1488 281.306 16.625C280.984 17.0977 280.544 17.4701 279.985 17.7422C279.426 18.0143 278.791 18.1504 278.078 18.1504Z" fill="white"/>
</svg>
