<svg width="481" height="24" viewBox="0 0 481 24" fill="none" xmlns="http://www.w3.org/2000/svg">
<path d="M15.4688 4.78125C15.8125 4.875 16.0625 5.15625 16.0625 5.5C16.0625 13.5312 9.5625 20 1.5625 20C1.1875 20 0.90625 19.7812 0.8125 19.4375L0.0625 16.1875C0 15.8438 0.15625 15.4688 0.5 15.3125L4 13.8125C4.3125 13.6875 4.65625 13.7812 4.875 14.0312L6.4375 15.9375C8.875 14.7812 10.8438 12.7812 11.9688 10.4062L10.0625 8.84375C9.8125 8.625 9.71875 8.28125 9.84375 7.96875L11.3438 4.46875C11.5 4.125 11.875 3.9375 12.2188 4.03125L15.4688 4.78125Z" fill="white"/>
<path d="M32.2642 15.1463V8.34943H33.4176V15.1463H32.2642ZM29.4425 12.3246V11.1712H36.2393V12.3246H29.4425ZM38.7161 17L43.4327 7.66974V7.58736H37.9952V6.45455H44.7509V7.64915L40.0549 17H38.7161ZM51.2015 11.7273C51.2015 10.4297 51.3697 9.2368 51.7061 8.14861C52.0459 7.057 52.53 6.05291 53.1582 5.13636H54.2292C53.982 5.47621 53.7503 5.895 53.534 6.39276C53.3212 6.88707 53.1341 7.43117 52.9728 8.02504C52.8114 8.61547 52.6844 9.2265 52.5918 9.85813C52.5025 10.4898 52.4579 11.1128 52.4579 11.7273C52.4579 12.5443 52.5368 13.3733 52.6947 14.2143C52.8526 15.0553 53.0655 15.8363 53.3332 16.5572C53.601 17.2781 53.8996 17.8651 54.2292 18.3182H53.1582C52.53 17.4016 52.0459 16.3993 51.7061 15.3111C51.3697 14.2195 51.2015 13.0249 51.2015 11.7273ZM55.7546 14.8374V13.7869L60.3888 6.45455H61.1509V8.08168H60.636L57.1346 13.6222V13.7045H63.3754V14.8374H55.7546ZM60.7184 17V14.5181V14.0289V6.45455H61.9336V17H60.7184ZM68.6622 6.31037C69.0948 6.3138 69.5273 6.39619 69.9598 6.55753C70.3924 6.71887 70.7871 6.98662 71.1441 7.3608C71.5011 7.73153 71.7878 8.23787 72.004 8.87979C72.2203 9.52172 72.3284 10.3267 72.3284 11.2947C72.3284 12.2319 72.2392 13.0643 72.0607 13.7921C71.8856 14.5164 71.6316 15.1274 71.2986 15.6252C70.9691 16.1229 70.5674 16.5005 70.0937 16.758C69.6234 17.0154 69.0913 17.1442 68.4975 17.1442C67.907 17.1442 67.3801 17.0275 66.9167 16.794C66.4567 16.5572 66.0791 16.2293 65.7839 15.8105C65.4921 15.3883 65.305 14.8991 65.2226 14.343H66.479C66.5923 14.8271 66.8171 15.227 67.1535 15.5428C67.4934 15.8552 67.9414 16.0114 68.4975 16.0114C69.311 16.0114 69.953 15.6561 70.4233 14.9455C70.897 14.2349 71.1338 13.2308 71.1338 11.9332H71.0514C70.8592 12.2216 70.6309 12.4705 70.3666 12.6799C70.1023 12.8893 69.8088 13.0506 69.4861 13.1639C69.1634 13.2772 68.8201 13.3338 68.4563 13.3338C67.8521 13.3338 67.2977 13.1845 66.7931 12.8858C66.2919 12.5837 65.8903 12.1701 65.5882 11.6449C65.2896 11.1162 65.1402 10.5121 65.1402 9.83239C65.1402 9.18703 65.2844 8.59659 65.5728 8.06108C65.8645 7.52214 66.273 7.09304 66.7983 6.77379C67.3269 6.45455 67.9482 6.30007 68.6622 6.31037ZM68.6622 7.44318C68.2297 7.44318 67.8401 7.55131 67.4934 7.76758C67.1501 7.98041 66.8772 8.26876 66.6747 8.63263C66.4756 8.99307 66.376 9.39299 66.376 9.83239C66.376 10.2718 66.4721 10.6717 66.6644 11.0321C66.86 11.3891 67.1261 11.6741 67.4625 11.8869C67.8023 12.0963 68.1885 12.201 68.621 12.201C68.9472 12.201 69.251 12.1375 69.5324 12.0105C69.8139 11.88 70.0594 11.7032 70.2688 11.4801C70.4816 11.2536 70.6481 10.9978 70.7682 10.7129C70.8884 10.4245 70.9485 10.1242 70.9485 9.81179C70.9485 9.39986 70.8489 9.01367 70.6498 8.65323C70.4541 8.29279 70.183 8.00101 69.8362 7.77788C69.493 7.55475 69.1016 7.44318 68.6622 7.44318ZM77.6488 17.1442C77.0446 17.1442 76.5005 17.024 76.0165 16.7837C75.5325 16.5434 75.1446 16.2139 74.8528 15.7951C74.561 15.3763 74.4014 14.8991 74.3739 14.3636H75.6097C75.6578 14.8408 75.8741 15.2356 76.2585 15.5479C76.6464 15.8569 77.1098 16.0114 77.6488 16.0114C78.0813 16.0114 78.4658 15.9101 78.8022 15.7076C79.142 15.505 79.4081 15.227 79.6003 14.8734C79.796 14.5164 79.8938 14.113 79.8938 13.6634C79.8938 13.2034 79.7926 12.7931 79.59 12.4327C79.3909 12.0688 79.1163 11.7822 78.7662 11.5728C78.416 11.3634 78.0161 11.257 77.5664 11.2536C77.2437 11.2501 76.9125 11.2999 76.5726 11.4029C76.2328 11.5024 75.953 11.6312 75.7333 11.7891L74.5387 11.6449L75.1772 6.45455H80.6559V7.58736H76.2482L75.8775 10.6974H75.9393C76.1555 10.5258 76.4267 10.3833 76.7528 10.2701C77.079 10.1568 77.4188 10.1001 77.7724 10.1001C78.4177 10.1001 78.9927 10.2546 79.4973 10.5636C80.0054 10.8691 80.4036 11.2879 80.6919 11.82C80.9837 12.352 81.1296 12.9596 81.1296 13.6428C81.1296 14.3156 80.9786 14.9163 80.6765 15.445C80.3778 15.9702 79.9659 16.3855 79.4407 16.6911C78.9155 16.9931 78.3182 17.1442 77.6488 17.1442ZM85.7909 11.7273C85.7909 13.0249 85.621 14.2195 85.2811 15.3111C84.9447 16.3993 84.4624 17.4016 83.8342 18.3182H82.7632C83.0103 17.9783 83.2403 17.5595 83.4532 17.0618C83.6694 16.5675 83.8582 16.0251 84.0196 15.4347C84.1809 14.8408 84.3062 14.228 84.3955 13.5964C84.4881 12.9614 84.5345 12.3383 84.5345 11.7273C84.5345 10.9103 84.4555 10.0813 84.2976 9.24023C84.1397 8.39921 83.9269 7.61825 83.6591 6.89737C83.3914 6.17649 83.0927 5.58949 82.7632 5.13636H83.8342C84.4624 6.05291 84.9447 7.057 85.2811 8.14861C85.621 9.2368 85.7909 10.4297 85.7909 11.7273ZM96.214 6.45455V17H94.9371V7.79332H94.8753L92.3007 9.50284V8.20526L94.9371 6.45455H96.214ZM99.2469 17V16.0732L102.728 12.2628C103.136 11.8165 103.473 11.4286 103.737 11.0991C104.001 10.7661 104.197 10.4537 104.324 10.1619C104.454 9.86671 104.52 9.55777 104.52 9.23509C104.52 8.86435 104.43 8.54338 104.252 8.27219C104.077 8.00101 103.836 7.79161 103.531 7.644C103.225 7.49639 102.882 7.42259 102.501 7.42259C102.096 7.42259 101.743 7.50669 101.44 7.67489C101.142 7.83967 100.91 8.07138 100.745 8.37003C100.584 8.66868 100.503 9.01882 100.503 9.42045H99.2881C99.2881 8.80256 99.4305 8.26018 99.7155 7.79332C100 7.32647 100.388 6.96259 100.879 6.7017C101.373 6.44081 101.928 6.31037 102.542 6.31037C103.16 6.31037 103.708 6.44081 104.185 6.7017C104.662 6.96259 105.036 7.31445 105.307 7.75728C105.579 8.20011 105.714 8.69271 105.714 9.23509C105.714 9.62299 105.644 10.0023 105.503 10.373C105.366 10.7404 105.126 11.1506 104.782 11.6037C104.442 12.0534 103.97 12.6026 103.366 13.2514L100.998 15.7848V15.8672H105.9V17H99.2469ZM111.589 17.1442C110.91 17.1442 110.304 17.0275 109.772 16.794C109.243 16.5606 108.823 16.2362 108.51 15.8208C108.201 15.402 108.033 14.9163 108.006 14.3636H109.303C109.331 14.7035 109.447 14.997 109.653 15.2441C109.859 15.4879 110.129 15.6767 110.462 15.8105C110.795 15.9444 111.164 16.0114 111.569 16.0114C112.022 16.0114 112.424 15.9324 112.774 15.7745C113.124 15.6166 113.398 15.3969 113.598 15.1154C113.797 14.8339 113.896 14.5078 113.896 14.1371C113.896 13.7492 113.8 13.4076 113.608 13.1124C113.416 12.8137 113.134 12.5803 112.763 12.4121C112.393 12.2439 111.94 12.1598 111.404 12.1598H110.56V11.027H111.404C111.823 11.027 112.19 10.9515 112.506 10.8004C112.825 10.6494 113.074 10.4366 113.253 10.1619C113.435 9.88731 113.525 9.56463 113.525 9.19389C113.525 8.83688 113.447 8.52622 113.289 8.2619C113.131 7.99757 112.908 7.79161 112.619 7.644C112.334 7.49639 111.998 7.42259 111.61 7.42259C111.246 7.42259 110.903 7.48952 110.58 7.6234C110.261 7.75385 110 7.94437 109.797 8.19496C109.595 8.44212 109.485 8.74077 109.468 9.09091H108.232C108.253 8.53823 108.419 8.05421 108.732 7.63885C109.044 7.22005 109.453 6.89394 109.957 6.66051C110.465 6.42708 111.023 6.31037 111.631 6.31037C112.283 6.31037 112.842 6.44253 113.309 6.70685C113.776 6.96774 114.135 7.31274 114.385 7.74183C114.636 8.17093 114.761 8.63435 114.761 9.1321C114.761 9.72597 114.605 10.2323 114.293 10.6511C113.984 11.0699 113.563 11.36 113.031 11.5213V11.6037C113.697 11.7135 114.217 11.9967 114.591 12.4533C114.966 12.9064 115.153 13.4677 115.153 14.1371C115.153 14.7103 114.996 15.2253 114.684 15.6818C114.375 16.1349 113.953 16.492 113.417 16.7528C112.882 17.0137 112.273 17.1442 111.589 17.1442ZM121.81 11.1609V12.2937H117.197V11.1609H121.81ZM123.681 14.8374V13.7869L128.315 6.45455H129.077V8.08168H128.562L125.061 13.6222V13.7045H131.302V14.8374H123.681ZM128.645 17V14.5181V14.0289V6.45455H129.86V17H128.645ZM136.527 17.1442C135.923 17.1442 135.378 17.024 134.894 16.7837C134.41 16.5434 134.023 16.2139 133.731 15.7951C133.439 15.3763 133.279 14.8991 133.252 14.3636H134.488C134.536 14.8408 134.752 15.2356 135.136 15.5479C135.524 15.8569 135.988 16.0114 136.527 16.0114C136.959 16.0114 137.344 15.9101 137.68 15.7076C138.02 15.505 138.286 15.227 138.478 14.8734C138.674 14.5164 138.772 14.113 138.772 13.6634C138.772 13.2034 138.67 12.7931 138.468 12.4327C138.269 12.0688 137.994 11.7822 137.644 11.5728C137.294 11.3634 136.894 11.257 136.444 11.2536C136.122 11.2501 135.79 11.2999 135.451 11.4029C135.111 11.5024 134.831 11.6312 134.611 11.7891L133.417 11.6449L134.055 6.45455H139.534V7.58736H135.126L134.755 10.6974H134.817C135.033 10.5258 135.305 10.3833 135.631 10.2701C135.957 10.1568 136.297 10.1001 136.65 10.1001C137.296 10.1001 137.871 10.2546 138.375 10.5636C138.883 10.8691 139.282 11.2879 139.57 11.82C139.862 12.352 140.008 12.9596 140.008 13.6428C140.008 14.3156 139.857 14.9163 139.554 15.445C139.256 15.9702 138.844 16.3855 138.319 16.6911C137.793 16.9931 137.196 17.1442 136.527 17.1442ZM146.605 11.1609V12.2937H141.991V11.1609H146.605ZM152.224 17.1442C151.791 17.1373 151.359 17.0549 150.926 16.897C150.494 16.7391 150.099 16.4731 149.742 16.0989C149.385 15.7213 149.098 15.2115 148.882 14.5696C148.666 13.9242 148.558 13.1141 148.558 12.1392C148.558 11.2055 148.645 10.3782 148.82 9.65732C148.995 8.933 149.249 8.32369 149.582 7.82937C149.915 7.33162 150.317 6.95401 150.787 6.69655C151.261 6.4391 151.795 6.31037 152.389 6.31037C152.979 6.31037 153.504 6.4288 153.964 6.66566C154.428 6.89909 154.805 7.2252 155.097 7.644C155.389 8.0628 155.578 8.5451 155.664 9.09091H154.407C154.29 8.61719 154.064 8.22414 153.727 7.91175C153.391 7.59937 152.945 7.44318 152.389 7.44318C151.572 7.44318 150.928 7.79847 150.458 8.50906C149.991 9.21964 149.756 10.2169 149.752 11.5007H149.835C150.027 11.2089 150.255 10.96 150.52 10.7541C150.787 10.5447 151.083 10.3833 151.405 10.2701C151.728 10.1568 152.069 10.1001 152.43 10.1001C153.034 10.1001 153.587 10.2512 154.088 10.5533C154.589 10.8519 154.991 11.2656 155.293 11.7942C155.595 12.3194 155.746 12.9219 155.746 13.6016C155.746 14.2538 155.6 14.8511 155.308 15.3935C155.016 15.9324 154.606 16.3615 154.078 16.6808C153.552 16.9966 152.934 17.151 152.224 17.1442ZM152.224 16.0114C152.656 16.0114 153.044 15.9032 153.388 15.687C153.734 15.4707 154.007 15.1806 154.206 14.8168C154.409 14.4529 154.51 14.0478 154.51 13.6016C154.51 13.1656 154.412 12.7691 154.217 12.4121C154.024 12.0517 153.758 11.765 153.419 11.5522C153.082 11.3394 152.698 11.233 152.265 11.233C151.939 11.233 151.635 11.2982 151.354 11.4286C151.072 11.5556 150.825 11.7307 150.612 11.9538C150.403 12.177 150.238 12.4327 150.118 12.7211C149.998 13.006 149.938 13.3063 149.938 13.6222C149.938 14.041 150.036 14.4323 150.231 14.7962C150.43 15.16 150.701 15.4535 151.045 15.6767C151.391 15.8998 151.785 16.0114 152.224 16.0114ZM158.1 17L162.817 7.66974V7.58736H157.379V6.45455H164.135V7.64915L159.439 17H158.1Z" fill="white"/>
</svg>
