<svg width="20" height="30" viewBox="0 0 20 30" fill="none" xmlns="http://www.w3.org/2000/svg">
<path d="M9.6875 4.2959C15.0391 4.2959 19.375 8.63184 19.375 13.9834C19.375 19.335 15.0391 23.6709 9.6875 23.6709C4.33594 23.6709 0 19.335 0 13.9834C0 8.63184 4.33594 4.2959 9.6875 4.2959ZM14.4141 10.9365C14.5703 10.3115 14.1797 10.0381 13.75 10.1943L4.41406 13.7881C3.78906 14.0225 3.78906 14.4131 4.29688 14.5693L6.67969 15.3115L12.2266 11.7959C12.5 11.6396 12.7344 11.7568 12.5391 11.9131L8.04688 15.9756L7.89062 18.4365C8.125 18.4365 8.24219 18.3193 8.35938 18.2021L9.53125 17.0693L11.9531 18.8662C12.4219 19.1006 12.7344 18.9834 12.8516 18.4365L14.4141 10.9365Z" fill="white"/>
</svg>
