<svg width="20" height="29" viewBox="0 0 20 29" fill="none" xmlns="http://www.w3.org/2000/svg">
<path d="M9.6875 3.8125C15.0391 3.8125 19.375 8.14844 19.375 13.5C19.375 18.8516 15.0391 23.1875 9.6875 23.1875C4.33594 23.1875 0 18.8516 0 13.5C0 8.14844 4.33594 3.8125 9.6875 3.8125ZM14.4141 10.4531C14.5703 9.82812 14.1797 9.55469 13.75 9.71094L4.41406 13.3047C3.78906 13.5391 3.78906 13.9297 4.29688 14.0859L6.67969 14.8281L12.2266 11.3125C12.5 11.1562 12.7344 11.2734 12.5391 11.4297L8.04688 15.4922L7.89062 17.9531C8.125 17.9531 8.24219 17.8359 8.35938 17.7188L9.53125 16.5859L11.9531 18.3828C12.4219 18.6172 12.7344 18.5 12.8516 17.9531L14.4141 10.4531Z" fill="white"/>
</svg>
