<svg width="22" height="29" viewBox="0 0 22 29" fill="none" xmlns="http://www.w3.org/2000/svg">
<path d="M21.2891 8.10938C20.9766 9.4375 18.1641 13.4219 18.1641 13.4219C17.9297 13.8125 17.8125 14.0078 18.1641 14.4375C18.3203 14.6328 21.25 17.4453 21.6797 18.7734C21.875 19.4375 21.5625 19.75 20.8984 19.75H18.5938C17.7344 19.75 17.4609 19.0859 15.8984 17.5234C14.5312 16.1953 13.9453 16 13.5938 16C12.8906 16 13.0078 16.2734 13.0078 18.8906C13.0078 19.4375 12.8125 19.75 11.3672 19.75C8.94531 19.75 6.25 18.3047 4.33594 15.5703C1.48438 11.5469 0.703125 8.53906 0.703125 7.91406C0.703125 7.5625 0.859375 7.25 1.48438 7.25H3.78906C4.375 7.25 4.60938 7.52344 4.84375 8.14844C5.97656 11.4297 7.85156 14.3203 8.63281 14.3203C8.94531 14.3203 9.0625 14.1641 9.0625 13.4219V10.0234C8.98438 8.46094 8.16406 8.34375 8.16406 7.79688C8.16406 7.52344 8.35938 7.25 8.75 7.25H12.3438C12.8516 7.25 13.0078 7.52344 13.0078 8.10938V12.6797C13.0078 13.1484 13.2422 13.3438 13.3594 13.3438C13.6719 13.3438 13.9062 13.1484 14.4531 12.6406C16.0938 10.7656 17.2656 7.91406 17.2656 7.91406C17.4219 7.5625 17.6953 7.25 18.2812 7.25H20.5859C21.2891 7.25 21.4062 7.64062 21.2891 8.10938Z" fill="white"/>
</svg>
