<svg width="23" height="30" viewBox="0 0 23 30" fill="none" xmlns="http://www.w3.org/2000/svg">
<path d="M22.1689 8.59277C21.8564 9.9209 19.0439 13.9053 19.0439 13.9053C18.8096 14.2959 18.6924 14.4912 19.0439 14.9209C19.2002 15.1162 22.1299 17.9287 22.5596 19.2568C22.7549 19.9209 22.4424 20.2334 21.7783 20.2334H19.4736C18.6143 20.2334 18.3408 19.5693 16.7783 18.0068C15.4111 16.6787 14.8252 16.4834 14.4736 16.4834C13.7705 16.4834 13.8877 16.7568 13.8877 19.374C13.8877 19.9209 13.6924 20.2334 12.2471 20.2334C9.8252 20.2334 7.12988 18.7881 5.21582 16.0537C2.36426 12.0303 1.58301 9.02246 1.58301 8.39746C1.58301 8.0459 1.73926 7.7334 2.36426 7.7334H4.66895C5.25488 7.7334 5.48926 8.00684 5.72363 8.63184C6.85645 11.9131 8.73145 14.8037 9.5127 14.8037C9.8252 14.8037 9.94238 14.6475 9.94238 13.9053V10.5068C9.86426 8.94434 9.04395 8.82715 9.04395 8.28027C9.04395 8.00684 9.23926 7.7334 9.62988 7.7334H13.2236C13.7314 7.7334 13.8877 8.00684 13.8877 8.59277V13.1631C13.8877 13.6318 14.1221 13.8271 14.2393 13.8271C14.5518 13.8271 14.7861 13.6318 15.333 13.124C16.9736 11.249 18.1455 8.39746 18.1455 8.39746C18.3018 8.0459 18.5752 7.7334 19.1611 7.7334H21.4658C22.1689 7.7334 22.2861 8.12402 22.1689 8.59277Z" fill="white"/>
</svg>
