<svg width="18" height="29" viewBox="0 0 18 29" fill="none" xmlns="http://www.w3.org/2000/svg">
<path d="M14.8438 7.32812C16.4844 8.96875 17.5 11.1172 17.5 13.4609C17.5 18.2266 13.5156 22.1328 8.71094 22.1328C7.26562 22.1328 5.85938 21.7422 4.57031 21.0781L0 22.25L1.21094 17.7578C0.46875 16.4688 0.0390625 14.9844 0.0390625 13.4219C0.0390625 8.65625 3.94531 4.75 8.71094 4.75C11.0547 4.75 13.2422 5.6875 14.8438 7.32812ZM8.71094 20.6484C12.6953 20.6484 16.0156 17.4062 16.0156 13.4609C16.0156 11.5078 15.1953 9.71094 13.8281 8.34375C12.4609 6.97656 10.6641 6.23438 8.75 6.23438C4.76562 6.23438 1.52344 9.47656 1.52344 13.4219C1.52344 14.7891 1.91406 16.1172 2.61719 17.2891L2.8125 17.5625L2.07031 20.2188L4.80469 19.4766L5.03906 19.6328C6.17188 20.2969 7.42188 20.6484 8.71094 20.6484ZM12.6953 15.2578C12.8906 15.375 13.0469 15.4141 13.0859 15.5312C13.1641 15.6094 13.1641 16.0391 12.9688 16.5469C12.7734 17.0547 11.9141 17.5234 11.5234 17.5625C10.8203 17.6797 10.2734 17.6406 8.90625 17.0156C6.71875 16.0781 5.3125 13.8906 5.19531 13.7734C5.07812 13.6172 4.33594 12.6016 4.33594 11.5078C4.33594 10.4531 4.88281 9.94531 5.07812 9.71094C5.27344 9.47656 5.50781 9.4375 5.66406 9.4375C5.78125 9.4375 5.9375 9.4375 6.05469 9.4375C6.21094 9.4375 6.36719 9.39844 6.5625 9.82812C6.71875 10.2578 7.1875 11.3125 7.22656 11.4297C7.26562 11.5469 7.30469 11.6641 7.22656 11.8203C6.83594 12.6406 6.36719 12.6016 6.60156 12.9922C7.46094 14.4375 8.28125 14.9453 9.57031 15.5703C9.76562 15.6875 9.88281 15.6484 10.0391 15.5312C10.1562 15.375 10.5859 14.8672 10.7031 14.6719C10.8594 14.4375 11.0156 14.4766 11.2109 14.5547C11.4062 14.6328 12.4609 15.1406 12.6953 15.2578Z" fill="white"/>
</svg>
