<svg width="18" height="30" viewBox="0 0 18 30" fill="none" xmlns="http://www.w3.org/2000/svg">
<path d="M15.2236 7.81152C16.8643 9.45215 17.8799 11.6006 17.8799 13.9443C17.8799 18.71 13.8955 22.6162 9.09082 22.6162C7.64551 22.6162 6.23926 22.2256 4.9502 21.5615L0.379883 22.7334L1.59082 18.2412C0.848633 16.9521 0.418945 15.4678 0.418945 13.9053C0.418945 9.13965 4.3252 5.2334 9.09082 5.2334C11.4346 5.2334 13.6221 6.1709 15.2236 7.81152ZM9.09082 21.1318C13.0752 21.1318 16.3955 17.8896 16.3955 13.9443C16.3955 11.9912 15.5752 10.1943 14.208 8.82715C12.8408 7.45996 11.0439 6.71777 9.12988 6.71777C5.14551 6.71777 1.90332 9.95996 1.90332 13.9053C1.90332 15.2725 2.29395 16.6006 2.99707 17.7725L3.19238 18.0459L2.4502 20.7021L5.18457 19.96L5.41895 20.1162C6.55176 20.7803 7.80176 21.1318 9.09082 21.1318ZM13.0752 15.7412C13.2705 15.8584 13.4268 15.8975 13.4658 16.0146C13.5439 16.0928 13.5439 16.5225 13.3486 17.0303C13.1533 17.5381 12.2939 18.0068 11.9033 18.0459C11.2002 18.1631 10.6533 18.124 9.28613 17.499C7.09863 16.5615 5.69238 14.374 5.5752 14.2568C5.45801 14.1006 4.71582 13.085 4.71582 11.9912C4.71582 10.9365 5.2627 10.4287 5.45801 10.1943C5.65332 9.95996 5.8877 9.9209 6.04395 9.9209C6.16113 9.9209 6.31738 9.9209 6.43457 9.9209C6.59082 9.9209 6.74707 9.88184 6.94238 10.3115C7.09863 10.7412 7.56738 11.7959 7.60645 11.9131C7.64551 12.0303 7.68457 12.1475 7.60645 12.3037C7.21582 13.124 6.74707 13.085 6.98145 13.4756C7.84082 14.9209 8.66113 15.4287 9.9502 16.0537C10.1455 16.1709 10.2627 16.1318 10.4189 16.0146C10.5361 15.8584 10.9658 15.3506 11.083 15.1553C11.2393 14.9209 11.3955 14.96 11.5908 15.0381C11.7861 15.1162 12.8408 15.624 13.0752 15.7412Z" fill="white"/>
</svg>
