<svg width="23" height="30" viewBox="0 0 23 30" fill="none" xmlns="http://www.w3.org/2000/svg">
<path d="M21.8252 8.86621C22.2939 10.5068 22.2939 14.0225 22.2939 14.0225C22.2939 14.0225 22.2939 17.499 21.8252 19.1787C21.5908 20.1162 20.8486 20.8193 19.9502 21.0537C18.2705 21.4834 11.6299 21.4834 11.6299 21.4834C11.6299 21.4834 4.9502 21.4834 3.27051 21.0537C2.37207 20.8193 1.62988 20.1162 1.39551 19.1787C0.926758 17.499 0.926758 14.0225 0.926758 14.0225C0.926758 14.0225 0.926758 10.5068 1.39551 8.86621C1.62988 7.92871 2.37207 7.18652 3.27051 6.95215C4.9502 6.4834 11.6299 6.4834 11.6299 6.4834C11.6299 6.4834 18.2705 6.4834 19.9502 6.95215C20.8486 7.18652 21.5908 7.92871 21.8252 8.86621ZM9.44238 17.1865L14.9893 14.0225L9.44238 10.8584V17.1865Z" fill="white"/>
</svg>
