<svg width="23" height="29" viewBox="0 0 23 29" fill="none" xmlns="http://www.w3.org/2000/svg">
<path d="M21.4453 8.38281C21.9141 10.0234 21.9141 13.5391 21.9141 13.5391C21.9141 13.5391 21.9141 17.0156 21.4453 18.6953C21.2109 19.6328 20.4688 20.3359 19.5703 20.5703C17.8906 21 11.25 21 11.25 21C11.25 21 4.57031 21 2.89062 20.5703C1.99219 20.3359 1.25 19.6328 1.01562 18.6953C0.546875 17.0156 0.546875 13.5391 0.546875 13.5391C0.546875 13.5391 0.546875 10.0234 1.01562 8.38281C1.25 7.44531 1.99219 6.70312 2.89062 6.46875C4.57031 6 11.25 6 11.25 6C11.25 6 17.8906 6 19.5703 6.46875C20.4688 6.70312 21.2109 7.44531 21.4453 8.38281ZM9.0625 16.7031L14.6094 13.5391L9.0625 10.375V16.7031Z" fill="white"/>
</svg>
