<svg width="34" height="30" viewBox="0 0 34 30" fill="none" xmlns="http://www.w3.org/2000/svg">
<path d="M7.45493 2.5498C7.45505 1.03731 7.63343 0.540264 8.29439 0.210021C8.68161 0.0164598 9.34161 0.000139655 16.7851 1.96542e-05C25.4165 -0.000220348 25.3313 -0.00585973 25.868 0.595465C26.075 0.827426 26.1133 1.06803 26.1477 2.35204L26.1874 3.83981H29.4673H32.7471L33.1126 4.14749C33.3137 4.31681 33.5335 4.65425 33.601 4.8975C33.7543 5.44974 33.7557 7.92116 33.6034 9.11985C33.1685 12.5407 29.0784 15.9075 24.4029 16.693L23.5888 16.8297L23.109 17.5591C22.5387 18.4263 20.8595 20.2221 20.1756 20.6961L19.6902 21.0326V23.1639V25.2952L21.6395 25.3416C23.3493 25.3822 23.6625 25.4214 24.1886 25.6601C25.4868 26.2493 26.1648 27.3127 26.1667 28.7632C26.1678 29.5199 26.135 29.6495 25.9012 29.8132C25.6659 29.9782 24.6004 30 16.7845 30H7.93452L7.67853 29.7439C7.44881 29.5141 7.42938 29.3966 7.4896 28.6003C7.60056 27.1326 8.21893 26.2152 9.48783 25.6363C9.95398 25.4235 10.3274 25.3804 12.043 25.3414L14.0523 25.2957V23.2225V21.1491L13.4169 20.6587C12.5466 19.987 11.2147 18.5836 10.5329 17.6199C10.0234 16.8996 9.91643 16.8119 9.4606 16.7409C5.2794 16.0883 1.49562 13.4419 0.346795 10.3665C0.1124 9.73929 0.0780918 9.37965 0.0413851 7.16659L0 4.67322L0.416489 4.25657L0.833098 3.83981H4.14389H7.45469L7.45493 2.5498Z" fill="#E6512E"/>
</svg>
