<svg width="35" height="34" viewBox="0 0 35 34" fill="none" xmlns="http://www.w3.org/2000/svg">
<path d="M0.0403927 4.14375L2.12563 2.05458C3.27264 0.905544 4.27913 -0.0178948 4.36234 0.00248928C4.44569 0.0228734 6.37095 1.42472 8.6407 3.1177L12.7677 6.19584L12.7733 8.31729L12.779 10.4388L16.3265 13.9771L19.8741 17.5155L20.5923 17.2774C21.5953 16.9448 23.3018 17.0388 24.2314 17.4776C25.1188 17.8963 33.5108 26.1507 33.903 26.9904C34.2081 27.6435 34.2351 28.4092 33.9745 29.0127C33.6736 29.7095 29.543 33.6927 28.9107 33.8955C28.1986 34.1242 27.3124 33.9701 26.6704 33.5059C25.9692 32.9991 18.1942 25.0569 17.8579 24.5042C17.1914 23.4083 17.0122 21.9587 17.3728 20.5772L17.5798 19.784L14.1302 16.2391L10.6807 12.6941H8.57792H6.47514L3.2577 8.41894L0.0403927 4.14375Z" fill="#E6512E"/>
<path d="M15.0258 8.72676C15.3891 4.6866 18.0178 1.48793 21.9638 0.284031C22.8535 0.0126077 23.2319 -0.024056 24.7741 0.01124C26.8566 0.0589854 27.3568 0.219723 27.4176 0.861345C27.4524 1.22867 27.1947 1.53143 24.9157 3.80036C22.9617 5.74575 22.3754 6.40912 22.3765 6.67329C22.3771 6.86208 22.5308 7.90934 22.7178 9.00037C22.9048 10.0914 23.0585 10.9898 23.0591 10.9968C23.06 11.0038 24.0807 11.1841 25.3277 11.3973L27.5947 11.7853L30.2499 9.1484C32.5752 6.83884 32.9449 6.52308 33.2264 6.6068C33.7095 6.75045 33.8537 7.01422 34.0349 8.08664C34.4878 10.766 33.6083 13.6604 31.6618 15.8964C31.03 16.6221 28.905 18.1664 28.5381 18.1664C28.4386 18.1664 27.8594 17.6822 27.251 17.0905C25.512 15.3992 24.1168 14.8391 21.8153 14.9089L20.5016 14.9487L17.7237 12.2823L14.9458 9.616L15.0258 8.72676Z" fill="#E6512E"/>
<path d="M0.237114 28.2688C0.458236 27.5892 0.858393 27.1536 5.90335 22.0996C8.88897 19.1087 11.3652 16.6615 11.4062 16.6615C11.4472 16.6615 12.2812 17.4622 13.2597 18.441L15.0389 20.2204L15.0537 21.7585C15.063 22.7283 15.1456 23.5322 15.2774 23.934L15.4864 24.5714L11.014 29.0114C5.98615 34.0027 6.03399 33.9682 4.14246 33.9667C3.33364 33.9661 2.97023 33.8954 2.43943 33.6353C0.441383 32.6562 -0.468886 30.4382 0.237114 28.2688Z" fill="#E6512E"/>
</svg>
