<svg width="34" height="20" viewBox="0 0 34 20" fill="none" xmlns="http://www.w3.org/2000/svg">
<path d="M8.28269 1.75194C9.12296 0.920968 9.90705 0.188571 10.025 0.12446C10.1616 0.0501825 11.1152 0.00779943 12.6519 0.00779943L15.0643 0.00769338L14.689 0.342372C13.0216 1.82964 10.5763 4.133 10.3488 4.43065C9.22257 5.90465 9.51409 8.39456 10.9451 9.52372C11.7631 10.1692 12.529 10.4133 13.5632 10.3583C14.6728 10.2992 15.238 10.0144 16.5135 8.87159L17.4791 8.00637L18.2552 8.63099C22.9166 12.3826 25.4985 14.5263 25.6611 14.7803C25.8891 15.1365 25.9217 15.9164 25.724 16.2869C25.4213 16.8538 24.9037 17.4447 24.5161 17.6655C24.0005 17.9593 23.2216 17.9168 22.7812 17.5709C22.6194 17.4439 22.4506 17.34 22.406 17.34C22.3615 17.34 21.9508 17.8096 21.4933 18.3835C20.5135 19.6129 20.3473 19.7625 19.7896 19.9174C19.0676 20.1177 18.5535 19.9664 17.773 19.3238L17.0728 18.7472L16.7688 19.064C16.6015 19.2383 16.1978 19.5116 15.8717 19.6715C15.3867 19.9093 15.1324 19.9622 14.4746 19.9622C13.2458 19.9622 12.8889 19.7357 10.0894 17.1788C7.73554 15.0291 7.6785 14.9854 7.22132 14.9854H6.75481V9.12418V3.26297L8.28269 1.75194Z" fill="#E6512E"/>
<path d="M11.6485 5.50522C11.8387 5.21538 17.1894 0.326425 17.5303 0.130883C17.8226 -0.0367236 23.0787 -0.0465705 23.4077 0.119966C23.5364 0.185147 24.3293 0.919042 25.1697 1.75076L26.6976 3.26297V8.28893V13.3149L26.3491 12.9887C26.1575 12.8092 24.3734 11.3528 22.3845 9.75222L18.7684 6.84201L19.57 6.0698C20.1907 5.47193 20.3716 5.23026 20.3716 4.99929C20.3716 4.59462 19.9372 4.17549 19.5179 4.17549C19.1719 4.17549 18.9467 4.3613 16.0293 7.05456C15.3216 7.70787 14.5464 8.3388 14.3067 8.45653C13.1162 9.04134 11.6698 8.36534 11.3827 7.08988C11.268 6.58011 11.3795 5.91503 11.6485 5.50522Z" fill="#E6512E"/>
<path d="M0 10.0328C0 6.41892 0.032169 3.42983 0.0715185 3.39065C0.110761 3.35138 1.2446 3.31927 2.59116 3.31927H5.0393V9.32346C5.0393 15.9589 5.05474 15.8011 4.35599 16.2986C4.04259 16.5218 3.8897 16.5394 2.01036 16.5706L0 16.6038V10.0328Z" fill="#E6512E"/>
<path d="M28.4356 9.53506C28.4184 6.2725 28.4289 3.53921 28.459 3.46119C28.5022 3.34902 29.0308 3.31927 30.983 3.31927H33.4524V10.017V16.7149L31.4956 16.6795C29.3098 16.6402 29.1723 16.5996 28.7099 15.8573L28.4667 15.467L28.4356 9.53506Z" fill="#E6512E"/>
</svg>
