<svg width="34" height="36" viewBox="0 0 34 36" fill="none" xmlns="http://www.w3.org/2000/svg">
<path fill-rule="evenodd" clip-rule="evenodd" d="M8.67524 3.01977C3.72061 5.09464 1.32558 6.16937 1.02133 6.45431C0.176191 7.24612 -0.0326717 7.95451 0.00394778 9.90519C0.201374 20.4241 5.57517 30.1941 13.7151 34.8328C15.0957 35.6194 16.1407 36 16.9203 36C18.5144 36 22.498 33.5007 25.1816 30.8169C29.8559 26.1422 32.7273 20.0411 33.5469 13.0425C33.8509 10.4465 33.8282 8.33038 33.488 7.58252C32.9341 6.36424 32.4698 6.11314 25.0049 2.99506C18.3432 0.212382 18.0126 0.0910826 16.9718 0.0465552L15.8862 0L8.67524 3.01977ZM16.8916 31.3738C16.8561 31.3738 16.8271 25.349 16.8271 17.9855V4.59702L17.1527 4.68102C17.3319 4.72728 20.1163 5.86837 23.3404 7.21692L29.2024 9.66868L29.1652 10.7266C28.9048 18.1198 25.2626 25.4719 19.8617 29.5065C18.9106 30.2171 17.0708 31.3738 16.8916 31.3738Z" fill="#E6512E"/>
</svg>
