<svg width="42" height="33" viewBox="0 0 42 33" fill="none" xmlns="http://www.w3.org/2000/svg">
<path d="M31.2857 3.32086C31.2857 2.06138 31.5171 0.797583 31.8 0.512418C32.9554 -0.652438 34.158 0.0250449 38.064 4.04025C40.2287 6.26584 42 8.33371 42 8.6353C42 9.60356 34.2047 17.2767 33.2211 17.2767C31.7627 17.2767 31.2857 16.4039 31.2857 13.7337V11.2277H16.1237C-0.716139 11.2277 -0.165001 11.3266 0.0792847 8.35143C0.300856 5.65662 0.497999 5.62421 16.8214 5.6173L31.2857 5.61082V3.32086Z" fill="#E6512E"/>
<path d="M0 24.3863C0 23.819 1.48757 22.0139 4.01357 19.5165C6.22114 17.3341 8.20329 15.5484 8.41843 15.5484C8.63315 15.5484 9.23785 15.8513 9.76156 16.2211C10.5476 16.7759 10.7143 17.3047 10.7143 19.2456V21.5973H25.6899H40.6658L41.3327 22.5578C42.243 23.8674 42.1706 25.314 41.1429 26.3501C40.3187 27.181 39.7144 27.2142 25.5 27.2142H10.7143V29.566C10.7143 31.4705 10.542 32.0396 9.80786 32.558C9.30943 32.9102 8.58643 33.0891 8.20072 32.956C6.867 32.495 0 25.3192 0 24.3863Z" fill="#E6512E"/>
</svg>
