<svg width="42" height="37" viewBox="0 0 42 37" fill="none" xmlns="http://www.w3.org/2000/svg">
<path fill-rule="evenodd" clip-rule="evenodd" d="M18.863 0.0104903C17.8519 0.0468622 15.5061 0.284266 14.3393 0.46818C10.9523 1.00221 8.19798 1.83003 5.67597 3.07198C2.67317 4.55074 0.977804 6.16839 0.295237 8.20616C0.0891951 8.8214 0.0698174 8.98195 0.1043 9.78941C0.166181 11.2422 0.655169 12.2345 1.96312 13.5614C3.99341 15.621 7.51003 17.3103 11.8214 18.2971C18.0662 19.7265 24.6836 19.731 30.4409 18.3099C35.912 16.9595 39.9526 14.5258 41.3682 11.7282C41.6443 11.1826 41.9083 10.1303 41.9083 9.57546C41.9083 8.90185 41.6051 7.85545 41.2027 7.13965C40.7085 6.26082 39.4008 4.94766 38.2808 4.20559C34.2977 1.56653 28.3139 0.0838355 21.3382 0.00749723C20.3289 -0.00354273 19.2151 -0.00226131 18.863 0.0104903ZM20.0749 0.182423C20.4833 0.198084 21.1747 0.198171 21.6113 0.182595C22.0479 0.167019 21.7138 0.154182 20.8688 0.154096C20.0238 0.15401 19.6666 0.166762 20.0749 0.182423ZM13.6351 0.774473C13.6939 0.798264 13.7899 0.798264 13.8485 0.774473C13.9072 0.750767 13.8592 0.73134 13.7418 0.73134C13.6245 0.73134 13.5765 0.750767 13.6351 0.774473ZM13.123 0.860054C13.1817 0.883845 13.2778 0.883845 13.3364 0.860054C13.3951 0.836348 13.3471 0.816921 13.2297 0.816921C13.1123 0.816921 13.0644 0.836348 13.123 0.860054ZM6.40147 2.85735C6.33105 2.90296 6.31185 2.94027 6.35879 2.94027C6.40574 2.94027 6.50176 2.90296 6.57217 2.85735C6.64259 2.81173 6.66179 2.77442 6.61485 2.77442C6.56791 2.77442 6.47188 2.81173 6.40147 2.85735ZM3.02192 4.84711L2.85932 5.03966L3.05137 4.87663C3.2318 4.72344 3.28225 4.65455 3.21396 4.65455C3.19775 4.65455 3.11137 4.74116 3.02192 4.84711ZM1.69613 6.08803C1.59004 6.22376 1.59303 6.22676 1.7284 6.12038C1.81051 6.05577 1.87776 5.98833 1.87776 5.97061C1.87776 5.90018 1.80769 5.94545 1.69613 6.08803ZM0 15.6794C0 17.3765 0.370687 18.8688 1.11206 20.156C1.60122 21.0054 3.02183 22.42 4.09643 23.1276C7.31124 25.2448 11.5443 26.525 17.1986 27.0907C18.8848 27.2592 23.8562 27.234 25.5205 27.0484C30.0745 26.5403 33.6191 25.5436 36.4884 23.9644C39.4202 22.3507 41.143 20.4411 41.749 18.1336C41.9407 17.4036 42.0883 14.8387 41.9386 14.8387C41.8969 14.8387 41.7377 15.0485 41.5847 15.3049C40.1415 17.7243 37.0532 19.8264 33.0329 21.1256C29.1432 22.3827 23.5974 23.0577 19.1818 22.8116C13.4849 22.4939 9.53247 21.5945 5.76132 19.7578C4.26816 19.0305 3.2312 18.3621 2.21875 17.4742C1.50324 16.8466 0.5699 15.7122 0.247096 15.0779C0.15628 14.8993 0.0634181 14.7531 0.0409703 14.7531C0.0184372 14.7531 0 15.17 0 15.6794ZM41.8396 15.6517C41.8413 15.7929 41.8604 15.8403 41.8821 15.7571C41.9038 15.6738 41.9023 15.5583 41.8789 15.5003C41.8555 15.4424 41.8379 15.5105 41.8396 15.6517ZM0.512118 15.9512C0.512118 15.9983 0.55283 16.0368 0.602505 16.0368C0.652181 16.0368 0.669167 15.9983 0.640147 15.9512C0.611127 15.9042 0.5705 15.8657 0.549759 15.8657C0.529018 15.8657 0.512118 15.9042 0.512118 15.9512ZM0.0339713 24.6591C0.087829 27.1057 0.341071 28.2029 1.16934 29.5796C1.93538 30.8528 2.82791 31.7436 4.39568 32.7998C9.95906 36.5474 19.7897 37.979 28.5024 36.3102C33.0923 35.431 37.2514 33.5256 39.4985 31.2725C40.6156 30.1524 41.3152 28.9377 41.7173 27.4201C41.909 26.6967 41.9368 26.3989 41.9664 24.7447C41.9864 23.6274 41.9679 22.8833 41.9201 22.8833C41.8764 22.8833 41.6567 23.1817 41.4321 23.5466C40.8512 24.4898 39.1329 26.1936 38.0247 26.9252C35.3457 28.6938 32.3205 29.792 28.2091 30.4885C24.3387 31.1442 20.4045 31.2454 16.2731 30.7954C9.19422 30.0245 3.72429 27.6913 1.03081 24.2941C0.769029 23.9639 0.458858 23.5114 0.341584 23.2885C0.224309 23.0657 0.0983253 22.8833 0.0616235 22.8833C0.0249218 22.8833 0.0124624 23.6824 0.0339713 24.6591ZM41.7067 23.4396C41.6797 23.5102 41.6948 23.568 41.7402 23.568C41.7857 23.568 41.8229 23.5102 41.8229 23.4396C41.8229 23.369 41.8078 23.3112 41.7894 23.3112C41.7709 23.3112 41.7337 23.369 41.7067 23.4396ZM23.1147 27.0497C23.1762 27.0744 23.2499 27.0713 23.2782 27.0429C23.3066 27.0145 23.2562 26.9943 23.1662 26.998C23.0668 27.0021 23.0466 27.0224 23.1147 27.0497ZM33.0156 29.5315C33.0772 29.5562 33.1508 29.5532 33.1792 29.5247C33.2075 29.4963 33.1571 29.4761 33.0672 29.4798C32.9677 29.4839 32.9475 29.5042 33.0156 29.5315ZM30.199 30.3017C30.2605 30.3265 30.3342 30.3234 30.3625 30.295C30.3908 30.2666 30.3405 30.2464 30.2505 30.25C30.1511 30.2542 30.1309 30.2744 30.199 30.3017ZM26.8648 30.899C26.9236 30.9228 27.0196 30.9228 27.0782 30.899C27.1369 30.8753 27.0889 30.8559 26.9715 30.8559C26.8542 30.8559 26.8062 30.8753 26.8648 30.899ZM38.91 31.5912C38.8039 31.7269 38.8069 31.7299 38.9423 31.6235C39.0845 31.5117 39.1296 31.4414 39.0594 31.4414C39.0417 31.4414 38.9744 31.5089 38.91 31.5912ZM19.0977 36.8079C19.2034 36.8282 19.3761 36.8282 19.4818 36.8079C19.5875 36.7874 19.501 36.7707 19.2898 36.7707C19.0785 36.7707 18.992 36.7874 19.0977 36.8079Z" fill="#E6512E"/>
</svg>
