<svg width="42" height="32" viewBox="0 0 42 32" fill="none" xmlns="http://www.w3.org/2000/svg">
<path fill-rule="evenodd" clip-rule="evenodd" d="M13.9087 0.350281C10.4741 1.19103 8.38597 3.15582 6.77678 7.06071L5.78178 9.47467H3.08675C1.60462 9.47467 0.28401 9.64967 0.152639 9.86321C-0.353033 10.6862 0.480843 13.0226 1.43619 13.4606C2.35622 13.882 2.37648 13.9847 1.80577 15.3582C1.00763 17.2788 1.03347 21.917 1.85099 23.4933C2.20504 24.1759 2.4945 25.7968 2.4945 27.0954C2.4945 29.4093 3.01483 31.0332 3.95898 31.6673C4.83034 32.2525 8.73312 32.0203 9.72077 31.3243C10.4659 30.7997 10.6783 30.2232 10.6783 28.7253V26.8008H21.0157H31.3531V28.5334C31.3531 31.0639 32.4571 31.9987 35.445 31.9987C38.7508 31.9987 39.5318 31.1545 39.552 27.5589C39.5606 26.0337 39.8363 24.3786 40.183 23.7688C40.9626 22.3974 41.0199 16.591 40.2687 15.1057C39.7859 14.151 39.8212 13.9712 40.5681 13.5896C41.4455 13.1409 42.2673 10.9647 41.9175 10.0161C41.7866 9.66136 40.7804 9.47467 39.0002 9.47467H36.2828L35.0587 6.64834C33.5382 3.13936 31.2674 1.05069 28.2691 0.403992C25.9044 -0.10583 15.925 -0.143515 13.9087 0.350281ZM9.23279 21.0871C6.11649 21.2868 4.69251 19.6161 5.95539 17.2429C7.03953 15.2057 11.7335 17.4057 11.4553 19.8201C11.3368 20.8467 11.1276 20.9658 9.23279 21.0871ZM31.7507 17.6712C30.368 19.0617 30.1118 20.4976 31.1731 20.9069C32.5945 21.4553 35.0961 21.1698 35.809 20.3776C36.6428 19.4511 36.7441 17.6682 36.005 16.9249C35.0664 15.9811 33.0859 16.3285 31.7507 17.6712ZM11.109 11.653C11.109 10.4423 13.2506 6.57644 14.1659 6.13462C14.7767 5.83964 17.5501 5.62307 20.9296 5.60574C28.4608 5.56719 28.9751 5.84008 30.8841 10.8889L31.3316 12.0736H21.2203C14.9644 12.0736 11.109 11.9133 11.109 11.653Z" fill="#E6512E"/>
</svg>
