<svg width="42" height="29" viewBox="0 0 42 29" fill="none" xmlns="http://www.w3.org/2000/svg">
<path fill-rule="evenodd" clip-rule="evenodd" d="M28.5091 0.307011C27.0073 0.558974 23.9355 1.23338 21.6828 1.80549C13.0491 3.99815 8.11982 4.44241 4.06565 3.39296C1.76995 2.79869 0.871264 3.05815 0.33403 4.46901C-0.171803 5.79838 -0.0765764 25.7195 0.440861 26.728C1.64844 29.0826 10.1916 29.7526 17.2456 28.0461C29.6198 25.0522 32.8094 24.6885 37.6646 25.7178C40.2197 26.2596 40.8297 26.0969 41.5594 24.6792C42.0765 23.6751 42.1717 4.0926 41.6662 2.76425C41.2843 1.76083 40.4375 1.2569 38.0817 0.630917C35.4498 -0.0687159 31.5356 -0.201007 28.5091 0.307011ZM16.1162 15.0491C15.9155 11.8997 17.3074 9.41894 19.6837 8.69067C23.9798 7.37426 27.6295 13.3757 25.1703 17.7129C23.6255 20.4382 20.9534 21.3332 18.7782 19.8541C16.9002 18.5772 16.2684 17.4368 16.1162 15.0491ZM3.42227 23.4624V24.9858L5.14729 25.399C7.13239 25.8746 7.42763 25.728 6.98426 24.4852C6.64158 23.5238 5.43468 22.5197 4.19024 22.1606C3.47517 21.9544 3.42227 22.0444 3.42227 23.4624ZM5.363 9.72784C3.66392 10.7626 3.42227 10.6177 3.42227 8.56418V6.73531L5.21419 7.0599C6.19957 7.23821 7.05696 7.43426 7.11908 7.49563C7.40647 7.77828 6.34224 9.13118 5.363 9.72784ZM35.1648 4.11919C35.1648 4.82701 37.3233 6.98318 38.0319 6.98318C38.4404 6.98318 38.578 6.64359 38.578 5.6354C38.578 4.36842 38.5012 4.26648 37.298 3.93269C35.5519 3.4482 35.1648 3.48195 35.1648 4.11919ZM35.713 20.892C35.999 20.3396 36.7222 19.6816 37.3202 19.4293L38.4073 18.9704L38.5128 20.5145C38.5708 21.3635 38.5575 22.119 38.4834 22.1934C38.409 22.2674 37.6383 22.2309 36.7707 22.1122L35.1931 21.8964L35.713 20.892Z" fill="#E6512E"/>
</svg>
