<svg width="21" height="21" viewBox="0 0 21 21" fill="none" xmlns="http://www.w3.org/2000/svg">
<rect x="0.415039" y="0.567871" width="19.9974" height="19.9974" rx="9.99869" fill="#E6512E"/>
<path d="M10.3513 8.17136C11.4586 8.17136 12.3725 9.0853 12.3725 10.1926C12.3725 11.3174 11.4586 12.2138 10.3513 12.2138C9.22644 12.2138 8.33007 11.3174 8.33007 10.1926C8.33007 9.0853 9.22644 8.17136 10.3513 8.17136ZM10.3513 11.5108C11.0719 11.5108 11.6519 10.9308 11.6519 10.1926C11.6519 9.47197 11.0719 8.89197 10.3513 8.89197C9.61311 8.89197 9.0331 9.47197 9.0331 10.1926C9.0331 10.9308 9.63068 11.5108 10.3513 11.5108ZM12.9174 8.10106C12.9174 8.3647 12.7065 8.57561 12.4428 8.57561C12.1792 8.57561 11.9683 8.3647 11.9683 8.10106C11.9683 7.83742 12.1792 7.62651 12.4428 7.62651C12.7065 7.62651 12.9174 7.83742 12.9174 8.10106ZM14.2531 8.57561C14.2883 9.22591 14.2883 11.1768 14.2531 11.8271C14.218 12.4599 14.0774 13.0047 13.6204 13.4793C13.1634 13.9362 12.601 14.0768 11.9683 14.112C11.318 14.1471 9.36704 14.1471 8.71674 14.112C8.08401 14.0768 7.53916 13.9362 7.06461 13.4793C6.60764 13.0047 6.46703 12.4599 6.43188 11.8271C6.39673 11.1768 6.39673 9.22591 6.43188 8.57561C6.46703 7.94288 6.60764 7.38045 7.06461 6.92348C7.53916 6.46651 8.08401 6.3259 8.71674 6.29075C9.36704 6.2556 11.318 6.2556 11.9683 6.29075C12.601 6.3259 13.1634 6.46651 13.6204 6.92348C14.0774 7.38045 14.218 7.94288 14.2531 8.57561ZM13.4095 12.5126C13.6204 12.0029 13.5677 10.7726 13.5677 10.1926C13.5677 9.63015 13.6204 8.39985 13.4095 7.87257C13.2689 7.53863 13.0052 7.25742 12.6713 7.13439C12.144 6.92348 10.9137 6.97621 10.3513 6.97621C9.77129 6.97621 8.54098 6.92348 8.03128 7.13439C7.67977 7.27499 7.41613 7.53863 7.27552 7.87257C7.06461 8.39985 7.11734 9.63015 7.11734 10.1926C7.11734 10.7726 7.06461 12.0029 7.27552 12.5126C7.41613 12.8641 7.67977 13.1277 8.03128 13.2683C8.54098 13.4793 9.77129 13.4265 10.3513 13.4265C10.9137 13.4265 12.144 13.4793 12.6713 13.2683C13.0052 13.1277 13.2865 12.8641 13.4095 12.5126Z" fill="white"/>
</svg>
