<svg width="33" height="33" viewBox="0 0 33 33" fill="none" xmlns="http://www.w3.org/2000/svg">
<rect x="0.251953" y="0.427246" width="32.5652" height="32.5652" rx="16.2826" fill="#E6512E"/>
<path d="M16.3052 9.60321C20.2264 9.60321 23.4034 12.7802 23.4034 16.7014C23.4034 20.6226 20.2264 23.7996 16.3052 23.7996C12.384 23.7996 9.20703 20.6226 9.20703 16.7014C9.20703 12.7802 12.384 9.60321 16.3052 9.60321ZM19.7685 14.4689C19.8829 14.011 19.5967 13.8106 19.2819 13.9251L12.4413 16.5583C11.9833 16.73 11.9833 17.0162 12.3554 17.1307L14.1013 17.6745L18.1656 15.0986C18.366 14.9841 18.5377 15.07 18.3946 15.1844L15.1031 18.1611L14.9886 19.9643C15.1604 19.9643 15.2462 19.8784 15.3321 19.7926L16.1907 18.9625L17.9653 20.2791C18.3087 20.4509 18.5377 20.365 18.6236 19.9643L19.7685 14.4689Z" fill="white"/>
</svg>
