<svg width="21" height="21" viewBox="0 0 21 21" fill="none" xmlns="http://www.w3.org/2000/svg">
<rect x="0.418701" y="0.567871" width="19.9974" height="19.9974" rx="9.99869" fill="#E6512E"/>
<path d="M14.9968 7.76712C14.8562 8.3647 13.5907 10.1574 13.5907 10.1574C13.4853 10.3332 13.4325 10.4211 13.5907 10.6144C13.661 10.7023 14.9792 11.9677 15.1725 12.5653C15.2604 12.8641 15.1198 13.0047 14.821 13.0047H13.7841C13.3974 13.0047 13.2744 12.7059 12.5713 12.0029C11.9562 11.4053 11.6925 11.3174 11.5344 11.3174C11.218 11.3174 11.2707 11.4405 11.2707 12.618C11.2707 12.8641 11.1828 13.0047 10.5325 13.0047C9.44283 13.0047 8.2301 12.3544 7.36888 11.1241C6.08585 9.31379 5.73433 7.96045 5.73433 7.67924C5.73433 7.52106 5.80464 7.38045 6.08585 7.38045H7.12282C7.38646 7.38045 7.49192 7.50348 7.59737 7.78469C8.10707 9.26106 8.95071 10.5617 9.30223 10.5617C9.44283 10.5617 9.49556 10.4914 9.49556 10.1574V8.62833C9.46041 7.9253 9.09132 7.87257 9.09132 7.62651C9.09132 7.50348 9.17919 7.38045 9.35495 7.38045H10.9719C11.2004 7.38045 11.2707 7.50348 11.2707 7.76712V9.82349C11.2707 10.0344 11.3762 10.1223 11.4289 10.1223C11.5695 10.1223 11.675 10.0344 11.921 9.80591C12.6592 8.96227 13.1865 7.67924 13.1865 7.67924C13.2568 7.52106 13.3798 7.38045 13.6435 7.38045H14.6804C14.9968 7.38045 15.0495 7.55621 14.9968 7.76712Z" fill="white"/>
</svg>
