<svg width="21" height="21" viewBox="0 0 21 21" fill="none" xmlns="http://www.w3.org/2000/svg">
<rect x="0.411377" y="0.567871" width="19.9974" height="19.9974" rx="9.99869" fill="#E6512E"/>
<path d="M15.0598 7.89015C15.2707 8.62833 15.2707 10.2102 15.2707 10.2102C15.2707 10.2102 15.2707 11.7744 15.0598 12.5302C14.9543 12.952 14.6204 13.2683 14.2161 13.3738C13.4604 13.5671 10.4725 13.5671 10.4725 13.5671C10.4725 13.5671 7.46702 13.5671 6.71126 13.3738C6.30701 13.2683 5.97307 12.952 5.86762 12.5302C5.65671 11.7744 5.65671 10.2102 5.65671 10.2102C5.65671 10.2102 5.65671 8.62833 5.86762 7.89015C5.97307 7.46833 6.30701 7.13439 6.71126 7.02893C7.46702 6.81802 10.4725 6.81802 10.4725 6.81802C10.4725 6.81802 13.4604 6.81802 14.2161 7.02893C14.6204 7.13439 14.9543 7.46833 15.0598 7.89015ZM9.48823 11.6338L11.984 10.2102L9.48823 8.78652V11.6338Z" fill="white"/>
</svg>
