<?xml version="1.0" encoding="UTF-8"?>
<!-- Generated by Pixelmator Pro 3.6.18 -->
<svg width="1250" height="1250" viewBox="0 0 1250 1250" xmlns="http://www.w3.org/2000/svg">
    <g id="g1">
        <path id="path1" fill="#000000" fill-rule="evenodd" stroke="none" d="M 93.5 457.434998 C 91.300003 457.661865 84.96447 456.828674 79.421036 455.583374 C 73.316406 454.212036 66.316109 451.782288 61.668182 449.421509 C 53.994289 445.523804 53.994289 445.523804 54.543087 441.011902 C 54.844929 438.530334 55.709579 428.625 56.464539 419 C 57.219498 409.375 58.141731 397.100342 58.513943 391.723022 C 59.190697 381.945984 59.190697 381.945984 63.845348 378.379211 C 67.85598 375.305969 69.053436 374.881042 72.5 375.307861 C 74.699997 375.580322 79.650002 376.563477 83.5 377.492676 C 87.349998 378.421875 92.300003 378.953186 94.5 378.673279 C 96.699997 378.393433 102.376114 377.2854 107.113594 376.210999 C 115.727188 374.257507 115.727188 374.257507 120.711014 378.057922 C 125.694847 381.858337 125.694847 381.858337 126.372467 391.179199 C 126.745163 396.305603 127.469612 405.900024 127.982353 412.5 C 128.495087 419.099976 129.220551 429.300781 129.594467 435.168335 C 130.274323 445.836731 130.274323 445.836731 123.071915 449.463806 C 118.978325 451.525269 111.905037 453.939331 106.684753 455.056641 C 101.633141 456.137817 95.699997 457.208069 93.5 457.434998 Z M 27.814512 411 C 27.339304 411 26.477444 409.762512 25.899263 408.25 C 25.321085 406.737488 24.794523 404.819519 24.729126 403.987854 C 24.663729 403.156128 28.635422 396.4953 33.555111 389.185974 C 38.708 381.530151 42.639168 376.565063 42.828285 377.473877 C 43.008842 378.341553 42.378601 382.752441 41.427757 387.275757 C 39.960865 394.253967 38.864124 396.674133 34.188736 403.25 C 31.158121 407.512512 28.289721 411 27.814512 411 Z M 156.976288 411 C 156.530899 411 153.68428 407.457642 150.650467 403.128052 C 146.378784 397.031921 144.874237 393.877258 143.980957 389.143799 C 143.346542 385.782043 142.468658 381.180359 142.030106 378.917847 C 141.385742 375.593506 141.473801 375.062805 142.489014 376.1521 C 143.179962 376.893433 146.615097 381.748169 150.12265 386.940369 C 153.630188 392.132568 157.475983 397.982605 158.668854 399.940369 C 160.712967 403.295227 160.749954 403.715698 159.311905 407.25 C 158.472702 409.3125 157.421677 411 156.976288 411 Z M 37.090416 353 C 36.657547 353 35.569733 351.132324 34.67305 348.849609 C 33.776371 346.566833 32.349144 341.054382 31.501438 336.599609 C 30.653732 332.144836 29.258533 320.400024 28.400997 310.5 C 27.543459 300.599976 26.473583 288.224976 26.023493 283 C 25.573402 277.775024 24.596489 266.974976 23.852573 259 C 23.108658 251.025024 22.532858 238.394592 22.573019 230.932373 C 22.613178 223.470215 23.009916 216.495239 23.454657 215.432373 C 24.099552 213.891235 24.620876 214.714844 26.029427 219.5 C 27.000807 222.800049 28.944294 230.224976 30.348286 236 C 31.752277 241.775024 34.275078 252.073914 35.95451 258.886475 C 37.633942 265.698975 39.681217 276.710571 40.504009 283.356567 C 41.326805 290.002625 41.991055 300.403748 41.980122 306.470154 C 41.969189 312.53656 41.320248 323.575012 40.538036 331 C 39.755821 338.424988 38.837196 346.412476 38.496643 348.75 C 38.15609 351.087524 37.523289 353 37.090416 353 Z M 148.478363 351.858093 C 147.436981 352.97522 147.108856 352.531616 146.629211 349.358093 C 146.308487 347.236145 145.602982 341.900024 145.061401 337.5 C 144.519821 333.099976 143.826019 323.200012 143.519623 315.5 C 143.213226 307.799988 143.380157 295.875 143.890579 289 C 144.437714 281.630676 146.11557 270.958862 147.978378 263 C 149.716232 255.575012 152.241806 245 153.590759 239.5 C 154.939713 234 156.99408 225.971191 158.156006 221.658325 C 159.570328 216.408447 160.549667 214.26001 161.118988 215.158325 C 161.5867 215.89624 161.976273 224.280273 161.98468 233.789429 C 161.993103 243.298584 161.580399 255.223572 161.067566 260.289429 C 160.554718 265.355225 159.616531 275.233521 158.982697 282.241211 C 158.348862 289.24884 156.764206 305.223877 155.461227 317.741211 C 154.158249 330.258545 152.338928 342.75 151.418289 345.5 C 150.49765 348.25 149.174683 351.111145 148.478363 351.858093 Z M 44.439182 263.695435 C 43.305733 263.951416 41.909557 263.562134 41.336575 262.830383 C 40.763592 262.098694 38.683983 254.974976 36.715225 247 C 34.746468 239.025024 31.692211 226.292114 29.927986 218.70459 C 27.328472 207.524902 26.933115 204.442261 27.842731 202.445801 C 28.460064 201.090942 32.364361 197.763306 36.51894 195.051147 C 40.673523 192.339111 48.668861 188.35376 54.286362 186.194946 C 59.903862 184.036133 69 181.421631 74.5 180.384888 C 80.062004 179.336548 88.494194 178.53894 93.5 178.587646 C 98.449997 178.635864 107.072975 179.627563 112.66217 180.791382 C 118.251358 181.9552 126.351364 184.269653 130.66217 185.934692 C 134.972977 187.599731 141.386627 190.658081 144.914719 192.730957 C 148.44281 194.803955 152.889725 197.959229 154.796753 199.742554 C 157.762772 202.516357 158.182724 203.456177 157.701385 206.242554 C 157.391907 208.03418 154.61586 219.849976 151.532364 232.5 C 148.448883 245.150024 145.469101 257.210693 144.910614 259.301514 C 144.352127 261.392334 143.207047 263.367065 142.366013 263.689819 C 141.524979 264.012512 139.141159 263.323547 137.068649 262.158752 C 134.996155 260.993958 130.334457 259.353027 126.709335 258.512329 C 123.084213 257.67157 113.904106 256.567566 106.309097 256.058899 C 98.046486 255.505554 87.120232 255.492371 79.105965 256.026062 C 71.73925 256.516602 63.189251 257.436462 60.105968 258.07019 C 57.022686 258.703857 52.700001 260.124084 50.5 261.226196 C 48.299999 262.328308 45.572632 263.439514 44.439182 263.695435 Z M 29.073135 193.634155 C 27 196.269775 27 196.269775 27 193.745605 C 27 192.357422 27.7875 190.338867 28.75 189.26001 C 29.7125 188.181274 33.110497 185.617065 36.301105 183.56189 C 40.028305 181.161133 42.709572 180.062744 43.801105 180.489624 C 45.253666 181.057739 45.06501 181.508545 42.5 183.599365 C 40.849998 184.944336 37.620411 187.159302 35.323135 188.521606 C 33.02586 189.883911 30.213362 192.18457 29.073135 193.634155 Z M 157.820358 194.03894 C 157.63887 194.583374 156.142548 193.733398 154.495193 192.150024 C 152.847839 190.56665 148.900391 187.583374 145.723083 185.520508 C 141.148392 182.550293 140.179581 181.488525 141.06778 180.418335 C 141.980408 179.318726 143.555573 179.98877 149.521255 184.014282 C 153.553772 186.735474 157.144989 189.88147 157.501724 191.005371 C 157.858459 192.129395 158.001846 193.494507 157.820358 194.03894 Z M 26.459263 161 C 26.132542 161 26.182451 159.987549 26.570171 158.75 C 26.957891 157.512451 28.583578 152.900024 30.18281 148.5 C 32.588963 141.879883 33.723358 140.08606 36.759525 138.100342 C 38.777489 136.780518 41.235249 135.489746 42.221214 135.231934 C 43.20718 134.974121 45.383656 135.330444 47.057831 136.023926 C 49.151909 136.891357 50.007889 137.867676 49.800892 139.152832 C 49.635399 140.180298 45.900002 144.224731 41.5 148.140503 C 37.099998 152.056274 32.049492 156.551514 30.276649 158.130005 C 28.503807 159.708496 26.785982 161 26.459263 161 Z M 158.560471 161 C 158.426392 161 153.632935 156.97937 147.90834 152.065186 C 142.183746 147.151001 136.831589 141.991943 136.014648 140.600464 C 134.958206 138.801147 134.838745 137.76123 135.600952 136.999023 C 136.190369 136.409668 138.228775 135.674805 140.130753 135.366211 C 142.997375 134.901001 144.336121 135.377563 147.957382 138.152466 C 151.28299 140.700928 152.78212 142.812988 154.237061 147 C 155.288223 150.025024 156.745865 154.412476 157.476273 156.75 C 158.206665 159.087524 158.694565 161 158.560471 161 Z"/>
        <path id="path2" fill="#ffffff" fill-rule="evenodd" stroke="none" d="M 510.5 625.5 C 264.371185 624.295959 241.470932 623.946838 230.521301 622.61377 C 223.383011 621.74469 212.091675 620.113159 205.429443 618.988098 C 198.767212 617.863037 188.182632 615.643799 181.908142 614.056519 C 175.633667 612.469238 166 609.617249 160.5 607.718811 C 155 605.820313 146.449997 602.594299 141.5 600.549927 C 136.550003 598.505554 128.225006 594.548279 123 591.755981 C 117.775002 588.963684 110.365021 584.672302 106.533371 582.219604 C 102.701729 579.766846 95.963867 575.017456 91.560349 571.665344 C 87.15683 568.313232 80.279922 562.460571 76.27832 558.659424 C 72.276726 554.858337 65.922096 548.092407 62.156933 543.624146 C 58.391766 539.155884 53.050949 532.121399 50.288452 527.992065 C 47.525955 523.862671 43.336243 516.662659 40.977985 511.992065 C 38.619724 507.321411 35.603752 500.844727 34.275826 497.599304 C 32.947899 494.353943 31.012154 488.300232 29.974173 484.146545 C 28.479145 478.16394 27.389002 475.955078 24.728624 473.517822 C 22.649961 471.613525 20.104164 467.404114 18.047428 462.470581 C 16.219839 458.086792 13.852089 451.575012 12.785761 448 C 11.539239 443.820862 10.606505 436.665283 10.173491 427.959534 C 9.803071 420.512268 9.768414 405.887268 10.096476 395.459534 C 10.424538 385.031799 11.445216 369.75 12.364651 361.5 C 13.657186 349.902222 14.088932 335.386108 14.268175 297.5 C 14.497435 249.042297 14.477865 248.50177 12.5 248.660461 C 11.4 248.748718 8.1375 249.495483 5.25 250.319946 C 0 251.81897 0 251.81897 0 248.132019 C -0 246.104126 0.704737 243.438843 1.566082 242.209106 C 2.427427 240.97937 5.014926 239.033569 7.316082 237.885193 C 9.617237 236.736755 12.231397 235.055237 13.125325 234.14856 C 14.588605 232.664368 14.637133 230.861206 13.612059 216.062744 C 12.931871 206.243164 12.786006 195.372803 13.249756 189.062744 C 13.74289 182.352783 14.956538 175.617676 16.577059 170.5979 C 17.980118 166.251709 20.724228 159.501709 22.675085 155.5979 C 24.625942 151.694092 26.91687 147.712524 27.766035 146.75 C 28.615202 145.787476 29.639982 145 30.043324 145 C 30.446665 145 30.092592 147.715698 29.256496 151.03479 C 28.420399 154.354004 28.00124 157.334595 28.325031 157.658325 C 28.648823 157.982178 29.495651 158.011108 30.206871 157.722656 C 30.918093 157.434326 35.549999 153.371094 40.5 148.693481 C 48.323673 141.300293 49.35276 139.947632 48.373486 138.34436 C 47.490192 136.898193 46.086811 136.520142 41.873486 136.593018 C 38.918068 136.644287 36.275311 136.494629 36.00069 136.260376 C 35.726067 136.026245 36.853195 134.634399 38.505417 133.167358 C 40.157639 131.700317 44.361973 128.988647 47.848385 127.141479 C 51.759857 125.06897 56.544849 123.470947 60.343655 122.968384 C 63.729645 122.520508 70.324997 120.837891 75 119.229248 C 79.675003 117.620728 85.778557 115.722534 88.563454 115.011108 C 93.474968 113.756348 94.015106 113.846924 106.563454 118.028809 C 113.678558 120.400024 121.974998 122.670898 125 123.075195 C 128.08754 123.487793 133.131775 125.227173 136.5 127.040527 C 139.800003 128.817139 143.850006 131.578247 145.5 133.176147 C 148.5 136.081543 148.5 136.081543 144.383255 135.434204 C 141.938293 135.049805 139.400208 135.25061 138.133255 135.928711 C 136.959961 136.556641 136 137.92395 136 138.967285 C 136 140.06311 139.383545 143.954712 144.012039 148.182129 C 148.418655 152.206909 152.93074 156.125366 154.038895 156.889771 C 155.147049 157.654175 156.328735 158.004639 156.664856 157.668457 C 157.000977 157.332397 156.720505 155.073364 156.04158 152.64856 C 155.362671 150.223633 154.988327 147.398315 155.209717 146.369873 C 155.52243 144.917236 156.313019 145.584839 158.752991 149.362061 C 160.480408 152.036133 163.489319 158.035645 165.439484 162.694336 C 167.389633 167.353027 169.736954 174.840088 170.655746 179.332275 C 172.047333 186.13623 172.2117 190.755981 171.640152 207 C 171.262787 217.724976 170.693604 228.157898 170.37529 230.184265 C 169.799225 233.85144 169.824677 233.88269 175.873596 236.936218 C 179.977417 239.007813 182.477325 241.022339 183.572678 243.140564 C 184.850677 245.611938 184.959122 246.794312 184.083939 248.715149 C 183.121506 250.827393 182.541443 251.058167 179.740738 250.443054 C 177.962906 250.052551 175.481735 249.265381 174.227036 248.693665 C 172.602264 247.953369 171.619019 247.980957 170.810394 248.789612 C 169.975571 249.624451 169.854538 262.839417 170.353149 298.712463 C 170.880859 336.67865 171.505203 352.490662 173.168015 370 C 174.343246 382.375 175.348709 400.618286 175.40239 410.54071 C 175.474152 423.804077 175.012756 431.483521 173.660019 439.54071 C 172.55806 446.104248 170.447235 453.825989 168.397415 458.792175 C 165.813736 465.051758 165.216583 467.536194 165.961243 468.927612 C 166.503799 469.941345 169.546982 472.496887 172.723862 474.606567 C 175.900742 476.716248 181.425003 479.916626 185 481.718506 C 188.574997 483.520386 194.875 486.110229 199 487.473694 C 203.125 488.837158 211.063507 491.048035 216.641113 492.38678 C 222.218735 493.725525 232.793732 495.423706 240.141113 496.160461 C 250.544113 497.203613 281.932861 497.5 382 497.5 L 510.5 497.5 L 511 311.169373 C 511.491028 128.176636 511.53476 124.813232 513.441101 123.419312 C 515.101196 122.205444 542.538513 122 702.947266 122 C 861.111084 122 892.470703 122.229126 903.006104 123.461548 C 909.877747 124.265381 920.314087 125.852051 926.197998 126.987549 C 932.081909 128.123047 941.537598 130.38269 947.210693 132.008911 C 952.883728 133.635254 962.052368 136.730103 967.585449 138.886353 C 973.11853 141.042725 983.012817 145.500732 989.572815 148.793213 C 996.132751 152.085571 1006.224976 157.904663 1012 161.724487 C 1017.775024 165.544312 1026.078369 171.521484 1030.451904 175.007324 C 1034.825439 178.493042 1042.719727 185.654907 1047.994629 190.922485 C 1053.269653 196.190063 1060.310303 203.875 1063.640625 208 C 1066.971069 212.125 1073.13562 220.562012 1077.339722 226.748962 C 1081.543823 232.935852 1087.762207 243.510864 1091.158325 250.248962 C 1094.554443 256.987 1098.865723 266.099976 1100.738892 270.5 C 1102.612061 274.900024 1105.645386 282.811157 1107.479614 288.080383 C 1109.313843 293.349548 1111.958252 302.349548 1113.356201 308.080383 C 1114.75415 313.811157 1116.818115 323.900024 1117.942749 330.5 C 1119.067505 337.099976 1120.530884 349.589478 1121.194702 358.254395 C 1122.132813 370.498596 1122.136353 377.768982 1121.210693 390.884766 C 1120.555542 400.166504 1118.875122 414.002014 1117.47644 421.630371 C 1116.077637 429.258667 1113.819214 439.717957 1112.45752 444.87323 C 1111.095947 450.028503 1108.15686 459.478516 1105.926392 465.87323 C 1103.695923 472.267944 1098.547974 484.25 1094.48645 492.5 C 1090.425049 500.75 1084.35498 511.725281 1080.997559 516.889526 C 1077.640137 522.053711 1075.091797 526.796753 1075.334595 527.429565 C 1075.577393 528.062378 1081.563965 531.636719 1088.638062 535.372498 C 1095.712158 539.108276 1106.583984 545.53833 1112.797852 549.661438 C 1119.011597 553.784607 1128.686646 560.799683 1134.297852 565.250549 C 1139.909058 569.701416 1150.835571 579.678406 1158.578979 587.421509 C 1166.322388 595.164673 1175.687866 605.325012 1179.390991 610 C 1183.094116 614.674988 1190.168701 624.467834 1195.112427 631.761841 C 1200.056152 639.055847 1207.775024 652.105835 1212.265503 660.761841 C 1216.755981 669.417847 1222.28894 681 1224.560913 686.5 C 1226.833008 692 1230.543945 702.023926 1232.807495 708.77533 C 1235.071045 715.526794 1238.286133 726.551758 1239.952148 733.27533 C 1241.618286 739.998901 1244.077637 751.825684 1245.41748 759.557129 C 1246.757324 767.288452 1248.404541 779.888489 1249.078125 787.557129 C 1249.864746 796.513123 1250.101318 810.083984 1249.739624 825.5 C 1249.354736 841.89978 1248.533447 853.775146 1247.14624 863 C 1246.029541 870.424988 1243.950073 882.004028 1242.525024 888.731079 C 1241.099976 895.458252 1238.570435 905.583252 1236.903931 911.231079 C 1235.237427 916.879028 1232.270264 926 1230.310181 931.5 C 1228.35022 937 1225.089966 945.325012 1223.065063 950 C 1221.040283 954.674988 1216.172363 964.799988 1212.247559 972.5 C 1208.322754 980.200012 1201.373901 992.125488 1196.805786 999.001099 C 1192.237549 1005.876709 1184.949341 1016.001709 1180.609619 1021.501099 C 1176.269897 1027.000488 1165.9198 1038.282104 1157.609619 1046.571411 C 1149.299316 1054.860596 1138.224976 1064.930054 1133 1068.947876 C 1127.775024 1072.965698 1118.099976 1079.838989 1111.5 1084.222046 C 1104.900024 1088.60498 1091.625 1096.102905 1082 1100.883911 C 1072.375 1105.665039 1058.058228 1111.930298 1050.185059 1114.806763 C 1042.311768 1117.68335 1029.936768 1121.589844 1022.684998 1123.488037 C 1015.433228 1125.38623 1003.200012 1128.082031 995.5 1129.478882 C 987.799988 1130.87561 975.875 1132.74707 969 1133.637451 C 957.90094 1135.075073 931.787415 1135.303101 736 1135.672607 C 543.551208 1136.035889 515.245544 1135.902588 513.5 1134.625 C 511.511383 1133.169556 511.497162 1131.715942 511 879.330627 L 510.5 625.5 Z M 638.5 625.5 C 638.102356 920.775024 638.210449 1007.08783 638.483704 1007.806274 C 638.890564 1008.876221 667.528198 1009.036133 796.740234 1008.690186 C 937.272217 1008.313965 955.701233 1008.086487 965.5 1006.606995 C 971.549988 1005.693481 982.575012 1003.361816 990 1001.425354 C 997.424988 999.488953 1008.225586 995.993164 1014.001282 993.656982 C 1019.776978 991.320862 1028.796753 986.882141 1034.045288 983.793213 C 1039.293823 980.704285 1047.178955 975.514526 1051.567749 972.260437 C 1055.956543 969.006348 1063.408569 962.517334 1068.127686 957.840515 C 1072.846924 953.163635 1079.428467 945.913818 1082.753296 941.729736 C 1086.078247 937.545654 1091.71875 929.257324 1095.28772 923.311157 C 1098.856689 917.36499 1103.82019 907.775024 1106.317749 902 C 1108.815308 896.224976 1112.423828 886.324097 1114.336548 879.998047 C 1116.24939 873.671997 1118.528198 865.12207 1119.400757 860.998047 C 1120.273315 856.874146 1121.510254 848.325012 1122.149658 842 C 1122.887207 834.704163 1123.092407 822.457275 1122.710938 808.5 C 1122.337769 794.841187 1121.480103 783.087708 1120.449097 777.5 C 1119.535767 772.549988 1117.259521 763.171021 1115.390747 756.657837 C 1113.521973 750.144592 1110.629028 741.409363 1108.962036 737.246216 C 1107.295044 733.083069 1104.148315 726.141296 1101.969482 721.820068 C 1099.790527 717.498779 1096.116211 710.934021 1093.804321 707.231628 C 1091.492432 703.529236 1087.022583 697.125 1083.87146 693 C 1080.720215 688.875 1075.297485 682.493347 1071.820923 678.818542 C 1068.344482 675.143799 1061.900024 669.145874 1057.5 665.489929 C 1053.099976 661.833984 1045.449951 656.32428 1040.5 653.246155 C 1035.550049 650.168091 1027 645.529785 1021.5 642.938904 C 1016 640.348022 1006.537781 636.631592 1000.472839 634.680176 C 994.407898 632.72876 984.957886 630.207886 979.472839 629.078308 C 973.987793 627.948669 963.650024 626.52832 956.5 625.921997 C 947.517761 625.160278 896.368835 624.924683 791 625.15979 L 638.5 625.5 Z M 324.5 601.320007 C 365.200012 601.068481 411.549988 600.781067 427.5 600.681335 C 456.5 600.5 456.5 600.5 456.800323 595.30603 C 457.073303 590.584656 456.849884 589.947693 454.34494 588.30603 C 451.740936 586.599426 446.219818 586.488953 354.044617 586.299072 C 299.001404 586.185669 250.400024 585.648865 242.5 585.067017 C 234.800003 584.499939 223.430481 583.121094 217.234421 582.00293 C 211.038345 580.884827 200.013351 578.442688 192.734421 576.575989 C 185.45549 574.70929 174.550003 571.328186 168.5 569.062378 C 162.449997 566.796509 151.907104 562.165405 145.071335 558.770935 C 138.23558 555.376526 129.27858 550.403137 125.166908 547.718994 C 121.055237 545.034851 114.723137 540.444458 111.095573 537.518066 C 107.46801 534.591675 101.522339 529.115479 97.882973 525.348694 C 94.243607 521.581909 89.043716 515.549927 86.327667 511.944275 C 83.611618 508.338562 79.669128 502.263611 77.566589 498.444275 C 75.46405 494.624939 73.18911 490.903748 72.511177 490.174988 C 71.833244 489.446228 69.357063 488.418274 67.00856 487.890564 C 64.094559 487.23584 61.668587 487.284302 59.369278 488.043152 C 57.309933 488.722778 56 489.812683 56 490.846436 C 56 491.776672 57.71666 495.954895 59.8148 500.131348 C 61.912941 504.3078 66.290192 511.724304 69.542023 516.612488 C 73.184242 522.087463 80.262848 530.320984 87.977226 538.055542 C 95.115105 545.212036 104.462234 553.363281 109.714325 557.011475 C 114.782204 560.531677 123.0532 565.77301 128.094299 568.658813 C 133.135406 571.544617 142.263962 576.012512 148.379974 578.587402 C 154.495987 581.162292 163.801636 584.724854 169.059204 586.504089 C 174.316772 588.283386 183.991776 591.13385 190.559204 592.838501 C 197.126648 594.543091 208.287598 596.875793 215.361328 598.022217 C 222.435074 599.16864 233.235062 600.482544 239.361328 600.941956 C 245.487595 601.401367 283.799988 601.571533 324.5 601.320007 Z M 347.987671 535.621399 C 456.475342 535.5 456.475342 535.5 457.168304 530.655396 C 457.549438 527.990845 458.568481 525.029358 459.432831 524.074219 C 460.29718 523.119141 460.703369 522.036743 460.33551 521.668823 C 459.967651 521.300964 414.629181 520.998901 359.583344 520.997559 C 301.538696 520.996155 253.930969 520.570313 246.241562 519.983704 C 238.949417 519.427429 226.948456 517.857727 219.572754 516.495483 C 212.197052 515.13324 202.482849 512.856323 197.985657 511.435669 C 193.488449 510.015015 186.196213 507.328979 181.780685 505.466736 C 177.365143 503.604492 170.770645 500.302734 167.126221 498.129517 C 163.481796 495.956238 158.529892 492.675598 156.121979 490.83905 C 153.714066 489.002563 150.494675 486.696228 148.967758 485.713867 C 146.259506 483.971497 146.06073 483.988281 140.845779 486.399658 C 137.905609 487.759155 134.661285 489.13092 133.636185 489.448059 C 131.996719 489.9552 131.936539 490.267395 133.136185 492.041565 C 133.886292 493.150879 137.649994 496.783752 141.5 500.114624 C 145.350006 503.445435 152.550003 508.58783 157.5 511.542114 C 162.449997 514.496399 171 518.707153 176.5 520.899353 C 182 523.091553 190.508041 526.04187 195.406769 527.455627 C 200.305496 528.869324 208.630493 530.903503 213.906769 531.975952 C 219.183044 533.048401 227.100006 534.334656 231.5 534.834351 C 235.899994 535.333984 288.319458 535.688171 347.987671 535.621399 Z M 638.5 249.5 L 638.5 496.5 L 670.5 497.057922 C 688.099976 497.364746 745.924988 497.550842 799 497.471436 C 895.5 497.326965 895.5 497.326965 907 494.56842 C 913.325012 493.051208 922.151062 490.305298 926.613403 488.466309 C 931.075806 486.62738 938.136169 483.052917 942.303101 480.523132 C 946.470032 477.993286 953.30957 472.720032 957.502075 468.804688 C 961.69458 464.889343 967.047058 459.169067 969.396484 456.092957 C 971.74585 453.016846 975.518677 447.349976 977.780457 443.5 C 980.042297 439.650024 983.269043 433.044922 984.950989 428.822083 C 986.632935 424.599243 989.109741 416.949219 990.455017 411.822083 C 991.800293 406.694946 993.373291 398.130249 993.9505 392.789429 C 994.52771 387.448608 995 379.443359 995 375 C 995 370.556641 994.528442 362.551392 993.952026 357.210571 C 993.375671 351.869751 991.595459 342.549988 989.996033 336.5 C 988.396606 330.450012 985.231689 321.224976 982.962952 316 C 980.694153 310.775024 976.318726 302.674988 973.239746 298 C 970.160767 293.325012 963.559753 285.42688 958.570801 280.448608 C 953.581848 275.470337 946.806946 269.638733 943.515442 267.489441 C 940.223938 265.34021 934.598938 262.147156 931.015442 260.39386 C 927.431946 258.640564 920.726746 256.022827 916.115051 254.576721 C 911.503296 253.130554 904.52832 251.396667 900.615051 250.723694 C 895.258179 249.802368 861.994141 249.5 766 249.5 L 638.5 249.5 Z M 91.674469 456.883667 C 94.520432 456.947632 101.045425 456.041016 106.174469 454.868958 C 111.303513 453.696899 118.199997 451.401855 121.5 449.768799 C 124.800003 448.135803 128.085709 446.242981 128.801575 445.562561 C 129.849213 444.566772 129.894928 441.708618 129.035934 430.91272 C 128.448975 423.535706 127.528328 411.875 126.990067 405 C 126.451797 398.125 125.750404 390.129089 125.431404 387.231262 C 124.968361 383.024963 124.211006 381.356689 121.675697 378.958191 C 119.929062 377.305786 117.440598 375.678711 116.145782 375.342346 C 114.85096 375.006042 109.310715 375.746826 103.834129 376.988525 C 97.619225 378.397644 92.302505 379.040527 89.688354 378.698914 C 87.384758 378.397888 82.15947 377.420227 78.076599 376.526306 C 72.312386 375.264282 70.047691 375.151794 67.944077 376.023193 C 66.454063 376.64032 63.991909 378.44281 62.472622 380.028564 C 59.963173 382.647888 59.633675 383.877258 58.873486 393.457581 C 58.413246 399.257751 57.558865 409.740112 56.974857 416.751709 C 56.39085 423.763245 55.643436 433.174561 55.313934 437.665649 C 54.714844 445.831238 54.714844 445.831238 61.681641 449.339661 C 65.513374 451.269287 72.665039 453.729919 77.574219 454.807678 C 82.483398 455.885437 88.828514 456.819641 91.674469 456.883667 Z M 27.804247 410 C 28.270166 410 29.562304 408.987488 30.675665 407.75 C 31.789026 406.512512 34.067646 403.466309 35.739265 400.980774 C 37.410881 398.495178 39.2882 394.670166 39.911083 392.480774 C 40.533966 390.291321 41.319954 386.587524 41.657722 384.25 C 42.021896 381.729736 41.874012 380 41.294365 380 C 40.756752 380 37.251579 384.354248 33.505096 389.676147 C 29.758612 394.997986 26.22563 400.591309 25.654022 402.105652 C 24.90941 404.078369 24.946812 405.58783 25.785931 407.429504 C 26.430086 408.843262 27.338329 410 27.804247 410 Z M 156.819763 408.796204 C 157.721161 408.62262 158.885254 407.267578 159.406631 405.785034 C 160.192642 403.550049 159.843826 402.270325 157.365051 398.294739 C 155.720795 395.657654 152.64064 391.025024 150.520248 388 C 148.399872 384.974976 145.786285 381.599976 144.712296 380.5 C 142.770889 378.511597 142.763107 378.53186 143.36821 384 C 143.702957 387.025024 144.406082 390.981445 144.930695 392.792114 C 145.455307 394.602783 147.976212 399.015442 150.5327 402.598022 C 153.544022 406.818054 155.75798 409.000671 156.819763 408.796204 Z M 36.980366 350 C 37.491322 350 38.14193 348.537476 38.426159 346.75 C 38.710392 344.962524 39.405785 338.869873 39.971474 333.210754 C 40.537163 327.551697 40.990246 315.176697 40.978325 305.710754 C 40.966404 296.244873 40.336903 284 39.57943 278.5 C 38.821957 273 36.795818 262.650024 35.076897 255.5 C 33.357975 248.349976 30.841141 238 29.483931 232.5 C 28.12672 227 26.541071 221.419067 25.960264 220.0979 C 25.193319 218.353271 24.603642 217.996338 23.80608 218.793945 C 23.041279 219.558716 22.889105 225.903931 23.304798 239.696045 C 23.633087 250.588196 24.372591 263.775024 24.948139 269 C 25.523687 274.224976 26.644098 285.474976 27.437943 294 C 28.231789 302.525024 29.391685 315.125 30.015495 322 C 30.639305 328.875 31.620739 336.75 32.196461 339.5 C 32.772182 342.25 33.875057 345.737488 34.647293 347.25 C 35.419529 348.762512 36.469414 350 36.980366 350 Z M 148.405273 350 C 149.081482 350 150.386978 347.613647 151.306366 344.697021 C 152.225754 341.780396 153.847549 330.86792 154.91037 320.447021 C 155.97319 310.026184 157.350281 296.099976 157.970596 289.5 C 158.590897 282.900024 159.745224 269.625 160.535782 260 C 161.326324 250.375 161.97229 237.549988 161.971252 231.5 C 161.970215 225.449951 161.55719 219.848511 161.053391 219.052124 C 160.313324 217.882324 159.934525 218.074463 159.081009 220.052124 C 158.499985 221.398438 156.490036 228.575012 154.614471 236 C 152.738892 243.424988 150.027588 254.510193 148.589355 260.633728 C 147.151108 266.757263 145.544022 275.082275 145.018051 279.133728 C 144.492096 283.185181 144.05127 295.275024 144.038467 306 C 144.02565 316.724976 144.448105 329.325012 144.977234 334 C 145.506363 338.674988 146.217499 344.1875 146.557541 346.25 C 146.897583 348.3125 147.729065 350 148.405273 350 Z M 43.796387 262.772278 C 44.733376 262.577209 47.657845 261.393616 50.295208 260.142029 C 52.932575 258.890442 59.682575 257.108948 65.295212 256.183228 C 72.033386 255.071777 81.274979 254.5 92.5 254.5 C 101.849998 254.5 113.541977 255.090515 118.48217 255.812195 C 123.422363 256.533936 130.62236 258.401733 134.482178 259.96283 C 139.794571 262.111511 141.788254 262.521667 142.686172 261.650635 C 143.338577 261.017822 146.637772 249.025024 150.017731 235 C 153.39769 220.974976 156.405624 208.066284 156.702026 206.313843 C 157.142776 203.708252 156.718033 202.642334 154.370468 200.463257 C 152.791718 198.997681 148.519516 196.026489 144.876694 193.860596 C 141.233887 191.694702 134.80751 188.595703 130.595856 186.973999 C 126.384216 185.352173 118.494011 183.119629 113.06208 182.012695 C 106.707634 180.717651 99.319321 180.004639 92.342918 180.013184 C 85.635269 180.02124 78.067581 180.743652 72.5 181.907104 C 67.550003 182.941528 59.700867 185.185913 55.057484 186.894409 C 50.414097 188.602905 43.664097 191.755371 40.057484 193.899658 C 36.450867 196.044067 32.209415 198.996582 30.632038 200.460815 C 28.121452 202.791382 27.841549 203.607666 28.385796 207.011108 C 28.727739 209.149536 31.271858 220.259399 34.039391 231.699585 C 36.806919 243.139832 39.751106 254.891052 40.58202 257.813477 C 41.737797 261.878479 42.493065 263.04364 43.796387 262.772278 Z M 30.462658 190.823364 C 31.26712 190.645508 34.19212 188.764038 36.962658 186.642456 C 39.733196 184.520752 42 182.331543 42 181.777466 C 42 181.223389 40.987499 181.426636 39.75 182.229248 C 38.512501 183.03186 35.587502 184.889282 33.25 186.356812 C 30.9125 187.824341 29 189.502441 29 190.085815 C 29 190.669312 29.658195 191.001099 30.462658 190.823364 Z M 155.25 190.921387 C 155.662506 190.9646 156 190.604858 156 190.121826 C 156 189.638794 153.48378 187.501221 150.408417 185.371826 C 147.333038 183.24231 144.131226 181.344482 143.293243 181.154541 C 142.455276 180.964478 141.938843 181.316528 142.145615 181.93689 C 142.352386 182.557129 145.216721 184.814697 148.510788 186.953735 C 151.804855 189.092651 154.837494 190.878052 155.25 190.921387 Z"/>
        <linearGradient id="linearGradient1" x1="55.181404" y1="543.385162" x2="486.000008" y2="543.385162" gradientUnits="userSpaceOnUse">
            <stop offset="0" stop-color="#000000" stop-opacity="1"/>
            <stop offset="1" stop-color="#ffffff" stop-opacity="1"/>
        </linearGradient>
        <path id="path3" fill="url(#linearGradient1)" fill-rule="evenodd" stroke="none" d="M 485 586 L 485 603 L 436.000854 602.786011 C 409.051331 602.668335 352.238831 602.274597 309.750854 601.91095 C 246.851929 601.372681 230.735062 600.959961 223 599.689514 C 217.774994 598.831299 208.774994 597.152466 203 595.958801 C 197.225006 594.765137 187.100006 592.222473 180.5 590.308411 C 173.899994 588.394287 163.324997 584.785889 157 582.289673 C 150.675003 579.793457 141.899994 575.946106 137.5 573.740051 C 133.100006 571.533997 125.449997 567.263306 120.5 564.249756 C 115.550003 561.236084 107.675003 555.785706 103 552.137695 C 98.324997 548.489746 91.082153 542.055969 86.904785 537.840515 C 82.727417 533.625 76.839096 526.873901 73.819633 522.838013 C 70.800171 518.802124 66.468529 512.345703 64.193771 508.490479 C 61.919006 504.635315 58.845749 498.671875 57.364307 495.238464 C 55.882866 491.805054 54.927387 488.739258 55.24102 488.425659 C 55.554653 488.112 58.441231 487.779663 61.655632 487.687134 C 64.870033 487.594604 68.716431 487.855408 70.203171 488.266724 C 72.27504 488.839966 73.84903 490.822876 76.94278 496.757324 C 79.162827 501.015808 83.90744 508.395569 87.486382 513.156799 C 91.065323 517.91803 97.891594 525.460632 102.655876 529.918091 C 107.420158 534.37561 115.866051 541.118347 121.42453 544.901917 C 126.983002 548.685547 136.377594 554.277649 142.301422 557.328857 C 148.22522 560.380066 157.668274 564.669983 163.28598 566.862061 C 168.903687 569.054077 178.041168 572.193298 183.591461 573.838074 C 189.141769 575.482849 198.816772 577.975525 205.091461 579.37738 C 211.366165 580.779236 221.675003 582.719788 228 583.689758 C 238.351761 585.277161 249.359756 585.466675 338.249451 585.587891 C 392.561615 585.661926 447.799133 585.784973 460.999451 585.861267 L 485 586 Z M 486 520 L 486 537 L 367.75 536.819763 C 302.712494 536.720581 247.25 536.484985 244.5 536.296021 C 241.75 536.107178 234.324997 535.294678 228 534.490601 C 221.675003 533.686462 210.982086 531.67749 204.237961 530.026123 C 197.493835 528.374817 187.593842 525.400269 182.237961 523.416016 C 176.88208 521.431824 168.718811 517.817017 164.097336 515.383057 C 159.475861 512.949097 152.84314 508.922852 149.35791 506.435852 C 145.872711 503.948853 140.316406 499.409912 137.01059 496.349304 C 133.704773 493.288696 131 490.383057 131 489.892273 C 131 489.40155 132.201111 489 133.669144 489 C 135.137177 489 138.773148 487.625854 141.749084 485.94635 C 147.159882 482.892639 147.159882 482.892639 151.584351 486.971008 C 154.017792 489.21405 158.819336 492.868225 162.254395 495.091309 C 165.689484 497.314453 172.100006 500.845032 176.5 502.937134 C 180.899994 505.029236 189.449997 508.338379 195.5 510.290771 C 201.550003 512.243103 211.225006 514.744629 217 515.84967 C 222.774994 516.954712 231.869766 518.340637 237.210587 518.929443 C 243.565659 519.630066 288.228271 520 366.460571 520 L 486 520 Z"/>
    </g>
</svg>
