<svg width="33" height="33" viewBox="0 0 33 33" fill="none" xmlns="http://www.w3.org/2000/svg">
<rect x="0.145508" y="0.325684" width="32.5652" height="32.5652" rx="16.2826" fill="#E6512E"/>
<path d="M16.3261 13.3083C18.1292 13.3083 19.6176 14.7967 19.6176 16.5998C19.6176 18.4316 18.1292 19.8913 16.3261 19.8913C14.4943 19.8913 13.0346 18.4316 13.0346 16.5998C13.0346 14.7967 14.4943 13.3083 16.3261 13.3083ZM16.3261 18.7465C17.4996 18.7465 18.4441 17.802 18.4441 16.5998C18.4441 15.4263 17.4996 14.4818 16.3261 14.4818C15.124 14.4818 14.1794 15.4263 14.1794 16.5998C14.1794 17.802 15.1526 18.7465 16.3261 18.7465ZM20.5048 13.1939C20.5048 13.6232 20.1614 13.9666 19.7321 13.9666C19.3027 13.9666 18.9593 13.6232 18.9593 13.1939C18.9593 12.7645 19.3027 12.4211 19.7321 12.4211C20.1614 12.4211 20.5048 12.7645 20.5048 13.1939ZM22.6801 13.9666C22.7373 15.0256 22.7373 18.2027 22.6801 19.2617C22.6228 20.292 22.3939 21.1793 21.6497 21.9521C20.9055 22.6963 19.9896 22.9252 18.9593 22.9825C17.9003 23.0397 14.7232 23.0397 13.6642 22.9825C12.6339 22.9252 11.7466 22.6963 10.9738 21.9521C10.2296 21.1793 10.0007 20.292 9.94342 19.2617C9.88617 18.2027 9.88617 15.0256 9.94342 13.9666C10.0007 12.9363 10.2296 12.0204 10.9738 11.2762C11.7466 10.532 12.6339 10.3031 13.6642 10.2458C14.7232 10.1886 17.9003 10.1886 18.9593 10.2458C19.9896 10.3031 20.9055 10.532 21.6497 11.2762C22.3939 12.0204 22.6228 12.9363 22.6801 13.9666ZM21.3062 20.3779C21.6497 19.5479 21.5638 17.5444 21.5638 16.5998C21.5638 15.6839 21.6497 13.6804 21.3062 12.8218C21.0773 12.278 20.6479 11.82 20.1041 11.6197C19.2455 11.2762 17.242 11.3621 16.3261 11.3621C15.3815 11.3621 13.378 11.2762 12.548 11.6197C11.9756 11.8486 11.5462 12.278 11.3173 12.8218C10.9738 13.6804 11.0597 15.6839 11.0597 16.5998C11.0597 17.5444 10.9738 19.5479 11.3173 20.3779C11.5462 20.9503 11.9756 21.3797 12.548 21.6086C13.378 21.9521 15.3815 21.8662 16.3261 21.8662C17.242 21.8662 19.2455 21.9521 20.1041 21.6086C20.6479 21.3797 21.1059 20.9503 21.3062 20.3779Z" fill="white"/>
</svg>
