<svg width="21" height="21" viewBox="0 0 21 21" fill="none" xmlns="http://www.w3.org/2000/svg">
<rect x="0.422363" y="0.567871" width="19.9974" height="19.9974" rx="9.99869" fill="#E6512E"/>
<path d="M13.1004 7.4156C13.8386 8.15379 14.2956 9.12046 14.2956 10.175C14.2956 12.3193 12.5029 14.0768 10.341 14.0768C9.69073 14.0768 9.058 13.9011 8.478 13.6023L6.42163 14.1296L6.96648 12.1083C6.63254 11.5283 6.43921 10.8605 6.43921 10.1574C6.43921 8.01318 8.19679 6.2556 10.341 6.2556C11.3956 6.2556 12.3798 6.67742 13.1004 7.4156ZM10.341 13.409C12.1338 13.409 13.6277 11.9502 13.6277 10.175C13.6277 9.29621 13.2586 8.48773 12.6435 7.87257C12.0283 7.25742 11.2198 6.92348 10.3586 6.92348C8.56588 6.92348 7.10709 8.38227 7.10709 10.1574C7.10709 10.7726 7.28285 11.3702 7.59921 11.8974L7.68709 12.0205L7.35315 13.2156L8.58346 12.8817L8.68891 12.952C9.19861 13.2508 9.76104 13.409 10.341 13.409ZM12.1338 10.9835C12.2217 11.0362 12.292 11.0538 12.3095 11.1065C12.3447 11.1417 12.3447 11.335 12.2568 11.5635C12.1689 11.792 11.7823 12.0029 11.6065 12.0205C11.2901 12.0732 11.0441 12.0556 10.4289 11.7744C9.44467 11.3526 8.81194 10.3683 8.75922 10.3156C8.70649 10.2453 8.37255 9.78834 8.37255 9.29621C8.37255 8.82167 8.61861 8.59318 8.70649 8.48773C8.79437 8.38227 8.89982 8.3647 8.97012 8.3647C9.02285 8.3647 9.09316 8.3647 9.14588 8.3647C9.21619 8.3647 9.28649 8.34712 9.37437 8.54045C9.44467 8.73379 9.65558 9.20834 9.67316 9.26106C9.69073 9.31379 9.70831 9.36652 9.67316 9.43682C9.4974 9.80591 9.28649 9.78834 9.39194 9.9641C9.77861 10.6144 10.1477 10.8429 10.7277 11.1241C10.8156 11.1768 10.8683 11.1593 10.9386 11.1065C10.9913 11.0362 11.1847 10.8077 11.2374 10.7199C11.3077 10.6144 11.378 10.632 11.4659 10.6671C11.5538 10.7023 12.0283 10.9308 12.1338 10.9835Z" fill="white"/>
</svg>
