<svg width="33" height="33" viewBox="0 0 33 33" fill="none" xmlns="http://www.w3.org/2000/svg">
<rect x="0.109863" y="0.325684" width="32.5652" height="32.5652" rx="16.2826" fill="#E6512E"/>
<path d="M23.9648 12.8504C24.3083 14.0525 24.3083 16.6285 24.3083 16.6285C24.3083 16.6285 24.3083 19.1758 23.9648 20.4065C23.7931 21.0935 23.2493 21.6086 22.591 21.7804C21.3602 22.0952 16.4945 22.0952 16.4945 22.0952C16.4945 22.0952 11.6002 22.0952 10.3695 21.7804C9.71117 21.6086 9.16736 21.0935 8.99563 20.4065C8.65217 19.1758 8.65217 16.6285 8.65217 16.6285C8.65217 16.6285 8.65217 14.0525 8.99563 12.8504C9.16736 12.1635 9.71117 11.6197 10.3695 11.4479C11.6002 11.1045 16.4945 11.1045 16.4945 11.1045C16.4945 11.1045 21.3602 11.1045 22.591 11.4479C23.2493 11.6197 23.7931 12.1635 23.9648 12.8504ZM14.8917 18.9468L18.956 16.6285L14.8917 14.3101V18.9468Z" fill="white"/>
</svg>
