<svg width="254" height="52" viewBox="0 0 254 52" fill="none" xmlns="http://www.w3.org/2000/svg">
<path d="M11.5366 25.5272L5.76581 31.293L0 25.5272L5.76581 19.7614L11.5366 25.5272ZM25.5272 11.5266L35.4079 21.4123L41.1737 15.6465L25.5272 0L9.88069 15.6465L15.6465 21.4123L25.5272 11.5266ZM45.2935 19.7614L39.5277 25.5272L45.2935 31.293L51.0544 25.5272L45.2935 19.7614ZM25.5272 39.5277L15.6465 29.647L9.88069 35.4079L25.5272 51.0544L41.1737 35.4079L35.4079 29.647L25.5272 39.5277ZM25.5272 31.293L31.293 25.5272L25.5272 19.7614L19.7614 25.5272L25.5272 31.293ZM86.3775 31.8466V31.7668C86.3775 28.0061 84.3824 26.1257 81.1354 24.8888C83.1304 23.7665 84.8163 22.0058 84.8163 18.8486V18.7688C84.8163 14.3696 81.295 11.5266 75.574 11.5266H62.586V39.5277H75.9032C82.2227 39.5277 86.3874 36.969 86.3874 31.8466H86.3775ZM78.6964 19.8761C78.6964 21.956 76.9756 22.8388 74.2573 22.8388H68.5862V16.9283H74.6663C77.2649 16.9283 78.7063 17.9658 78.7063 19.8063L78.6964 19.8761ZM80.2575 31.0785C80.2575 33.1584 78.6166 34.116 75.8933 34.116H68.5862V27.9662H75.7037C78.8659 27.9662 80.2675 29.1283 80.2675 31.0087L80.2575 31.0785ZM99.3206 39.5277V11.5266H93.1408V39.5277H99.3206ZM132.434 39.5277V11.5266H126.334V28.7692L113.216 11.5266H107.535V39.5277H113.615V21.7265L127.172 39.5277H132.434ZM166.555 39.5277L154.535 11.3271H148.854L136.858 39.5277H143.138L145.706 33.2482H157.547L160.106 39.5277H166.555ZM155.358 27.8066H147.896L151.617 18.7289L155.358 27.8066ZM195.918 39.5277V11.5266H189.818V28.7692L176.695 11.5266H171.019V39.5277H177.094V21.7265L190.656 39.5277H195.918ZM227.715 35.0089L223.799 31.0486C221.6 33.0437 219.64 34.3255 216.437 34.3255C211.639 34.3255 208.317 30.3354 208.317 25.5272V25.4474C208.317 20.6492 211.719 16.7288 216.437 16.7288C219.236 16.7288 221.425 17.9259 223.6 19.8861L227.505 15.3672C224.907 12.8085 221.749 11.0478 216.467 11.0478C207.869 11.0478 201.868 17.5668 201.868 25.5122V25.592C201.868 33.6322 207.988 39.9916 216.228 39.9916C221.62 40.0066 224.817 38.0863 227.695 35.0089H227.715ZM254 39.5277V34.0412H238.777V28.1507H251.98V22.6642H238.777V17.0082H253.781V11.5216H232.658V39.5227L254 39.5277Z" fill="white"/>
</svg>
