<svg width="264" height="57" viewBox="0 0 264 57" fill="none" xmlns="http://www.w3.org/2000/svg">
<g clip-path="url(#clip0_74_796)">
<path d="M232.404 46.0076L227.671 36.6252L222.931 46.0076H232.404ZM126.257 23.5531L116.787 28.2427L126.257 32.9354V23.5531ZM40.7013 34.1345L45.4376 43.5168L50.1768 34.1345H40.7013ZM257.302 14.1475C255.719 14.1475 254.18 15.3409 254.18 17.154C254.18 19.0996 255.762 20.2006 257.302 20.2006C259.018 20.2006 260.49 19.0564 260.49 17.2203C260.49 15.3409 258.951 14.1475 257.322 14.1475H257.302ZM244.253 23.7405V20.074H252.126C250.721 18.7684 250.721 17.0214 250.721 16.5113C250.721 13.9517 252.574 10.4812 257.258 10.4812C261.717 10.4812 263.949 13.5509 263.949 16.6669C263.949 18.3935 263.103 19.7195 262.21 20.2268H263.522V23.7405H244.253ZM257.392 36.0455C258.526 36.0455 260.49 35.207 260.49 32.996C260.49 31.6933 259.864 30.8947 259.108 30.4307C258.616 30.1226 258.081 29.9667 257.523 29.9234C256.967 29.8802 256.411 29.9897 255.896 30.2316C255.05 30.6296 254.18 31.4683 254.18 33.0193C254.18 35.1206 255.963 36.0457 257.365 36.0457H257.392V36.0455ZM263.521 26.254V29.9234H262.183C263.393 30.5863 263.949 32.1112 263.949 33.5467C263.949 37.4378 260.871 39.7151 257.322 39.7151C253.264 39.7151 250.721 36.821 250.721 33.5467C250.721 31.5374 251.701 30.4108 252.46 29.9234H251.146V26.254H263.521ZM244.253 46.0076V42.3382H263.521V46.0076H244.253Z" fill="white"/>
<path d="M164.163 50.9678L166.927 56.9174C180.045 46.9755 182.459 35.8723 173.921 23.9734C167.157 14.5447 174.601 6.15985 176.842 3.98064L171.82 0C168.539 3.56841 159.927 14.7208 167.456 25.9364C174.753 36.8004 173.996 42.6894 164.163 50.9678ZM62.2488 50.9678L65.0127 56.9174C78.1303 46.9755 80.5452 35.8723 72.0037 23.9734C65.2425 14.5447 72.6842 6.15985 74.9244 3.98064L69.9061 0C66.6216 3.56841 58.01 14.7208 65.5451 25.9364C72.8387 36.8004 72.0821 42.6894 62.2488 50.9678ZM235.975 10.4807L227.669 24.7375L219.357 10.4807H212.596L227.669 36.348L242.742 10.4807H235.975ZM100.497 12.4955C98.1286 11.1177 95.2285 10.4807 91.3676 10.4807H82.9019V46.0071H89.6689V17.1825H91.3679C96.0517 17.1825 99.2636 18.3268 99.2636 22.4977C99.2636 26.3919 95.3941 28.0983 90.9111 28.2368C90.7744 28.2396 90.271 28.2396 89.9365 28.2425L94.4311 34.6041C96.6538 34.2149 98.6497 33.4999 100.317 32.4883C100.439 32.4103 100.561 32.327 100.683 32.2459C104.084 30.018 106.03 26.4897 106.03 22.4977C106.03 18.1219 104.064 14.5709 100.497 12.4955ZM154.062 32.2459C157.46 30.018 159.407 26.4897 159.407 22.4977C159.407 18.1222 157.44 14.5709 153.87 12.4955C151.508 11.1177 148.604 10.4807 144.744 10.4807H136.278V46.0071H143.045V17.1825H144.744C149.428 17.1825 152.642 18.3268 152.642 22.4977C152.642 26.3919 148.773 28.0983 144.29 28.2368C144.147 28.2396 143.65 28.2396 143.315 28.2425L155.869 46.0071H163.785L154.062 32.2459ZM199.769 28.2422L212.323 10.4805H204.404L191.853 28.2422L204.404 46.0069H212.323L199.769 28.2422ZM191.583 10.4807H184.819V46.0071H191.583V10.4807ZM15.0055 28.2422L27.5588 10.4805H19.643L7.0894 28.2422L19.643 46.0069H27.5588L15.0055 28.2422ZM6.81864 10.4807H0.0519452V46.0071H6.81891V10.4807H6.81864ZM131.062 17.1825V10.4807H109.754V46.0071H131.062V39.3053H116.515V17.1825H131.062ZM62.7989 46.0071H56.0319L45.4363 23.4951L34.8438 46.0071H28.074L45.4366 9.12001L62.7989 46.0071Z" fill="white"/>
</g>
<defs>
<clipPath id="clip0_74_796">
<rect width="263.048" height="56.7121" fill="white" transform="scale(1.00362)"/>
</clipPath>
</defs>
</svg>
