<svg width="151" height="46" viewBox="0 0 151 46" fill="none" xmlns="http://www.w3.org/2000/svg">
<path fill-rule="evenodd" clip-rule="evenodd" d="M39.1738 33.6376C38.0156 34.7176 36.5821 35.268 34.8541 35.268C33.1261 35.268 31.6733 34.7176 30.4949 33.5989C29.2189 32.3818 28.5902 30.7127 28.5902 28.5916C28.5902 26.452 29.2189 24.7821 30.4949 23.565C31.6539 22.485 33.1067 21.9346 34.8541 21.9346C36.562 21.9346 38.0156 22.5238 39.252 23.682C40.47 24.841 41.0785 26.4705 41.0785 28.5908C41.0785 30.7506 40.4506 32.4205 39.1738 33.6376ZM48.717 16.9273C45.3788 13.4906 40.7646 11.7634 34.8541 11.7634C28.9243 11.7634 24.2705 13.4915 20.913 16.987C17.9081 20.0694 16.4166 23.9378 16.4166 28.5908C16.4166 33.2648 17.9283 37.1518 20.9525 40.2745C24.3101 43.7305 28.9437 45.4585 34.8549 45.4585C40.7654 45.4585 45.399 43.7111 48.7565 40.2164C51.7614 37.1332 53.2537 33.2656 53.2537 28.5916C53.2529 23.937 51.7404 20.05 48.717 16.9273ZM129.085 0.0014677L118.089 33.4407H104.717L115.714 0.0014677H129.085ZM24.9574 0.0014677H0L0.0395481 10.0548H21.5998L24.9574 0.0014677Z" fill="white"/>
<path fill-rule="evenodd" clip-rule="evenodd" d="M103.265 5.04674C99.9272 1.57134 97.5309 -0.0388376 86.7916 0.000710686H26.7258L23.3683 10.054H89.6181C91.229 10.113 92.6035 10.682 93.7811 11.8014C95.0184 12.9604 95.627 14.6093 95.627 16.7304C95.627 18.8709 94.9789 20.5593 93.723 21.7765C92.6035 22.8362 91.2089 23.3673 89.5406 23.406L85.4356 23.3673L89.2855 11.9984H76.8351L69.6494 33.4408H80.0764C80.9199 33.5191 88.4994 33.5586 89.4026 33.5586C95.3138 33.5586 99.9466 31.8306 103.305 28.335C106.31 25.2527 107.802 21.4044 107.802 16.7312C107.801 12.0565 106.29 8.16863 103.265 5.04674Z" fill="white"/>
<path fill-rule="evenodd" clip-rule="evenodd" d="M117.147 35.62H66.5459L74.3418 11.8806H60.9696L49.9736 45.3198H113.966L117.147 35.62ZM119.032 35.62L115.714 45.3198L151 45.1818L150.979 35.62H119.032Z" fill="white"/>
</svg>
