<svg width="151" height="46" viewBox="0 0 151 46" fill="none" xmlns="http://www.w3.org/2000/svg">
<path fill-rule="evenodd" clip-rule="evenodd" d="M39.1737 33.6376C38.0155 34.7175 36.5821 35.2679 34.8541 35.2679C33.126 35.2679 31.6733 34.7175 30.4949 33.5989C29.2188 32.3817 28.5901 30.7126 28.5901 28.5916C28.5901 26.4519 29.2188 24.782 30.4949 23.5649C31.6539 22.485 33.1067 21.9346 34.8541 21.9346C36.5619 21.9346 38.0155 22.5237 39.252 23.6819C40.4699 24.8409 41.0785 26.4705 41.0785 28.5908C41.0785 30.7506 40.4505 32.4205 39.1737 33.6376ZM48.7169 16.9273C45.3787 13.4906 40.7645 11.7634 34.8541 11.7634C28.9243 11.7634 24.2705 13.4914 20.9129 16.987C17.9081 20.0693 16.4165 23.9378 16.4165 28.5908C16.4165 33.2647 17.9282 37.1517 20.9525 40.2744C24.31 43.7304 28.9436 45.4585 34.8549 45.4585C40.7653 45.4585 45.3989 43.7111 48.7565 40.2163C51.7613 37.1332 53.2537 33.2655 53.2537 28.5916C53.2528 23.937 51.7403 20.05 48.7169 16.9273ZM129.085 0.0014677L118.089 33.4407H104.717L115.714 0.0014677H129.085ZM24.9573 0.0014677H0L0.039548 10.0548H21.5998L24.9573 0.0014677Z" fill="white"/>
<path fill-rule="evenodd" clip-rule="evenodd" d="M103.264 5.04674C99.9271 1.57134 97.5308 -0.0388375 86.7914 0.000710684H26.7258L23.3682 10.054H89.6179C91.2289 10.1129 92.6034 10.6819 93.781 11.8014C95.0183 12.9604 95.6268 14.6093 95.6268 16.7304C95.6268 18.8708 94.9787 20.5593 93.7229 21.7764C92.6034 22.8362 91.2087 23.3672 89.5404 23.406L85.4355 23.3672L89.2854 11.9983H76.835L69.6493 33.4407H80.0763C80.9197 33.519 88.4993 33.5586 89.4024 33.5586C95.3136 33.5586 99.9464 31.8305 103.305 28.335C106.31 25.2526 107.802 21.4043 107.802 16.7312C107.801 12.0564 106.289 8.16862 103.264 5.04674Z" fill="white"/>
<path fill-rule="evenodd" clip-rule="evenodd" d="M117.148 35.62H66.546L74.3419 11.8805H60.9698L49.9737 45.3197H113.966L117.148 35.62ZM119.032 35.62L115.714 45.3197L151 45.1817L150.979 35.62H119.032Z" fill="white"/>
</svg>
