<svg width="33" height="33" viewBox="0 0 33 33" fill="none" xmlns="http://www.w3.org/2000/svg">
<rect x="0.251953" y="0.325684" width="32.5652" height="32.5652" rx="16.2826" fill="#E6512E"/>
<path d="M16.3052 9.50165C20.2264 9.50165 23.4034 12.6787 23.4034 16.5998C23.4034 20.521 20.2264 23.698 16.3052 23.698C12.384 23.698 9.20703 20.521 9.20703 16.5998C9.20703 12.6787 12.384 9.50165 16.3052 9.50165ZM19.7685 14.3673C19.8829 13.9094 19.5967 13.709 19.2819 13.8235L12.4413 16.4567C11.9833 16.6285 11.9833 16.9147 12.3554 17.0292L14.1013 17.573L18.1656 14.997C18.366 14.8825 18.5377 14.9684 18.3946 15.0829L15.1031 18.0595L14.9886 19.8627C15.1604 19.8627 15.2462 19.7769 15.3321 19.691L16.1907 18.861L17.9653 20.1776C18.3087 20.3493 18.5377 20.2634 18.6236 19.8627L19.7685 14.3673Z" fill="white"/>
</svg>
