<svg width="33" height="33" viewBox="0 0 33 33" fill="none" xmlns="http://www.w3.org/2000/svg">
<rect x="0.180664" y="0.325684" width="32.5652" height="32.5652" rx="16.2826" fill="#E6512E"/>
<path d="M23.9211 12.65C23.6921 13.6232 21.6314 16.5426 21.6314 16.5426C21.4596 16.8288 21.3738 16.9719 21.6314 17.2868C21.7459 17.4299 23.8925 19.4906 24.2073 20.4638C24.3504 20.9503 24.1215 21.1793 23.6349 21.1793H21.9462C21.3165 21.1793 21.1162 20.6927 19.9713 19.5479C18.9696 18.5747 18.5402 18.4316 18.2826 18.4316C17.7674 18.4316 17.8533 18.632 17.8533 20.5496C17.8533 20.9503 17.7102 21.1793 16.6512 21.1793C14.8766 21.1793 12.9017 20.1203 11.4993 18.1168C9.40989 15.1688 8.83746 12.9649 8.83746 12.5069C8.83746 12.2493 8.95194 12.0204 9.40989 12.0204H11.0986C11.5279 12.0204 11.6996 12.2207 11.8714 12.6787C12.7014 15.0829 14.0752 17.2009 14.6477 17.2009C14.8766 17.2009 14.9625 17.0864 14.9625 16.5426V14.0525C14.9053 12.9076 14.3042 12.8218 14.3042 12.4211C14.3042 12.2207 14.4473 12.0204 14.7335 12.0204H17.3667C17.7388 12.0204 17.8533 12.2207 17.8533 12.65V15.9988C17.8533 16.3422 18.025 16.4854 18.1109 16.4854C18.3399 16.4854 18.5116 16.3422 18.9123 15.9702C20.1144 14.5963 20.9731 12.5069 20.9731 12.5069C21.0876 12.2493 21.2879 12.0204 21.7172 12.0204H23.4059C23.9211 12.0204 24.007 12.3066 23.9211 12.65Z" fill="white"/>
</svg>
