<svg width="33" height="33" viewBox="0 0 33 33" fill="none" xmlns="http://www.w3.org/2000/svg">
<rect x="0.216553" y="0.325684" width="32.5652" height="32.5652" rx="16.2826" fill="#E6512E"/>
<path d="M20.8621 12.0776C22.0642 13.2797 22.8084 14.8539 22.8084 16.5712C22.8084 20.0631 19.889 22.9252 16.3685 22.9252C15.3095 22.9252 14.2791 22.639 13.3346 22.1525L9.98584 23.0111L10.8731 19.7196C10.3293 18.7751 10.0145 17.6875 10.0145 16.5426C10.0145 13.0507 12.8766 10.1886 16.3685 10.1886C18.0858 10.1886 19.6886 10.8755 20.8621 12.0776ZM16.3685 21.8376C19.2879 21.8376 21.7208 19.462 21.7208 16.5712C21.7208 15.1401 21.1197 13.8235 20.1179 12.8218C19.1162 11.82 17.7996 11.2762 16.3971 11.2762C13.4777 11.2762 11.1021 13.6518 11.1021 16.5426C11.1021 17.5444 11.3883 18.5175 11.9035 19.3761L12.0466 19.5765L11.5028 21.5228L13.5063 20.979L13.678 21.0935C14.5081 21.58 15.424 21.8376 16.3685 21.8376ZM19.2879 17.8878C19.431 17.9737 19.5455 18.0023 19.5741 18.0882C19.6314 18.1454 19.6314 18.4603 19.4883 18.8323C19.3452 19.2044 18.7155 19.5479 18.4293 19.5765C17.9141 19.6624 17.5134 19.6337 16.5116 19.1758C14.9088 18.4889 13.8784 16.8861 13.7925 16.8002C13.7067 16.6857 13.1629 15.9415 13.1629 15.1401C13.1629 14.3673 13.5636 13.9953 13.7067 13.8235C13.8498 13.6518 14.0215 13.6232 14.136 13.6232C14.2219 13.6232 14.3363 13.6232 14.4222 13.6232C14.5367 13.6232 14.6512 13.5946 14.7943 13.9094C14.9088 14.2242 15.2522 14.997 15.2809 15.0829C15.3095 15.1688 15.3381 15.2546 15.2809 15.3691C14.9946 15.9702 14.6512 15.9415 14.8229 16.2278C15.4526 17.2868 16.0536 17.6588 16.9982 18.1168C17.1413 18.2027 17.2271 18.174 17.3416 18.0882C17.4275 17.9737 17.7423 17.6016 17.8282 17.4585C17.9427 17.2868 18.0572 17.3154 18.2003 17.3726C18.3434 17.4299 19.1162 17.802 19.2879 17.8878Z" fill="white"/>
</svg>
