<svg width="16" height="16" viewBox="0 0 16 16" fill="none" xmlns="http://www.w3.org/2000/svg">
<path d="M8 0C12.4194 0 16 3.58065 16 8C16 12.4194 12.4194 16 8 16C3.58065 16 0 12.4194 0 8C0 3.58065 3.58065 0 8 0ZM10.9677 10.0968C11.0323 10.0323 11.0968 9.90323 11.0968 9.77419C11.0968 9.6129 11 9.48387 10.9032 9.3871L9.03226 8V3.35484C9.03226 3.09677 8.77419 2.83871 8.51613 2.83871H7.48387C7.19355 2.83871 6.96774 3.09677 6.96774 3.35484V8.3871C6.96774 8.80645 7.12903 9.16129 7.45161 9.3871L9.6129 11C9.67742 11.0645 9.80645 11.129 9.90323 11.129C10.0968 11.129 10.2258 11.0323 10.3226 10.9032L10.9677 10.0968Z" fill="#E6512E"/>
</svg>
