<svg width="31" height="31" viewBox="0 0 31 31" fill="none" xmlns="http://www.w3.org/2000/svg">
<path d="M15.5 0C24.0625 0 31 6.9375 31 15.5C31 24.0625 24.0625 31 15.5 31C6.9375 31 0 24.0625 0 15.5C0 6.9375 6.9375 0 15.5 0ZM21.25 19.5625C21.375 19.4375 21.5 19.1875 21.5 18.9375C21.5 18.625 21.3125 18.375 21.125 18.1875L17.5 15.5V6.5C17.5 6 17 5.5 16.5 5.5H14.5C13.9375 5.5 13.5 6 13.5 6.5V16.25C13.5 17.0625 13.8125 17.75 14.4375 18.1875L18.625 21.3125C18.75 21.4375 19 21.5625 19.1875 21.5625C19.5625 21.5625 19.8125 21.375 20 21.125L21.25 19.5625Z" fill="white"/>
</svg>
