<svg width="22" height="29" viewBox="0 0 22 29" fill="none" xmlns="http://www.w3.org/2000/svg">
<path d="M9.66684 28.2137C1.46127 16.4111 0 15.1747 0 10.7909C0 4.83338 4.77722 -3.80739e-05 10.7909 -3.80739e-05C16.7484 -3.80739e-05 21.5818 4.83338 21.5818 10.7909C21.5818 15.1747 20.0643 16.4111 11.8587 28.2137C11.3529 29.0005 10.1727 29.0005 9.66684 28.2137ZM10.7909 15.2871C13.2638 15.2871 15.2871 13.32 15.2871 10.7909C15.2871 8.31794 13.2638 6.29465 10.7909 6.29465C8.26178 6.29465 6.29469 8.31794 6.29469 10.7909C6.29469 13.32 8.26178 15.2871 10.7909 15.2871Z" fill="#E6512E"/>
</svg>
