<svg width="29" height="29" viewBox="0 0 29 29" fill="none" xmlns="http://www.w3.org/2000/svg">
<path d="M27.9283 1.5237C28.549 1.69296 29.0003 2.20074 29.0003 2.82136C29.0003 17.3213 17.2649 29.0003 2.8214 29.0003C2.14436 29.0003 1.63657 28.6053 1.46731 27.9847L0.113231 22.117C0.00039104 21.4964 0.282492 20.8194 0.903113 20.5373L7.22216 17.8291C7.78637 17.6034 8.40699 17.7727 8.80193 18.224L11.6229 21.6657C16.0237 19.5781 19.5782 15.9672 21.6093 11.6793L18.1677 8.85831C17.7163 8.46337 17.547 7.84275 17.7727 7.27855L20.4809 0.959495C20.763 0.338873 21.44 0.000352819 22.0607 0.169613L27.9283 1.5237Z" fill="#E6512E"/>
</svg>
