<svg width="17" height="17" viewBox="0 0 17 17" fill="none" xmlns="http://www.w3.org/2000/svg">
<path d="M16.3716 0.892996C16.7354 0.992218 17 1.28988 17 1.6537C17 10.1537 10.1206 17 1.6537 17C1.25681 17 0.959144 16.7685 0.859922 16.4047L0.0661479 12.965C0 12.6012 0.16537 12.2043 0.529183 12.0389L4.23346 10.4514C4.5642 10.3191 4.92802 10.4183 5.15953 10.6829L6.81323 12.7004C9.393 11.4767 11.4767 9.35992 12.6673 6.8463L10.6498 5.19261C10.3852 4.96109 10.286 4.59728 10.4183 4.26654L12.0058 0.562257C12.1712 0.198444 12.5681 0 12.9319 0.0992218L16.3716 0.892996Z" fill="#E6512E"/>
</svg>
