<svg width="33" height="33" viewBox="0 0 33 33" fill="none" xmlns="http://www.w3.org/2000/svg">
<path d="M31.7802 1.73346C32.4864 1.92607 33 2.50389 33 3.21012C33 19.7101 19.6459 33 3.21012 33C2.43969 33 1.86187 32.5506 1.66926 31.8444L0.128405 25.1673C0 24.4611 0.321012 23.6907 1.02724 23.3696L8.2179 20.2879C8.85992 20.0311 9.56615 20.2237 10.0156 20.7374L13.2257 24.6537C18.2335 22.2782 22.2782 18.1693 24.5895 13.2899L20.6732 10.0798C20.1595 9.63035 19.9669 8.92412 20.2237 8.2821L23.3054 1.09144C23.6265 0.385214 24.3969 0 25.1031 0.192607L31.7802 1.73346Z" fill="white"/>
</svg>
