<svg width="18" height="18" viewBox="0 0 18 18" fill="none" xmlns="http://www.w3.org/2000/svg">
<path d="M9 0C13.9718 0 18 4.02823 18 9C18 13.9718 13.9718 18 9 18C4.02823 18 0 13.9718 0 9C0 4.02823 4.02823 0 9 0ZM13.3911 6.16935C13.5363 5.58871 13.1734 5.33468 12.7742 5.47984L4.10081 8.81855C3.52016 9.03629 3.52016 9.39919 3.99194 9.54435L6.20565 10.2339L11.3589 6.96774C11.6129 6.82258 11.8306 6.93145 11.6492 7.07661L7.47581 10.8508L7.33065 13.1371C7.54839 13.1371 7.65726 13.0282 7.76613 12.9194L8.85484 11.8669L11.1048 13.5363C11.5403 13.754 11.8306 13.6452 11.9395 13.1371L13.3911 6.16935Z" fill="white"/>
</svg>
