<svg width="20" height="12" viewBox="0 0 20 12" fill="none" xmlns="http://www.w3.org/2000/svg">
<path d="M19.4465 0.811808C19.1513 2.06642 16.4945 5.83026 16.4945 5.83026C16.2731 6.19926 16.1624 6.38376 16.4945 6.78967C16.6421 6.97417 19.4096 9.631 19.8155 10.8856C20 11.5129 19.7048 11.8081 19.0775 11.8081H16.9004C16.0886 11.8081 15.8303 11.1808 14.3542 9.7048C13.0627 8.45018 12.5092 8.26568 12.1771 8.26568C11.5129 8.26568 11.6236 8.52399 11.6236 10.9963C11.6236 11.5129 11.4391 11.8081 10.0738 11.8081C7.78598 11.8081 5.23985 10.4428 3.43173 7.85978C0.738007 4.05904 0 1.21771 0 0.627306C0 0.295203 0.147601 0 0.738007 0H2.91513C3.46863 0 3.69004 0.258303 3.91144 0.848708C4.98155 3.94834 6.75277 6.67897 7.49077 6.67897C7.78598 6.67897 7.89668 6.53137 7.89668 5.83026V2.61993C7.82288 1.14391 7.04797 1.03321 7.04797 0.516605C7.04797 0.258303 7.23247 0 7.60148 0H10.9963C11.476 0 11.6236 0.258303 11.6236 0.811808V5.12915C11.6236 5.57196 11.845 5.75646 11.9557 5.75646C12.2509 5.75646 12.4723 5.57196 12.9889 5.09225C14.5387 3.32103 15.6458 0.627306 15.6458 0.627306C15.7934 0.295203 16.0517 0 16.6052 0H18.7823C19.4465 0 19.5572 0.369004 19.4465 0.811808Z" fill="white"/>
</svg>
